<svg width="164" height="44" viewBox="0 0 164 44" fill="none" xmlns="http://www.w3.org/2000/svg">
<path fill-rule="evenodd" clip-rule="evenodd" d="M100.826 38.1801C99.8202 38.1801 98.9399 37.9726 98.1853 37.5576C97.437 37.1363 96.8554 36.5452 96.4404 35.7844C96.0254 35.0235 95.8179 34.1369 95.8179 33.1245V29.2385C95.8179 28.2199 96.0254 27.3332 96.4404 26.5787C96.8554 25.8178 97.437 25.2299 98.1853 24.8149C98.9399 24.3936 99.8202 24.1829 100.826 24.1829C101.832 24.1829 102.71 24.3936 103.458 24.8149C104.212 25.2299 104.797 25.8178 105.212 26.5787C105.627 27.3332 105.835 28.2199 105.835 29.2385V33.1245C105.835 34.1369 105.627 35.0235 105.212 35.7844C104.797 36.5452 104.212 37.1363 103.458 37.5576C102.71 37.9726 101.832 38.1801 100.826 38.1801ZM100.826 35.5957C101.531 35.5957 102.093 35.3756 102.515 34.9355C102.942 34.4953 103.156 33.9137 103.156 33.1906V29.1725C103.156 28.4431 102.942 27.8614 102.515 27.4276C102.093 26.9874 101.531 26.7673 100.826 26.7673C100.122 26.7673 99.5561 26.9874 99.1285 27.4276C98.7072 27.8614 98.4966 28.4431 98.4966 29.1725V33.1906C98.4966 33.9137 98.7072 34.4953 99.1285 34.9355C99.5561 35.3756 100.122 35.5957 100.826 35.5957ZM142.611 37.5576C143.366 37.9726 144.246 38.1801 145.252 38.1801C146.258 38.1801 147.135 37.9726 147.884 37.5576C148.638 37.1363 149.223 36.5452 149.638 35.7844C150.053 35.0235 150.261 34.1369 150.261 33.1245V29.2385C150.261 28.2199 150.053 27.3332 149.638 26.5787C149.223 25.8178 148.638 25.2299 147.884 24.8149C147.135 24.3936 146.258 24.1829 145.252 24.1829C144.246 24.1829 143.366 24.3936 142.611 24.8149C141.863 25.2299 141.281 25.8178 140.866 26.5787C140.451 27.3332 140.244 28.2199 140.244 29.2385V33.1245C140.244 34.1369 140.451 35.0235 140.866 35.7844C141.281 36.5452 141.863 37.1363 142.611 37.5576ZM146.941 34.9355C146.519 35.3756 145.956 35.5957 145.252 35.5957C144.548 35.5957 143.982 35.3756 143.554 34.9355C143.133 34.4953 142.922 33.9137 142.922 33.1906V29.1725C142.922 28.4431 143.133 27.8614 143.554 27.4276C143.982 26.9874 144.548 26.7673 145.252 26.7673C145.956 26.7673 146.519 26.9874 146.941 27.4276C147.368 27.8614 147.582 28.4431 147.582 29.1725V33.1906C147.582 33.9137 147.368 34.4953 146.941 34.9355ZM152.806 24.3245V38.0293H155.277V28.1431L160.135 38.0293H163.313V24.3245H160.842V34.3657L155.966 24.3245H152.806ZM137.698 24.3245V38.0388H135.019V24.3245H137.698ZM123.644 24.3245V26.8146H127.379V38.0388H129.964V26.8146H133.699V24.3245H123.644ZM121.946 24.3245V38.0388H119.267V24.3245H121.946ZM108.382 24.3245V38.0388H117.569V35.5487H110.967V24.3245H108.382ZM89.6787 24.3245L87.066 33.568L84.4533 24.3245H81.0483V38.0388H83.3969V28.4818L85.9247 36.5108H88.2073L90.7351 28.3V38.0388H93.0836V24.3245H89.6787ZM69.5034 38.0388V24.3245H78.6903V26.8146H72.0878V29.9838H77.6527V32.4739H72.0878V35.5487H78.6903V38.0388H69.5034ZM57.0151 24.3244V38.0387H61.5425C62.7436 38.0387 63.7434 37.8343 64.5419 37.4256C65.3468 37.0106 65.9505 36.4352 66.3529 35.6995C66.7553 34.9575 66.9566 34.0992 66.9566 33.1246V29.2385C66.9566 27.6791 66.485 26.4718 65.5417 25.6166C64.6048 24.7551 63.2749 24.3244 61.552 24.3244H57.0151ZM59.5995 26.8145V35.5486H61.6086C62.4575 35.5486 63.1146 35.3442 63.5799 34.9355C64.0452 34.5205 64.2778 33.942 64.2778 33.2V29.1631C64.2778 28.4148 64.0452 27.8363 63.5799 27.4276C63.1146 27.0188 62.4575 26.8145 61.6086 26.8145H59.5995Z" fill="#2E2E2E"/>
<path fill-rule="evenodd" clip-rule="evenodd" d="M62.6468 7.76691L60.0247 16.916L58.2609 7.76691H55.6011L58.7608 21.4812H61.1943L63.741 11.8982L66.1745 21.4812H68.608L71.7677 7.76691H69.1079L67.3441 16.916L64.7219 7.76691H62.6468ZM73.4663 7.76691V21.4812H82.6532V18.9911H76.0507V15.9162H81.6156V13.4262H76.0507V10.257H82.6532V7.76691H73.4663Z" fill="#DF5802"/>
<path fill-rule="evenodd" clip-rule="evenodd" d="M22.3638 0.551442L0.66724 20.6526C-0.713464 21.9318 0.191644 24.2405 2.07384 24.2405H6.5231V38.0383C6.5231 41.0864 8.99409 43.5574 12.0422 43.5574H35.4985C36.2605 43.5574 36.8783 42.9397 36.8783 42.1777C36.8783 41.4156 36.2605 40.7979 35.4985 40.7979H12.0422C10.5182 40.7979 9.28266 39.5624 9.28266 38.0383V23.5506C9.28266 22.4076 8.35604 21.481 7.21299 21.481H3.83352L23.7703 3.01012L43.7072 21.481H40.3277C39.1847 21.481 38.2581 22.4076 38.2581 23.5506V31.1394C38.2581 31.9014 38.8758 32.5192 39.6378 32.5192C40.3999 32.5192 41.0176 31.9014 41.0176 31.1394V24.2405H45.4669C47.3491 24.2405 48.2542 21.9318 46.8735 20.6526L25.177 0.551442C24.3833 -0.183814 23.1574 -0.183814 22.3638 0.551442Z" fill="#2E2E2E"/>
<path fill-rule="evenodd" clip-rule="evenodd" d="M25.5328 14.725L27.9715 17.1637C28.5105 17.7026 28.5105 18.5765 27.9715 19.1154L25.5932 21.4927L25.7621 21.6651C26.267 22.1996 26.7916 22.8768 27.2789 23.6549L27.4853 23.9944L28.0806 24.5939L28.8007 25.3295L29.4817 26.0346L34.0354 30.8576C35.6284 32.5426 37.076 34.0458 38.6546 35.6438L39.924 36.921C41.0307 38.0277 41.595 38.394 42.5248 38.7233L42.9806 38.8771L42.9499 39.1543C42.723 41.1962 41.2133 42.3881 39.6801 42.3881H39.4314L39.3528 42.1522C39.0545 41.2572 38.4584 40.3754 37.6667 39.5462L37.3081 39.1856C37.1735 39.0542 37.0055 38.8923 36.8026 38.6986L31.3693 33.575C28.312 30.6802 26.0639 28.4941 24.5575 26.9205L24.4671 26.8621L23.8872 26.5076C23.2917 26.131 22.7587 25.73 22.273 25.2599L22.0502 25.0367L19.6789 27.408C19.1759 27.911 18.3812 27.9446 17.8392 27.5086L17.7272 27.408L15.2885 24.9693C14.7495 24.4304 14.7495 23.5565 15.2885 23.0176L23.5811 14.725C24.12 14.186 24.9939 14.186 25.5328 14.725Z" fill="#DF5802"/>
</svg>
