<svg width="33" height="33" viewBox="0 0 33 33" fill="none" xmlns="http://www.w3.org/2000/svg">
<path fill-rule="evenodd" clip-rule="evenodd" d="M18.8843 2C13.9958 2 9.78139 4.89499 7.86587 9.06837L6.04819 8.23408C8.27767 3.37667 13.1856 0 18.8843 0C26.6807 0 33.001 6.32027 33.001 14.1167C33.001 19.8154 29.6243 24.7234 24.7669 26.9529L23.9326 25.1352C28.106 23.2196 31.001 19.0052 31.001 14.1167C31.001 7.42484 25.5762 2 18.8843 2ZM11.1309 17.482V19.072H18.1772V17.3533H13.7813L16.4067 14.8772C16.7955 14.5138 17.1213 14.1832 17.3844 13.8853C17.6475 13.5875 17.8454 13.2619 17.9781 12.9086C18.1109 12.5552 18.1772 12.1186 18.1772 11.5986C18.1772 10.8869 18.0279 10.2571 17.7293 9.70943C17.4306 9.16173 17.0206 8.73266 16.4992 8.42221C15.9778 8.11177 15.39 7.95654 14.7358 7.95654C14.0295 7.95654 13.4074 8.10546 12.8693 8.40328C12.3313 8.70111 11.9094 9.12009 11.6037 9.66021C11.298 10.2003 11.1451 10.8339 11.1451 11.5608H12.9084C12.899 11.2276 12.9701 10.9172 13.1218 10.6294C13.2734 10.3417 13.4856 10.1107 13.7581 9.93659C14.0307 9.76243 14.3447 9.67536 14.7003 9.67536C15.0368 9.67536 15.3343 9.75865 15.5926 9.92523C15.851 10.0918 16.0536 10.3177 16.2006 10.6029C16.3475 10.8881 16.421 11.2125 16.421 11.5759C16.421 11.8434 16.3546 12.1211 16.2219 12.4088C16.0892 12.6965 15.8521 13.0019 15.5108 13.325L11.1309 17.482ZM15.1067 25.1863C15.8562 24.4417 16.7978 24.4417 17.5521 25.1863L17.5805 25.2146L17.5812 25.2152C18.4891 26.1184 19.3969 27.0215 20.3001 27.9294C21.064 28.6981 21.0592 29.6397 20.2905 30.4179C20.1127 30.5974 19.9309 30.774 19.7491 30.9507L19.749 30.9508L19.749 30.9508C19.4002 31.2897 19.0512 31.6289 18.7291 31.9889C18.0133 32.7911 17.1197 33.0506 16.0916 32.9929C14.5975 32.9112 13.2235 32.4164 11.8975 31.7727C8.95256 30.3411 6.43515 28.357 4.32611 25.8492C2.76474 23.9949 1.47721 21.9724 0.63167 19.6952C0.218508 18.5951 -0.0745487 17.4661 0.0167313 16.2699C0.0743817 15.5349 0.348222 14.9056 0.891097 14.3915C1.24267 14.0573 1.58213 13.7144 1.92194 13.3711C2.14864 13.1421 2.3755 12.9129 2.6062 12.6861C3.35566 11.9463 4.29728 11.9463 5.05154 12.6813C5.36221 12.9855 5.66861 13.2941 5.97501 13.6026L5.97516 13.6027L5.97537 13.603C6.12845 13.7571 6.28153 13.9112 6.43515 14.0649C6.65866 14.2908 6.88216 14.5143 7.10567 14.7378C7.32896 14.961 7.55225 15.1843 7.77553 15.41C8.56342 16.2027 8.56342 17.1251 7.78033 17.9129L7.53868 18.1568L7.53859 18.1569L7.53854 18.157C7.05797 18.6422 6.57889 19.126 6.08925 19.5992C5.94032 19.7481 5.92591 19.8682 6.00277 20.0507C6.38231 20.9539 6.92518 21.7562 7.53532 22.5056C8.76519 24.0141 10.1536 25.3544 11.8111 26.3969C12.0257 26.5303 12.2542 26.6427 12.483 26.7552L12.483 26.7552L12.4831 26.7552C12.6334 26.8291 12.7838 26.903 12.9304 26.983C13.1178 27.0887 13.2475 27.0551 13.4013 26.8965C13.9603 26.3231 14.5289 25.7592 15.0976 25.1953L15.1067 25.1863ZM23.7415 19.0873V17.2852H19.2051V15.5816L22.483 8.18384H24.4383L21.1604 15.5816H23.7415V12.7421H25.4764V15.5816H26.4363V17.2852H25.4764V19.0873H23.7415Z" fill="#DF5802"/>
</svg>
