<svg width="16" height="15" viewBox="0 0 16 15" fill="none" xmlns="http://www.w3.org/2000/svg">
<path fill-rule="evenodd" clip-rule="evenodd" d="M5.97525 0.0227814C5.80534 0.0227814 5.64705 0.109067 5.555 0.251876L4.41342 2.02278H1.85282C0.872556 2.02278 0.0153809 2.83574 0.0153809 3.85611V12.1944C0.0153809 13.2147 0.872557 14.0277 1.85282 14.0277H14.2076C15.2115 14.0277 15.9969 13.1909 15.9969 12.1944V3.85611C15.9969 2.85957 15.2115 2.02278 14.2076 2.02278H11.4048L10.2633 0.251876C10.1712 0.109067 10.0129 0.0227814 9.84301 0.0227814H5.97525ZM5.10624 2.79369L6.24782 1.02278H9.57045L10.712 2.79369C10.8041 2.9365 10.9624 3.02278 11.1323 3.02278H14.2076C14.6278 3.02278 14.9969 3.3799 14.9969 3.85611V12.1944C14.9969 12.6706 14.6278 13.0277 14.2076 13.0277H1.85282C1.40901 13.0277 1.01538 12.6468 1.01538 12.1944V3.85611C1.01538 3.40373 1.40901 3.02278 1.85282 3.02278H4.68599C4.8559 3.02278 5.01418 2.9365 5.10624 2.79369ZM6 8C6 6.89543 6.89543 6 8 6C9.10457 6 10 6.89543 10 8C10 9.10457 9.10457 10 8 10C6.89543 10 6 9.10457 6 8ZM8 5C6.34315 5 5 6.34315 5 8C5 9.65685 6.34315 11 8 11C9.65685 11 11 9.65685 11 8C11 6.34315 9.65685 5 8 5Z" fill="#DF5802"/>
</svg>
