<svg width="14" height="14" viewBox="0 0 14 14" fill="none" xmlns="http://www.w3.org/2000/svg">
<path fill-rule="evenodd" clip-rule="evenodd" d="M6.42654 0.180768C6.77086 -0.060256 7.22914 -0.060256 7.57346 0.180768L13.5735 4.38077C13.8408 4.5679 14 4.87369 14 5.2V11.8C14 13.1115 12.8536 14 11.6667 14H2.33333C1.14638 14 0 13.1115 0 11.8V5.2C0 4.87369 0.159211 4.5679 0.426538 4.38077L6.42654 0.180768ZM2 5.72066V11.8C2 11.8189 2.00635 11.8574 2.05949 11.9052C2.11432 11.9546 2.20835 12 2.33333 12H11.6667C11.7917 12 11.8857 11.9546 11.9405 11.9052C11.9936 11.8574 12 11.8189 12 11.8V5.72066L7 2.22066L2 5.72066Z" fill="#2E2E2E"/>
<path fill-rule="evenodd" clip-rule="evenodd" d="M4 7.5C4 6.94772 4.44772 6.5 5 6.5H9C9.55228 6.5 10 6.94772 10 7.5V13C10 13.5523 9.55228 14 9 14C8.44772 14 8 13.5523 8 13V8.5H6V13C6 13.5523 5.55228 14 5 14C4.44772 14 4 13.5523 4 13V7.5Z" fill="#2E2E2E"/>
</svg>
