<svg width="68" height="62" viewBox="0 0 68 62" fill="none" xmlns="http://www.w3.org/2000/svg">
<path fill-rule="evenodd" clip-rule="evenodd" d="M14.9227 30.9127C15.4475 36.2517 15.0608 41.1837 13.0931 44.6922C12.106 46.4521 10.7211 47.8535 8.85957 48.7626C7.05124 49.6457 4.80817 50.057 2.06892 49.8976L0.564156 60.849C9.54327 62.1955 16.1745 60.1848 20.5762 55.5633C25.0272 50.8899 27.2448 43.4995 27.2448 34.0532V0.805664H0.532959V30.6872H14.9005L14.9227 30.9127ZM55.1961 30.9127C55.7209 36.2517 55.3342 41.1837 53.3665 44.6922C52.3794 46.4521 50.9945 47.8535 49.133 48.7626C47.3246 49.6457 45.0816 50.057 42.3423 49.8976L40.8376 60.849C49.8167 62.1955 56.4479 60.1848 60.8496 55.5633C65.3006 50.8899 67.5182 43.4995 67.5182 34.0532V0.805664H40.8064V30.6872H55.1739L55.1961 30.9127Z" fill="#069956"/>
</svg>
