<svg width="21" height="17" viewBox="0 0 21 17" fill="none" xmlns="http://www.w3.org/2000/svg">
<path d="M0.571289 14.7239C2.36135 15.8914 4.48655 16.5714 6.77143 16.5714C14.2116 16.5714 18.2796 10.3054 18.2796 4.87211C18.2796 4.69398 18.2757 4.51789 18.2678 4.34181C19.0584 3.76163 19.7444 3.03793 20.2856 2.21347C19.5611 2.54122 18.7814 2.76107 17.9632 2.85879C18.7981 2.35291 19.4379 1.54473 19.7415 0.585912C18.9598 1.05616 18.0933 1.39816 17.1727 1.58239C16.4354 0.784395 15.3836 0.285645 14.2205 0.285645C11.9868 0.285645 10.1751 2.12491 10.1751 4.39473C10.1751 4.71841 10.2116 5.03089 10.2806 5.33218C6.91929 5.16118 3.9375 3.52447 1.94439 1.03682C1.59643 1.6455 1.39633 2.34986 1.39633 3.10409C1.39633 4.53011 2.10999 5.7892 3.19526 6.52613C2.53187 6.50679 1.9089 6.32052 1.36282 6.01211C1.36282 6.02941 1.36282 6.04672 1.36282 6.06402C1.36282 8.05495 2.75859 9.71813 4.6068 10.0958C4.2687 10.1904 3.91089 10.2393 3.54223 10.2393C3.28102 10.2393 3.02769 10.2148 2.78126 10.166C3.29482 11.8007 4.78916 12.9895 6.55852 13.0211C5.17457 14.1244 3.43282 14.7799 1.5363 14.7799C1.21003 14.7799 0.888689 14.7636 0.571289 14.7239" fill="#474150"/>
</svg>
