<svg width="128" height="48" viewBox="0 0 128 48" fill="none" xmlns="http://www.w3.org/2000/svg">
<path fill-rule="evenodd" clip-rule="evenodd" d="M6.31145 48C2.85073 47.9954 0.00387538 45.1534 0 41.697V6.303C0.00387538 2.84657 2.85073 0.00464366 6.31145 0H121.689C125.149 0.00464366 127.996 2.84657 128 6.303V41.697C127.996 45.1534 125.149 47.9954 121.689 48H6.31145ZM6.31145 0.984457C3.39096 0.987552 0.988998 3.38678 0.985897 6.303V41.697C0.988998 44.6132 3.39096 47.0124 6.31145 47.0155H43.3919V0.984457H6.31145ZM93.6052 33.0195L94.395 31.912C94.9631 32.5041 95.7506 32.8377 96.5722 32.8346C97.3728 32.8346 97.7635 32.4623 97.7635 32.0761C97.7635 31.5868 97.157 31.4379 96.4322 31.2598L96.3777 31.2464L96.3289 31.2353C95.2164 30.982 93.8214 30.6643 93.8214 29.1243C93.8214 27.9866 94.8074 27.0431 96.4187 27.0431C97.5077 27.0431 98.4115 27.3713 99.0896 27.9959L98.2774 29.0647C97.7294 28.5771 97.0186 28.3109 96.2846 28.3186C95.6592 28.3186 95.3096 28.5965 95.3096 29.0051C95.3096 29.4399 95.9173 29.584 96.6389 29.7551L96.6745 29.7636L96.6869 29.7665C97.8059 30.0331 99.2423 30.3753 99.2423 31.9174C99.2423 33.1689 98.3494 34.1124 96.5009 34.1124C95.1848 34.0992 94.24 33.665 93.6052 33.0195ZM87.3643 33.0195L88.1541 31.912C88.7222 32.5041 89.5097 32.8377 90.3313 32.8346C91.1327 32.8346 91.5226 32.4623 91.5226 32.0761C91.5226 31.5866 90.9164 31.4378 90.1912 31.2596L90.1375 31.2464L90.0892 31.2354C88.9759 30.9821 87.5805 30.6645 87.5805 29.1243C87.5805 27.9866 88.5664 27.0431 90.1786 27.0431C91.2668 27.0431 92.1705 27.3713 92.8487 27.9959L92.0419 29.0647C91.4947 28.5771 90.7832 28.3109 90.0492 28.3186C89.4237 28.3186 89.0749 28.5965 89.0749 29.0051C89.0749 29.4402 89.6828 29.5842 90.4058 29.7555L90.4398 29.7636L90.4531 29.7667C91.5712 30.0333 93.0076 30.3757 93.0076 31.9174C93.0076 33.1689 92.1147 34.1124 90.2662 34.1124C88.9517 34.0992 88.0068 33.665 87.3643 33.0195ZM64.6305 33.0195L65.4211 31.912C65.9892 32.5041 66.7767 32.8377 67.5983 32.8346C68.3989 32.8346 68.7896 32.4623 68.7896 32.0761C68.7896 31.5868 68.1831 31.4379 67.4582 31.2598L67.4037 31.2464L67.355 31.2353C66.2425 30.982 64.8475 30.6643 64.8475 29.1243C64.8475 27.9866 65.8334 27.0431 67.4448 27.0431C68.5338 27.0431 69.4375 27.3713 70.115 27.9959L69.3027 29.0647C68.7555 28.5763 68.0447 28.3101 67.3107 28.3186C66.6852 28.3186 66.3357 28.5965 66.3357 29.0051C66.3357 29.4409 66.9438 29.5846 67.6697 29.7563L67.7006 29.7636L67.713 29.7665C68.832 30.0331 70.2684 30.3753 70.2684 31.9174C70.2684 33.1689 69.3755 34.1124 67.527 34.1124C66.2125 34.0992 65.2676 33.665 64.6305 33.0195ZM57.4866 31.2557V27.1438H58.9802V31.2054C58.9802 32.1581 59.5406 32.8144 60.5916 32.8144C61.6434 32.8144 62.1937 32.1581 62.1937 31.2054V27.1438H63.688V31.2464C63.688 32.9483 62.6812 34.1069 60.597 34.1069C58.5136 34.1069 57.4866 32.9375 57.4866 31.2557ZM78.9369 33.9839L75.6707 29.5236V33.9839H74.212V27.1438H75.7064L78.8811 31.433V27.1438H80.339V33.9839H78.9369ZM71.3272 33.9839V27.1438H72.7859V33.9839H71.3272ZM81.7713 33.9839V27.1438H86.6264V28.4254H83.23V29.8704H86.5466V31.1512H83.23V32.6991H86.6171V33.98L81.7713 33.9839ZM50.6125 33.9839V27.1438H54.2166C55.5234 27.1438 56.1884 27.9742 56.1884 28.8875C56.1884 29.7489 55.6544 30.3231 55.0079 30.4555C55.7365 30.5677 56.3155 31.2758 56.3155 32.1342C56.3155 33.1596 55.628 33.98 54.3228 33.98L50.6125 33.9839ZM54.8328 31.9322C54.8328 31.5018 54.5243 31.1327 53.9492 31.1327H52.0712V32.7216H53.9492C54.4987 32.7216 54.8328 32.4213 54.8328 31.9322ZM54.7002 29.1359V29.1336C54.7002 28.7242 54.3631 28.3875 53.9531 28.3875L53.9339 28.3878C53.9224 28.3881 53.9108 28.3888 53.8988 28.3898H52.0712V29.8812H53.8988C54.3902 29.8812 54.6987 29.5739 54.6987 29.1429L54.7002 29.1359ZM57.3797 18.82C57.3797 16.7187 58.9709 15.2777 61.0249 15.2777C62.2208 15.2444 63.3354 15.8976 63.8896 16.9556L62.6363 17.5708C62.3254 16.9718 61.71 16.5879 61.0342 16.5717C59.7925 16.5717 58.8888 17.5244 58.8888 18.8092C58.8888 20.0939 59.7925 21.0466 61.0342 21.0466C61.7131 21.0389 62.3347 20.6558 62.6456 20.0529L63.8911 20.6736C63.3982 21.5242 62.5355 22.3523 61.0272 22.3523C58.9802 22.3523 57.3797 20.9236 57.3797 18.82ZM64.5073 18.82C64.5073 16.7187 66.0985 15.2777 68.1525 15.2777C69.3484 15.2444 70.463 15.8976 71.0172 16.9556L69.7639 17.5708C69.4515 16.9687 68.8314 16.5848 68.1525 16.5717C66.9108 16.5717 66.0071 17.5244 66.0071 18.8092C66.0071 20.0939 66.9108 21.0466 68.1525 21.0466C68.8314 21.0389 69.453 20.6558 69.7639 20.0529L71.0172 20.6573C70.5242 21.5071 69.6615 22.3352 68.1525 22.3352C66.1008 22.3523 64.5073 20.9236 64.5073 18.82ZM75.835 22.2362L74.4903 19.8122H73.4222V22.2362H71.9643V15.3968H75.1685C76.5954 15.3968 77.4689 16.3294 77.4689 17.601C77.4689 18.8107 76.7093 19.4655 75.9753 19.6311L77.5154 22.2416L75.835 22.2362ZM55.335 22.2362L54.9149 21.0784H51.9774L51.5465 22.2362H49.8824L52.5324 15.3968H54.36L56.9991 22.2362H55.335ZM107.14 22.2362V15.3968H109.84C111.985 15.3968 113.476 16.7598 113.476 18.8223C113.476 20.8849 111.981 22.2362 109.84 22.2362H107.14ZM101.08 22.2362V15.3968H105.935V16.6777H102.538V18.1227H105.851V19.4043H102.538V20.9514H105.927V22.2323L101.08 22.2362ZM92.1465 22.2362V15.3968H93.6052V22.2362H92.1465ZM84.6996 22.2362V15.3968H87.3999C89.5454 15.3968 91.0351 16.7598 91.0351 18.8223C91.0351 20.8849 89.5415 22.2362 87.3999 22.2362H84.6996ZM78.64 22.2362V15.3968H83.4951V16.6777H80.098V18.1227H83.4145V19.4043H80.098V20.9514H83.4874V22.2323L78.64 22.2362ZM96.6133 22.2362V16.6777H94.6097V15.3968H100.073V16.6777H98.0813V22.2362H96.6133ZM111.995 18.8223C111.995 17.6119 111.247 16.68 109.849 16.68H108.608V20.9538H109.849C111.197 20.9538 111.987 19.9801 111.987 18.82L111.995 18.8223ZM89.5547 18.8223C89.5547 17.6119 88.8075 16.68 87.4092 16.68H86.1668V20.9538H87.4092C88.7556 20.9538 89.5469 19.9801 89.5469 18.82L89.5547 18.8223ZM53.4469 16.8511L52.3789 19.7936H54.515L53.4469 16.8511ZM75.973 17.601C75.973 17.0268 75.5327 16.6777 74.946 16.6777H73.4168V18.5236H74.946C75.5382 18.5236 75.973 18.1753 75.973 17.601ZM16.9773 41.4702C16.7913 40.2637 16.313 39.9788 15.3403 39.5462C16.0751 39.1151 16.5254 38.4836 16.5254 37.6175C16.5254 35.8855 15.1047 35.1788 13.553 35.1788H9.22031V44.3772H13.5158C15.3496 44.3772 17.2912 43.5769 16.9773 41.4702ZM25.5783 41.4702C25.3923 40.2637 24.9141 39.9788 23.9421 39.5462C24.6761 39.1151 25.1264 38.4836 25.1264 37.6175C25.1264 35.8855 23.7057 35.1788 22.154 35.1788H17.8213V44.3772H22.1168C23.9483 44.3772 25.8922 43.5769 25.5783 41.4702ZM32.54 39.5478C33.5128 39.9804 33.991 40.2652 34.1778 41.4718L34.1801 41.4702C34.4932 43.5769 32.5493 44.3772 30.7178 44.3772H26.4224V35.1788H30.755C32.3067 35.1788 33.7282 35.8855 33.7282 37.6175C33.7282 38.4851 33.2756 39.1167 32.54 39.5478ZM35.3737 42.1583V42.1761C35.3768 43.337 36.334 44.2905 37.4966 44.2905C38.6624 44.2905 39.6204 43.3331 39.6204 42.1699V42.1529C39.6173 40.9919 38.66 40.0377 37.4966 40.0377C36.3317 40.0377 35.3737 40.995 35.3737 42.1583ZM39.4274 42.1529V42.1699C39.4274 43.2271 38.5554 44.097 37.4967 44.097C36.4402 44.097 35.5706 43.231 35.5667 42.1761V42.1583C35.5667 41.1011 36.4379 40.2312 37.4967 40.2312C38.5539 40.2312 39.4235 41.098 39.4274 42.1529ZM37.6416 41.0159H36.6642L36.6681 43.1892H36.9905V42.3696H37.5478L38.1756 43.1892H38.5748L37.8997 42.3169C38.2283 42.2403 38.4632 42.0298 38.4632 41.6784V41.6668C38.4655 41.5074 38.4019 41.3549 38.2872 41.245C38.1105 41.0871 37.878 41.0051 37.6416 41.0159ZM11.1758 42.6389H13.691C15.424 42.6389 15.538 40.5415 13.691 40.5415H11.1758V42.6389ZM19.7823 42.6373H22.2943L22.292 42.6389C24.025 42.6389 24.1374 40.5415 22.292 40.5415H19.7823V42.6373ZM28.3833 42.6389V40.5415H30.893C32.7385 40.5415 32.6261 42.6389 30.893 42.6389H28.3833ZM38.1245 41.6916C38.1245 41.9416 37.9136 42.0824 37.6083 42.0824L36.9866 42.0786V41.3054H37.6261C37.9369 41.3054 38.1245 41.4517 38.1245 41.68V41.6916ZM13.4313 36.9388H11.1758V38.9007H13.5189C14.8877 38.9007 14.8373 36.9388 13.4313 36.9388ZM30.6333 36.9372H28.3911L28.3833 38.8984H30.7217C32.0905 38.8984 32.0401 36.9372 30.6333 36.9372ZM22.0346 36.9349H19.7846L19.7823 38.8969H22.1222C23.491 38.8969 23.4406 36.9349 22.0346 36.9349ZM17.564 31.0638H13.3755L13.9242 29.1986H29.5451L30.0939 31.0638H25.9038L25.1567 33.5992H18.3112L17.564 31.0638ZM16.4192 18.8262L18.4491 16.0292L18.4476 16.0346L18.994 16.4246C18.7421 16.937 18.791 17.3975 19.2444 17.7295L23.043 20.4933C24.7908 21.7625 24.8931 23.9799 23.715 25.6098L21.8083 28.2459L21.2611 27.8395C21.5673 27.3527 21.5169 26.8868 20.8713 26.4209L17.1067 23.7074C15.717 22.706 15.4015 20.2262 16.4192 18.8262ZM18.5445 8.05056L21.706 3.68475L22.1835 4.02296C21.5355 4.93776 21.9246 5.9021 22.7028 6.46166L28.2624 10.4947C30.7907 12.3274 30.8837 15.6693 29.2739 17.9307L25.6891 22.9652L25.2481 22.6355C26.0154 21.6286 25.8775 19.6613 24.8241 18.8896L19.6273 15.0795C17.6012 13.5881 17.0618 10.0976 18.5445 8.05056Z" fill="#2E2E2E"/>
</svg>
