<svg width="147" height="35" viewBox="0 0 147 35" fill="none" xmlns="http://www.w3.org/2000/svg">
<path d="M141.717 33.3104C144.317 32.1469 145.743 29.5574 144.987 27.4411C144.965 27.3763 144.939 27.3082 144.911 27.2434C143.99 25.0915 141.072 24.3201 138.389 25.5193C135.706 26.7184 134.278 29.4343 135.195 31.5862C135.344 31.9362 135.551 32.2409 135.795 32.5163C137.059 33.9294 139.469 34.3118 141.717 33.3104Z" fill="#2E2E2E"/>
<path fill-rule="evenodd" clip-rule="evenodd" d="M8.35029 23.7985C8.35029 24.586 8.38839 25.3606 8.46141 26.1255C8.53761 26.8903 8.64239 27.6422 8.78209 28.3844L9.24882 28.3908L16.0783 28.4978L16.345 25.9699L25.2572 25.7009C25.181 26.1903 25.0794 26.6635 24.9493 27.1139C24.3619 29.1719 23.2221 30.828 21.5234 32.0887C19.4533 33.6249 16.7768 34.393 13.5002 34.393C9.34407 34.393 6.05475 33.2651 3.63222 31.0062C2.82259 30.2511 2.14948 29.402 1.60973 28.4686C0.539752 26.6148 0 24.4143 0 21.8669C0 17.8515 1.16841 14.6333 3.50839 12.2221C5.8452 9.80114 8.95989 8.59229 12.8493 8.59229C16.7958 8.59229 19.9296 9.83678 22.2473 12.3258C23.2189 13.3693 23.9809 14.5717 24.546 15.9296C25.3271 17.8126 25.7208 19.9937 25.7208 22.4795V23.3221H16.6085C15.6814 23.3221 14.5733 23.361 13.2843 23.4355C11.9952 23.5101 10.3505 23.6332 8.35029 23.7985ZM16.6561 14.2444L9.8743 14.3805V19.0377H10.5506H17.0816L16.78 15.6412L16.6561 14.2444Z" fill="#2E2E2E"/>
<path d="M37.9954 32.7531C40.4941 32.7531 42.8817 32.7791 45.1487 32.8342C47.4188 32.886 49.616 32.967 51.7464 33.074C51.7464 32.7402 51.7432 32.3772 51.7337 31.9883C51.7273 31.5994 51.7242 31.1068 51.7242 30.5137C51.7242 29.5252 51.7432 28.7344 51.7813 28.1478C51.7877 28.0376 51.7972 27.9307 51.8067 27.8237C51.848 27.3506 51.9083 26.8806 51.9972 26.4237L42.3452 26.5922L40.2528 26.6279L50.8923 15.9297L50.9653 10.5563L50.9844 9.15625C49.1397 9.20162 47.0061 9.23727 44.5836 9.25996C42.161 9.28264 39.44 9.29237 36.4206 9.29237C34.3378 9.29237 32.7915 9.28264 31.7819 9.25996C30.7691 9.23727 29.8356 9.20162 28.972 9.15625L28.4608 15.4954C28.7244 15.476 28.9911 15.4565 29.2546 15.4371C31.1469 15.301 33.0456 15.194 34.9506 15.1162C37.1191 15.0255 39.2622 14.9736 41.3736 14.9607L39.9163 16.3737L27.5306 28.3974L27.4417 32.8471C27.6766 32.8406 27.9116 32.8374 28.1465 32.8342C29.3975 32.8115 30.677 32.792 31.9851 32.7791C33.5345 32.7596 35.5411 32.7531 37.9954 32.7531Z" fill="#2E2E2E"/>
<path d="M145.587 28.3681C145.438 28.0181 145.232 27.7102 144.987 27.438C145.743 29.5543 144.317 32.1438 141.717 33.3072C139.469 34.3119 137.059 33.9295 135.795 32.5132C135.821 32.578 135.843 32.6461 135.872 32.7109C136.792 34.8629 139.71 35.6342 142.393 34.4351C145.076 33.2359 146.508 30.5201 145.587 28.3681Z" fill="#2E2E2E"/>
<path d="M56.1851 32.7948C56.2263 30.9086 56.2581 28.9479 56.2771 26.9093C56.2994 24.8676 56.3089 22.6994 56.3089 20.3984C56.3089 17.6501 56.3025 15.4237 56.293 13.7189C56.2835 12.0142 56.2676 10.3484 56.2454 8.71826L62.751 8.97429L62.3287 24.7801L62.5478 33.1545L56.1851 32.7948Z" fill="#2E2E2E"/>
<path fill-rule="evenodd" clip-rule="evenodd" d="M80.4454 18.684C78.6959 16.8237 76.4925 15.8936 73.8413 15.8936C71.1775 15.8936 69.0598 16.6714 67.4818 18.2238C65.907 19.7761 65.1196 21.8665 65.1196 24.4916C65.1196 27.3015 65.9514 29.5701 67.6151 31.304C69.2788 33.0378 71.4474 33.9031 74.1207 33.9031C76.648 33.9031 78.7721 33.1318 80.493 31.5892C82.2138 30.0465 83.0743 28.1279 83.0743 25.8301C83.0743 22.9263 82.198 20.5475 80.4454 18.684ZM71.6696 20.7095L75.9464 20.2979L76.5877 28.9867H76.1654C75.1145 28.9867 74.1493 28.9252 73.2698 28.7955C72.3904 28.6691 71.568 28.4747 70.7965 28.2089L71.6696 20.7095Z" fill="#2E2E2E"/>
<path d="M103.039 26.9644C102.839 29.152 102.013 30.86 100.553 32.0753C99.0954 33.2939 97.1491 33.8999 94.7107 33.8999C91.869 33.8999 89.5386 33.054 87.7193 31.3655C85.9032 29.6738 84.9919 27.5121 84.9919 24.874C84.9919 22.142 85.8143 19.9609 87.4589 18.3339C89.1036 16.707 91.3261 15.8936 94.1265 15.8936C96.9078 15.8936 99.0858 16.5644 100.67 17.9061C102.251 19.2479 103.067 21.1081 103.121 23.4837L97.3618 23.3573L97.0157 20.0937L92.1516 20.3951C92.0881 21.0012 92.0437 21.6526 92.0183 22.3559C91.9929 23.0559 91.9802 23.8694 91.9802 24.793C91.9802 25.4736 91.9992 26.1639 92.0341 26.8639C92.0691 27.564 92.1294 28.277 92.2151 28.9997C92.7898 29.0645 93.2502 29.1099 93.5994 29.1358C93.9487 29.1617 94.2535 29.1747 94.5138 29.1747C94.8377 29.1747 95.3996 29.1358 96.2029 29.0645C96.3585 29.0548 96.4791 29.0418 96.5649 29.0321L96.7522 26.9709H103.039V26.9644Z" fill="#2E2E2E"/>
<path fill-rule="evenodd" clip-rule="evenodd" d="M113.199 33.372C114.326 33.0219 115.348 32.5196 116.263 31.8714L117.082 33.6896C118.114 33.5113 118.927 33.3817 119.52 33.2974C120.114 33.2132 120.584 33.171 120.927 33.171C121.032 33.171 121.317 33.1872 121.787 33.2229C121.861 33.228 121.932 33.2329 122.002 33.2377C122.372 33.2634 122.681 33.2848 122.927 33.3039C122.613 31.6802 122.406 30.4227 122.302 29.5347C122.197 28.6467 122.146 27.8268 122.146 27.0717C122.146 26.7638 122.171 26.08 122.222 25.017C122.276 23.9539 122.302 23.0465 122.302 22.2914C122.302 20.1848 121.609 18.5903 120.222 17.5111C118.835 16.4319 116.79 15.8906 114.088 15.8906C111.551 15.8906 109.449 16.4124 107.782 17.456C106.112 18.4995 105.28 19.8186 105.28 21.4131V21.7599C105.725 21.7384 106.158 21.7227 106.583 21.7074L106.655 21.7048C107.106 21.6918 107.531 21.6821 107.938 21.6821C108.436 21.6821 108.963 21.7015 109.522 21.7372C110.081 21.7728 110.691 21.8279 111.357 21.9025L111.424 19.7019C111.536 19.6931 111.648 19.687 111.755 19.6811C111.766 19.6805 111.778 19.6798 111.789 19.6792C111.91 19.676 112.037 19.6727 112.17 19.6727C112.789 19.6727 113.507 19.7473 114.326 19.8931C115.142 20.0454 115.942 20.2496 116.729 20.5121C116.78 20.7682 116.815 21.0469 116.837 21.3483C116.86 21.6529 116.869 21.9673 116.869 22.2946V22.8585C114.428 23.04 112.288 23.2831 110.449 23.591C108.611 23.8988 107.373 24.2132 106.741 24.5308C106.096 24.8614 105.544 25.5193 105.08 26.5078C104.617 27.4962 104.385 28.5204 104.385 29.5834C104.385 30.9316 104.858 31.9881 105.804 32.7529C106.75 33.5178 108.052 33.9002 109.716 33.9002C110.91 33.9002 112.072 33.722 113.199 33.372ZM115.269 29.6385L110.808 29.9723L110.757 27.0328C111.548 26.7897 112.335 26.5953 113.123 26.4527C113.907 26.3101 114.694 26.2128 115.485 26.161L115.501 26.686C115.501 27.1527 115.482 27.6129 115.447 28.0666C115.409 28.5204 115.352 29.0454 115.269 29.6385Z" fill="#2E2E2E"/>
<path d="M125.6 32.7948C125.642 30.9086 125.67 28.9479 125.692 26.9093C125.715 24.8676 125.724 22.6994 125.724 20.3984C125.724 17.6501 125.718 15.4237 125.708 13.7189C125.699 12.0142 125.683 10.3484 125.661 8.71826L132.166 8.97429L131.744 24.7801L131.963 33.1545L125.6 32.7948Z" fill="#2E2E2E"/>
<path d="M142.622 16.8562C143.469 17.0248 144.108 17.3748 144.527 17.9095C144.946 18.441 145.111 19.1022 145.019 19.8929C144.911 20.8166 144.489 21.5296 143.758 22.0384C143.028 22.5472 142.145 22.7352 141.114 22.6088C140.044 22.4759 139.221 22.1065 138.647 21.4907C138.072 20.8782 137.84 20.1198 137.948 19.2124C138.053 18.3114 138.399 17.6341 138.983 17.1868C139.567 16.7396 140.323 16.5646 141.253 16.6618L140.983 18.5253L139.691 18.4734L139.624 20.0647C139.859 20.1133 140.113 20.1619 140.39 20.2008C140.663 20.243 140.98 20.2883 141.342 20.3305C141.609 20.3629 141.882 20.392 142.155 20.4115C142.431 20.4342 142.711 20.4471 143 20.4569C143.047 20.2754 143.082 20.1263 143.104 20.0161C143.13 19.9059 143.146 19.8054 143.155 19.7212C143.168 19.6142 143.174 19.4327 143.177 19.1702C143.181 19.1216 143.181 19.0795 143.177 19.0536L142.38 18.8948L142.622 16.8562Z" fill="#2E2E2E"/>
<path fill-rule="evenodd" clip-rule="evenodd" d="M140.044 10.8637C139.247 11.3434 138.799 12.0142 138.697 12.8731C138.596 13.7351 138.818 14.4611 139.364 15.0509C139.91 15.6375 140.701 15.994 141.726 16.1204C142.828 16.2565 143.746 16.0977 144.489 15.6408C145.232 15.1838 145.654 14.5227 145.755 13.6541C145.854 12.8309 145.632 12.105 145.095 11.473C144.558 10.8378 143.841 10.4651 142.939 10.3549C141.806 10.2155 140.837 10.3841 140.044 10.8637ZM140.494 13.8032L140.498 12.3999L143.93 12.6105L143.914 12.7467C143.876 13.087 143.812 13.3981 143.73 13.6768C143.644 13.9588 143.536 14.2148 143.403 14.4514L140.494 13.8032Z" fill="#2E2E2E"/>
<path d="M145.847 9.88514C145.479 9.80735 145.082 9.73605 144.647 9.668C144.215 9.59994 143.657 9.52216 142.968 9.43789C142.218 9.34715 141.577 9.27261 141.044 9.21751C140.513 9.16242 140.021 9.11705 139.574 9.0814L139.774 7.39938L140.558 7.45447C140.199 7.18872 139.936 6.87111 139.767 6.50165C139.599 6.13219 139.535 5.74653 139.583 5.34466C139.628 4.96547 139.777 4.64787 140.031 4.38535C140.282 4.12284 140.602 3.95756 140.993 3.8895C140.625 3.6594 140.358 3.36124 140.199 3.0015C140.04 2.63852 139.99 2.21396 140.047 1.72135C140.123 1.09586 140.38 0.638893 140.818 0.343973C141.26 0.0490521 141.847 -0.0578971 142.584 0.0296068L147 0.531944L146.682 2.57694C146.527 2.54777 146.349 2.51861 146.155 2.49268C145.962 2.46675 145.666 2.42786 145.266 2.37601C145.187 2.36628 145.028 2.35008 144.79 2.32739C144.552 2.30147 144.209 2.26906 143.761 2.23017L142.101 2.11674L141.895 3.53624L146.438 4.10664C146.355 4.46314 146.289 4.78074 146.238 5.05298C146.184 5.32845 146.146 5.55856 146.124 5.74653C146.117 5.8081 146.108 5.89561 146.101 6.00904C146.095 6.12247 146.089 6.20997 146.079 6.27155L141.818 5.75625L141.704 7.2503C141.961 7.30215 142.234 7.35076 142.526 7.39614C142.818 7.44151 143.142 7.48364 143.504 7.52901L144.028 7.59383C144.158 7.60355 144.301 7.61652 144.454 7.62948C144.606 7.64568 144.835 7.67161 145.146 7.7105C145.384 7.73967 145.562 7.76236 145.679 7.77856C145.797 7.79477 145.905 7.81097 146 7.82717C145.955 8.33923 145.92 8.75083 145.901 9.05871C145.882 9.36335 145.863 9.63883 145.847 9.88514Z" fill="#2E2E2E"/>
</svg>
