<svg width="113" height="26" viewBox="0 0 113 26" fill="none" xmlns="http://www.w3.org/2000/svg">
<path fill-rule="evenodd" clip-rule="evenodd" d="M89.4814 20.5365H88.1133C85.3445 20.5365 83.0969 18.3189 83.0969 15.5871V10.6057H89.3837C89.8723 10.6057 90.2632 10.22 90.2632 9.73795V6.00989C90.2632 5.52781 89.8723 5.14215 89.3837 5.14215H83.0969V0.867738C83.0969 0.385661 82.706 0 82.2174 0H78.4713C77.9827 0 77.5918 0.385661 77.5918 0.867738V15.555C77.5918 21.3078 82.3151 25.9679 88.1459 25.9679H89.514C90.0026 25.9679 90.3935 25.5822 90.3935 25.1001V21.4363C90.3935 20.9221 90.0026 20.5365 89.4814 20.5365ZM112.055 6.33127L112.511 5.14215H113V6.81335H112.674V5.49567L112.153 6.81335H111.925L111.404 5.49567V6.81335H111.078V5.14215H111.599L112.055 6.33127ZM97.9507 15.4907C97.9507 13.8195 99.3188 12.4376 101.045 12.4376C102.772 12.4376 104.14 13.8195 104.14 15.4907C104.14 17.1619 102.772 18.5439 101.045 18.5439C99.3514 18.5439 97.9507 17.1941 97.9507 15.4907ZM106.909 22.6897C107.3 23.0754 107.918 23.0754 108.309 22.6897C108.7 22.3041 108.7 21.6934 108.277 21.3399L105.215 18.3189C106.55 16.3585 106.322 13.691 104.596 11.9876C102.609 10.0272 99.4165 10.0272 97.4295 11.9876C95.4425 13.9481 95.4425 17.0977 97.4295 19.0581C99.1885 20.7614 101.86 20.9864 103.847 19.6687L106.909 22.6897ZM108.57 8.09889C104.433 4.01731 97.6901 4.01731 93.5532 8.09889C89.4163 12.1805 89.4163 18.8331 93.5532 22.9147C95.6054 24.9394 98.2765 25.9357 100.948 25.9679H110.785C111.274 25.9679 111.664 25.5822 111.664 25.1001V15.3943C111.632 12.759 110.59 10.0915 108.57 8.09889ZM55.0504 15.78C55.0504 9.89864 59.904 4.91718 65.8651 5.0136C71.6307 5.11001 76.2888 9.77009 76.2563 15.4907V25.1323C76.2563 25.6143 75.8654 26 75.3768 26H71.5982C71.1095 26 70.7187 25.6143 70.7187 25.1323V15.6836C70.7187 13.0161 68.6991 10.7021 65.9954 10.5093C63.0637 10.3164 60.5881 12.6304 60.5881 15.4907V25.1001C60.5881 25.5822 60.1972 25.9679 59.7086 25.9679H55.93C55.4413 25.9679 55.0504 25.5822 55.0504 25.1001V15.78ZM21.1732 5.0136C18.9582 5.14215 16.9712 6.13844 15.4728 7.58467C13.6812 5.8492 11.2055 4.82077 8.4693 5.0136C3.64831 5.33498 0 9.51298 0 14.2695V25.1001C0 25.5822 0.390891 26 0.912078 26H4.62554C5.11415 26 5.53762 25.6143 5.53762 25.1001V14.2052C5.53762 12.2769 7.00346 10.5735 8.92534 10.4771C11.0101 10.3807 12.7039 11.9876 12.7039 14.0124V25.1001C12.7039 25.5822 13.0948 26 13.616 26H17.3295C17.8181 26 18.2416 25.6143 18.2416 25.1001V14.2052C18.2416 12.2769 19.7074 10.5735 21.6293 10.4771C23.714 10.3807 25.4079 11.9876 25.4079 14.0124V25.1001C25.4079 25.5822 25.7988 26 26.32 26H30.0334C30.5221 26 30.9455 25.6143 30.9455 25.1001V13.9802C30.8804 8.80593 26.4828 4.69221 21.1732 5.0136ZM110.231 6.81335H109.905V5.39926H109.384V5.14215H110.752V5.39926H110.231V6.81335ZM46.3531 19.0581C44.3661 21.0185 41.1738 21.0185 39.1868 19.0581C37.1998 17.0977 37.1998 13.9481 39.1868 11.9876C41.1738 10.0272 44.3661 10.0272 46.3531 11.9876C48.3402 13.9159 48.3402 17.0977 46.3531 19.0581ZM35.2453 8.09889C39.3822 4.01731 46.1251 4.01731 50.262 8.09889C52.3142 10.1236 53.3566 12.759 53.3566 15.3943V25.1001C53.3566 25.5822 52.9657 25.9679 52.4771 25.9679H42.6397C39.9686 25.9357 37.2975 24.9394 35.2453 22.9147C31.1084 18.8331 31.1084 12.1805 35.2453 8.09889Z" fill="#2E2E2E"/>
</svg>
