<svg width="112" height="42" viewBox="0 0 112 42" fill="none" xmlns="http://www.w3.org/2000/svg">
<path fill-rule="evenodd" clip-rule="evenodd" d="M96.9329 18.3427C97.4533 17.7007 97.5011 16.7731 97.5429 15.9618C97.5471 15.8798 97.5513 15.7989 97.5559 15.7196C97.5855 15.2275 97.6154 14.7354 97.6452 14.2433L97.6454 14.2402L97.6456 14.2371L97.6458 14.2339L97.6458 14.233L97.6458 14.2327C97.7904 11.8498 97.935 9.4667 98.0554 7.08261C98.0696 6.79897 98.0881 6.51631 98.1066 6.23391V6.23383V6.23366C98.1592 5.43027 98.2116 4.62944 98.1627 3.81596C98.1581 3.73914 98.1538 3.66134 98.1495 3.58283L98.1493 3.57951L98.1493 3.57939L98.1493 3.57928C98.103 2.73274 98.0522 1.80402 97.5191 1.12358C96.4906 -0.189433 94.2954 -0.081218 92.7982 0.123669C92.3363 0.18632 91.8778 0.271069 91.4244 0.377614C90.9689 0.484386 90.5163 0.601258 90.0756 0.741216C88.6386 1.20293 86.6182 2.05134 86.2774 3.67745C86.1008 4.51426 86.465 5.36781 86.7977 6.14773C86.8305 6.22443 86.8629 6.30042 86.8945 6.37561C87.2132 7.12769 87.6174 7.8252 88.0228 8.52496L88.0229 8.52512C88.165 8.7704 88.3073 9.01596 88.4461 9.26423C89.6681 11.4462 90.9088 13.6175 92.1492 15.7882L92.1503 15.7902L92.7365 16.8162C92.7802 16.8925 92.8244 16.9708 92.8692 17.0504C93.2654 17.7537 93.7172 18.5555 94.4629 18.9055C94.5188 18.9286 94.5746 18.9488 94.6319 18.9675C95.0036 19.106 95.4106 19.132 95.7971 19.044L95.8661 19.0296C96.2246 18.9329 96.5479 18.741 96.8021 18.4769C96.8491 18.4336 96.8917 18.3904 96.9343 18.3427H96.9329ZM109.103 12.2971C109.919 13.1084 110.59 14.0483 111.09 15.0775C111.542 16.0067 112.105 17.2087 111.983 18.2677C111.961 18.5348 111.882 18.7943 111.751 19.0296C111.506 19.4566 111.149 19.6687 110.772 19.8808C110.246 20.1819 109.656 20.3147 109.069 20.447L108.956 20.4724L101.048 22.2673C100.988 22.2819 100.927 22.2934 100.865 22.302C99.7984 22.504 98.7605 21.8407 98.5168 20.8014L98.5094 20.7696C98.4581 20.5275 98.4521 20.2781 98.4918 20.0338C98.5626 19.7158 98.6959 19.4144 98.8841 19.1464C99.104 18.8298 99.3507 18.532 99.6217 18.2562L101.106 16.744C101.936 15.8913 102.769 15.0458 103.617 14.2046C103.659 14.1622 103.701 14.1202 103.743 14.0787C103.812 14.0095 103.879 13.9416 103.945 13.8749L103.946 13.8748C104.353 13.4653 104.711 13.1055 105.039 12.8021L105.097 12.7495L105.097 12.7493C105.159 12.6936 105.222 12.6372 105.274 12.5857C105.777 12.1283 106.154 11.8542 106.503 11.6839C106.733 11.5642 106.987 11.492 107.247 11.4776C107.52 11.4653 107.792 11.5095 108.045 11.6074C108.174 11.66 108.299 11.7192 108.421 11.7849C108.54 11.8545 108.655 11.9301 108.765 12.0114C108.885 12.0985 108.998 12.194 109.103 12.2971ZM92.5102 24.1979L90.6809 24.6134L90.6765 24.612L84.5994 25.9899L84.4992 26.0129C83.908 26.1487 83.3159 26.2848 82.704 26.2424C82.2705 26.2121 81.8562 26.1746 81.4448 25.8962C81.2229 25.7418 81.0363 25.5427 80.8967 25.3118C80.3193 24.4143 80.2914 23.0912 80.284 22.061C80.2752 20.92 80.4609 19.7857 80.8335 18.7049C80.9328 18.4405 81.062 18.1879 81.2185 17.9517C81.299 17.8406 81.3853 17.7337 81.4771 17.6314C81.6621 17.4337 81.8874 17.2764 82.1383 17.1697C82.3785 17.0708 82.6377 17.0246 82.8979 17.0341C83.2873 17.037 83.7487 17.1192 84.404 17.3154C84.5055 17.3489 84.6079 17.3797 84.7111 17.4078C85.1337 17.5371 85.6062 17.7032 86.1427 17.8919L86.1428 17.8919L86.1431 17.892L86.1479 17.8937C86.2981 17.9465 86.4533 18.0011 86.6138 18.0571C87.7511 18.4481 88.8766 18.8477 90.0021 19.259L92.0077 19.979C92.3745 20.1099 92.7294 20.2711 93.0686 20.4609C93.3566 20.621 93.6101 20.8346 93.815 21.09C93.9603 21.2916 94.066 21.5182 94.1265 21.758L94.1338 21.7898C94.3782 22.8302 93.7397 23.8738 92.6895 24.1503C92.6152 24.1741 92.552 24.1884 92.5135 24.1972L92.5102 24.1979ZM94.2102 25.3753C94.966 25.1434 95.7879 25.4154 96.2467 26.0491C96.3787 26.2523 96.4769 26.4749 96.5376 26.7085C96.6757 27.1947 96.6919 27.7373 96.6728 28.2249L96.5905 30.3488C96.5523 31.5421 96.5038 32.7325 96.4406 33.9286C96.4343 34.069 96.4283 34.2057 96.4224 34.3388V34.3389L96.4224 34.3391C96.396 34.9418 96.3728 35.4704 96.3319 35.9313L96.3277 35.9725L96.3223 36.0237C96.314 36.1013 96.3057 36.1798 96.3025 36.2487C96.2379 36.9269 96.1409 37.3828 95.994 37.7435C95.9043 37.9874 95.7603 38.2081 95.5737 38.3914C95.377 38.5816 95.1417 38.7291 94.8832 38.8242C94.7502 38.8698 94.6148 38.9083 94.4776 38.9397C94.3405 38.9654 94.2023 38.9846 94.0633 38.9974C93.9134 39.0104 93.7621 39.0133 93.6107 39.006C92.7262 38.957 91.852 38.7925 91.01 38.5184C89.9991 38.1851 89.0382 37.7536 88.1596 37.1534C87.9252 36.9851 87.7108 36.7915 87.5204 36.5763C87.4322 36.468 87.35 36.3555 87.2736 36.2401C87.131 36.0078 87.0385 35.7495 87.0032 35.4811C86.9712 35.2228 86.9973 34.9608 87.0796 34.7135C87.1898 34.3413 87.4029 33.9228 87.7805 33.3514C87.8176 33.2977 87.8574 33.2362 87.8972 33.1747L87.8974 33.1745C87.9173 33.1437 87.9372 33.1129 87.9568 33.0831C88.2194 32.6909 88.5377 32.2549 88.9027 31.7552L88.9028 31.7551C88.9769 31.6536 89.0529 31.5494 89.1308 31.4425C89.8346 30.4628 90.5472 29.4975 91.2672 28.5337L92.5396 26.8167C92.5897 26.7713 92.6321 26.7105 92.6733 26.6516C92.6949 26.6206 92.7162 26.5901 92.738 26.5628C92.9851 26.2393 93.2741 25.9488 93.5975 25.6985C93.7108 25.6148 93.8312 25.541 93.9575 25.4777C94.0391 25.4376 94.1235 25.4033 94.2102 25.3753ZM110.606 29.372C110.342 29.0849 109.966 28.8006 109.372 28.4486C109.312 28.4148 109.243 28.3737 109.175 28.3331L109.175 28.333L109.093 28.2841C108.712 28.0579 108.27 27.824 107.769 27.5585C107.621 27.4801 107.468 27.399 107.309 27.3145C106.241 26.7373 105.173 26.1775 104.093 25.6206L102.187 24.6279C102.123 24.6091 102.058 24.5732 101.995 24.5381L101.995 24.538C101.961 24.5192 101.928 24.5006 101.895 24.485C101.528 24.3012 101.139 24.1649 100.737 24.0796C100.598 24.0533 100.458 24.0388 100.317 24.0363C100.225 24.0358 100.134 24.0411 100.043 24.0522C99.2609 24.1708 98.6445 24.7697 98.5153 25.5369C98.4874 25.775 98.4962 26.0159 98.5432 26.2497C98.6358 26.7489 98.8621 27.2409 99.0972 27.6723L100.114 29.5466C100.681 30.6028 101.254 31.6532 101.842 32.7007C101.877 32.7644 101.912 32.8272 101.946 32.8892C101.988 32.9641 102.029 33.0378 102.069 33.1102C102.35 33.6198 102.598 34.0675 102.832 34.4524C102.84 34.4659 102.849 34.4796 102.858 34.4934C102.866 34.5075 102.875 34.5217 102.884 34.536L102.884 34.5365C102.925 34.6016 102.966 34.6672 103 34.7265C103.36 35.308 103.648 35.6745 103.94 35.9385C104.334 36.311 104.878 36.4909 105.421 36.4291C105.561 36.4124 105.7 36.3883 105.837 36.3569C106.118 36.283 106.39 36.178 106.647 36.0438C107.42 35.6181 108.133 35.0942 108.767 34.4855C109.528 33.7497 110.201 32.9474 110.724 32.0298C110.797 31.8999 110.859 31.7657 110.912 31.6258C110.961 31.4976 111.004 31.3671 111.04 31.2348C111.071 31.0991 111.094 30.9635 111.11 30.8264C111.137 30.557 111.105 30.2852 111.018 30.0285C110.931 29.7822 110.791 29.5576 110.606 29.3706V29.372ZM47.8047 8.34224C46.259 8.34224 44.9792 9.6033 44.9792 11.1472V33.0643C44.9714 33.8053 45.2655 34.5186 45.7962 35.0455C46.3269 35.5723 47.0501 35.8689 47.8047 35.8692C49.3504 35.8692 50.6317 34.6082 50.6317 33.0643V11.1703C50.5656 9.6033 49.3284 8.34224 47.8047 8.34224ZM41.6453 26.4978C42.2184 25.9106 42.3286 25.1055 42.3506 24.6712V24.6697C42.3506 23.866 42.2184 23.2139 42.0861 22.7363L42.0832 22.7247C41.7456 21.4675 41.1698 20.2839 40.3861 19.2359C40.0776 18.8218 39.8337 18.539 39.7455 18.4524C37.9133 16.5175 35.5506 15.8004 35.1304 15.6908C33.362 15.1977 31.4887 15.1977 29.7203 15.6908L29.6719 15.7052L29.669 15.706C28.796 15.9547 26.6859 16.5556 25.1067 18.4524C25.0583 18.5103 25.0071 18.5683 24.9545 18.6277C24.9416 18.6423 24.9287 18.6569 24.9157 18.6717C24.7643 18.842 24.6042 19.0223 24.4661 19.2359C23.1848 20.9312 22.4781 23.0191 22.3899 25.1055C22.2797 27.2366 22.8322 29.4326 24.0238 31.216C24.3717 31.726 24.7635 32.2059 25.1948 32.6502C25.6286 33.0891 26.1011 33.4894 26.6068 33.8463C27.1139 34.1934 27.6536 34.492 28.2187 34.738C28.7835 34.9984 29.3765 35.1954 29.9863 35.3253C30.3624 35.4119 30.7591 35.4999 31.1559 35.5432C31.532 35.5864 31.9082 35.5864 32.2608 35.5864C33.7102 35.6307 35.1552 35.409 36.5218 34.9328C37.0575 34.7389 37.5748 34.4989 38.0675 34.2157C38.9286 33.7165 39.7455 32.8897 40.032 31.9331C40.2759 31.0847 40.01 30.2594 39.3473 29.6938C38.7963 29.2147 38.044 29.0849 37.3388 29.1931C36.6185 29.3184 35.9392 29.6638 35.279 29.9995L35.2758 30.0011L35.198 30.0415C34.2473 30.5191 33.2761 30.8683 32.1712 30.8683C31.1338 30.8683 30.2948 30.4325 30.0524 30.281C29.8526 30.1714 29.3883 29.9117 28.9034 29.4543C28.1085 28.6939 27.7559 27.8671 27.5795 27.3231C29.599 27.3131 31.6184 27.3073 33.6378 27.3015L33.6405 27.3015C35.6608 27.2972 37.6811 27.2914 39.7014 27.2799C40.1878 27.2799 41.0267 27.1284 41.6453 26.4978ZM27.6677 23.8228C27.9111 22.7454 28.5179 21.7804 29.3897 21.0842L29.3883 21.0828C30.2574 20.3902 31.3399 20.0072 32.4591 19.9963C33.5843 20.0089 34.6727 20.3915 35.5506 21.0828C36.4221 21.7836 37.0349 22.7464 37.2947 23.8228H27.6677ZM59.5519 18.236C61.1858 16.4309 63.4823 15.3214 65.9993 15.3214C71.0567 15.3214 75.1634 19.8881 75.1855 25.4965C75.1855 31.1063 71.0787 35.6081 66.0213 35.6081C63.4823 35.6081 61.2078 34.4769 59.574 32.6935V39.2167C59.5775 39.9544 59.2812 40.6631 58.7508 41.1855C58.2204 41.708 57.4997 42.0011 56.7485 42C55.9969 42.0015 55.2759 41.7086 54.7452 41.186C54.2144 40.6635 53.918 39.9547 53.9215 39.2167V18.3225C53.9046 16.813 55.1234 15.5691 56.6601 15.5273C58.1968 15.4856 59.4838 16.6615 59.5519 18.1696V18.236ZM59.5519 25.5412C59.5519 28.6059 61.8925 31.0631 64.7636 31.0631C67.6332 31.0631 69.9518 28.6059 69.9738 25.5412C69.9738 22.4535 67.6332 19.9963 64.7636 19.9963C61.8705 19.9963 59.5519 22.4535 59.5519 25.5412ZM17.2238 28.955L18.1509 26.9538L18.5197 26.153C18.5388 26.1115 18.5578 26.07 18.5768 26.0286C18.7792 25.5874 18.9801 25.1497 19.1883 24.7144C19.8201 23.3827 20.1874 22.5747 20.3226 22.276L20.3813 22.149C20.4608 21.9605 20.5507 21.7626 20.6442 21.5567C20.6666 21.5074 20.6892 21.4576 20.7119 21.4074C21.1998 20.3454 21.7669 19.1075 21.7493 17.9532C21.7272 17.4309 21.595 16.9085 21.2644 16.4526C20.5934 15.5236 19.397 15.1136 18.2832 15.431C16.7521 15.8812 16.0615 17.5304 15.4885 18.9011L15.3019 19.3441C15.1197 19.7625 14.9522 20.1305 14.8214 20.4176C14.6657 20.7567 14.5628 20.9817 14.5511 21.0395C14.1206 22.0942 13.6842 23.1432 13.2478 24.1921C13.1555 24.4151 13.0631 24.638 12.9707 24.8609C12.6279 25.6881 12.2851 26.5151 11.946 27.3448C11.9024 27.25 11.8477 27.1385 11.7857 27.0121C11.76 26.9596 11.733 26.9045 11.705 26.847L11.4596 26.3449C11.2936 25.9972 11.1364 25.6812 11.0012 25.4099C10.8484 25.104 10.725 24.8544 10.6427 24.6712C9.71556 22.8228 8.78842 20.9745 7.83924 19.1262C7.74632 18.945 7.65661 18.7563 7.56555 18.5648C7.55005 18.5322 7.53452 18.4996 7.51893 18.4668C6.9312 17.226 6.30086 15.8971 4.88003 15.4743C3.54136 15.0588 2.10176 15.7199 1.56818 16.9951C0.883482 18.5837 1.72246 20.0828 2.5394 21.4319C3.2953 22.6664 4.017 23.9207 4.70371 25.1935C5.01521 25.7605 5.13275 25.977 5.83803 27.29L6.80043 29.0849C7.04009 29.5268 7.27763 29.9697 7.51305 30.4138C7.93181 31.2001 8.43431 32.1409 9.00882 33.1942C9.0211 33.2192 9.03237 33.2447 9.04261 33.2706L9.07493 33.3457C8.9427 33.8463 8.63267 34.6948 7.9274 35.4984C7.41901 36.0857 7.0223 36.5431 6.38167 36.6513C5.70579 36.7869 5.08133 36.4825 4.46568 36.1795C4.09541 35.9977 3.72955 35.8187 3.35635 35.7379C0.993681 35.194 -0.83856 37.5646 0.397137 39.6294C1.6343 41.6739 4.96819 42.3261 7.17658 41.847C11.7401 40.8767 13.8341 36.3055 15.5995 32.4518L15.6031 32.4439L15.9866 31.607C16.3833 30.7153 16.8036 29.8236 17.2238 28.955Z" fill="#2E2E2E"/>
</svg>
