<svg width="119" height="36" viewBox="0 0 119 36" fill="none" xmlns="http://www.w3.org/2000/svg">
<path fill-rule="evenodd" clip-rule="evenodd" d="M26.9068 35.2465C19.0819 38.8462 5.0873 28.7972 1.32532 20.9979C-2.43666 13.1987 2.22819 5.54945 10.0531 1.79982C12.6113 0.599941 15.3199 0 18.0285 0C23.1448 0 27.9601 2.39976 30.3678 7.64925C34.1298 15.2985 34.7317 31.4969 26.9068 35.2465ZM14.2665 8.0992H9.30071L11.2569 11.0989C12.3103 12.7487 12.1598 14.8485 11.1065 16.4984L9.45119 18.7482L9.60167 18.8981C10.3541 19.6481 11.5579 19.6481 12.3103 18.8981L14.116 17.2483C14.1735 17.191 14.209 17.1337 14.2394 17.0848C14.2885 17.0056 14.324 16.9483 14.417 16.9483C15.7713 16.0484 17.5771 16.3484 18.4799 17.6983L24.8001 26.6974C24.8001 26.8474 24.9505 26.9973 24.9505 26.9973C25.7029 27.7473 26.9068 27.7473 27.6592 26.9973L20.2857 11.3989C18.7809 8.39917 15.9218 8.0992 14.2665 8.0992ZM11.8589 25.9475C11.8589 25.3475 11.8589 24.8976 12.1598 24.4476L15.4704 17.6983C15.4704 17.6983 16.8247 17.2483 17.878 18.7482C18.0285 19.0481 18.0285 19.4981 17.878 19.948L13.2132 27.8973C13.2132 27.8973 11.8589 26.9973 11.8589 25.9475ZM101.996 17.5483C101.243 20.9979 98.3844 23.8477 93.87 23.8477C88.7537 23.8477 85.2927 20.098 85.2927 14.6986C85.2927 9.44907 88.9042 5.54945 94.0205 5.54945C98.2339 5.54945 101.093 7.79923 102.146 11.5489L98.3844 12.2988C97.632 10.049 96.1272 8.99912 94.1709 8.99912C91.7633 8.99912 89.5061 10.7989 89.5061 14.6986C89.5061 18.5982 91.7633 20.398 94.1709 20.398C96.2776 20.398 97.9329 18.8981 98.5348 16.7983L101.996 17.5483ZM84.5403 22.0478C84.5403 23.0977 83.7879 23.8477 82.7345 23.8477C81.6812 23.8477 80.9288 23.0977 80.9288 22.0478C80.9288 20.9979 81.6812 20.248 82.7345 20.248C83.7879 20.248 84.5403 21.1479 84.5403 22.0478ZM114.787 20.9979C113.432 22.9477 111.175 23.9976 108.767 23.9976C105.607 23.9976 103.35 22.1978 103.35 19.3481C103.35 16.4984 105.306 14.8485 109.67 13.9486L114.787 12.7487V12.4488C114.787 10.199 113.583 8.99912 111.326 8.99912C109.219 8.99912 107.865 10.049 107.112 11.8488L103.501 10.7989C104.704 7.64925 107.714 5.84943 111.476 5.84943C116.291 5.84943 118.85 8.39917 118.85 12.2988V21.2979C118.85 21.8978 118.85 23.0977 119 23.6977H114.787V20.9979ZM109.971 20.9979C111.777 20.9979 114.034 19.7981 114.636 17.8482V15.4485L110.122 16.4984C108.166 16.9483 107.263 17.6983 107.263 18.8981C107.263 20.098 108.316 20.9979 109.971 20.9979ZM61.3665 23.0977C61.3665 23.0977 57.9055 34.3466 57.9055 34.4966C57.9055 34.6466 58.056 34.9466 58.2064 35.2465H62.4198C62.5703 35.2465 62.8713 35.0965 62.8713 34.7966C62.8713 34.7282 63.1212 33.8503 63.436 32.7445L63.4361 32.7443C63.8122 31.4232 64.2808 29.7769 64.5266 28.7972C64.677 28.4972 64.8275 28.1972 64.8275 27.8973C65.0276 27.2326 65.1981 26.5679 65.3652 25.9163L65.3654 25.9155C65.5754 25.097 65.78 24.2991 66.0313 23.5477C66.9342 23.5477 67.8371 23.6977 68.5895 23.8477C68.705 23.8641 68.8187 23.8806 68.931 23.8968L68.9353 23.8974L68.9368 23.8976L68.9398 23.8981C69.8479 24.0295 70.6642 24.1476 71.5991 24.1476C77.1668 24.1476 81.6812 17.9982 81.6812 13.1987C81.6812 10.199 80.4773 6.1494 75.3611 6.1494C74.3077 6.1494 72.5019 6.59935 70.8467 7.94922C70.8467 7.94922 70.9972 7.04931 71.2981 6.44937C71.4486 5.99941 71.1476 5.84943 70.8467 5.84943H67.3857C67.0847 5.69944 66.6333 5.99941 66.6333 6.29938L62.2694 20.248H61.9684C60.9151 20.248 59.8617 20.398 58.8083 20.548L63.1722 6.29938C63.1722 6.29938 63.3227 5.84943 62.7208 5.84943H59.2598C59.2598 5.84943 58.5074 5.84943 58.3569 6.44937C58.2064 7.34928 57.9055 8.99912 57.6045 9.74904C57.0026 11.8488 56.2502 14.0986 54.8959 15.7485C53.3911 17.3983 50.833 18.8981 49.6291 17.6983C49.3282 17.2483 49.0272 16.6484 49.1777 15.8984C49.5845 13.0601 50.7245 10.1 51.8268 7.23766L51.828 7.23467L51.8311 7.22651C51.9506 6.91622 52.0697 6.60709 52.1873 6.29938C52.4882 5.69944 51.7358 5.69944 51.7358 5.69944H48.7262C48.7262 5.69944 48.1243 5.54945 47.8234 6.29938C46.6195 9.44907 45.7167 12.7487 44.9643 16.0484C44.8138 16.4984 44.8138 16.7983 44.8138 17.0983C44.8138 19.6481 47.2215 20.9979 48.8767 20.9979C51.1339 20.9979 53.2406 20.248 55.0464 18.8981L54.7454 19.7981C54.5949 20.398 54.4445 20.8479 54.294 21.2978L54.294 21.2979C44.5128 23.9976 42.1052 27.4473 42.1052 31.0469C42.1052 34.6466 45.2652 35.5465 47.5224 35.5465C53.5416 35.5465 55.9492 32.5468 58.056 23.3977C58.8083 23.0977 60.1627 23.0977 61.3665 23.0977ZM74.6087 8.99912C72.201 8.99912 69.6428 11.5489 69.1914 12.5988C68.74 13.6487 66.7837 20.698 66.7837 20.698C67.1063 20.698 67.4289 20.741 67.7283 20.781C67.9876 20.8156 68.2295 20.848 68.439 20.848C69.0409 20.9979 69.6428 20.9979 70.2448 20.9979C74.3077 20.9979 76.7154 16.4984 76.7154 13.1987C76.8658 10.9489 76.5649 8.99912 74.6087 8.99912ZM48.2748 32.2468C50.9834 32.2468 52.1873 28.7972 53.2406 25.4975C53.2406 25.3475 53.2782 25.235 53.3159 25.1225C53.3535 25.01 53.3911 24.8976 53.3911 24.7476L53.5416 24.1476C51.7358 24.5976 50.231 25.0475 49.0272 25.6475C44.0614 28.0472 45.8671 32.2468 48.2748 32.2468ZM67.5361 32.6968H65.8809H65.7304V32.8468H66.4828V34.7966H66.7837V32.8468H67.5361V32.6968ZM69.4924 32.6968H69.9438V34.7966H69.6428V32.8468L69.4924 33.2967L68.8904 34.9466H68.74L68.1381 33.2967L67.9876 32.9968V34.9466H67.8371V32.8468H68.2885L68.74 34.3466L68.8904 34.6466L69.0409 34.3466L69.4924 32.6968Z" fill="#2E2E2E"/>
</svg>
