<svg width="48" height="48" viewBox="0 0 48 48" fill="none" xmlns="http://www.w3.org/2000/svg">
<path fill-rule="evenodd" clip-rule="evenodd" d="M24 48C37.2548 48 48 37.2548 48 24C48 10.7452 37.2548 0 24 0C10.7452 0 0 10.7452 0 24C0 37.2548 10.7452 48 24 48ZM36.2062 15.8391C36.6797 16.5516 37.0219 17.3531 37.1859 18.1922C37.2891 18.7266 37.3031 19.2609 37.2891 19.8094C37.2797 20.3297 37.2469 20.8453 37.1719 21.3609C37.0641 22.125 36.8531 22.875 36.4734 23.55C36.3047 23.8453 36.1078 24.1219 35.8922 24.3844C35.5922 24.7453 35.2687 25.0781 34.8937 25.3594C34.0594 25.9828 33.0375 26.3438 32.0016 26.4375C31.5187 26.4797 31.0453 26.4656 30.5719 26.3672C30.1078 26.2687 29.6578 26.1187 29.2172 25.9453C28.8797 25.8094 28.5469 25.6594 28.2234 25.4953C28.1391 25.4531 28.0547 25.4109 27.9703 25.3641C27.9674 25.3612 27.9645 25.3601 27.9605 25.3585L27.9568 25.3571L27.9516 25.3547V30.1359H25.0266V13.8187H27.9516V14.7656C28.0359 14.6766 28.125 14.5922 28.2141 14.5125C28.7531 14.0391 29.4188 13.7203 30.1172 13.5562C30.6281 13.4391 31.1484 13.4016 31.6734 13.4156C32.1844 13.4297 32.7 13.4859 33.1969 13.6078C33.7969 13.7484 34.3969 13.9875 34.8891 14.3625C34.9978 14.445 35.0945 14.5395 35.1913 14.634L35.1913 14.634C35.2155 14.6576 35.2397 14.6813 35.2641 14.7047C35.625 15.0422 35.9344 15.4312 36.2062 15.8391ZM27.9562 20.9531C28.3125 22.5984 29.5453 23.8125 31.0078 23.8125C32.7469 23.8125 34.1625 22.0875 34.1625 19.9641C34.1625 17.8406 32.7516 16.1203 31.0078 16.1203C29.5453 16.1203 28.3125 17.3344 27.9562 18.9797V20.9531ZM14.8594 13.7625H11.5969L16.4578 26.4C16.65 28.2703 13.2328 27.2672 13.2328 27.2672V29.8734C13.2328 29.8734 15.2719 30.6281 17.0766 30.0469C18.8813 29.4609 19.65 26.5172 19.65 26.5172L24.0047 13.7625H20.8734L18.0234 23.0953L14.8594 13.7625ZM37.2938 31.425H10.6453V34.1484H37.2938V31.425Z" fill="#2E2E2E"/>
</svg>
