<svg width="32" height="32" viewBox="0 0 32 32" fill="none" xmlns="http://www.w3.org/2000/svg">
<path fill-rule="evenodd" clip-rule="evenodd" d="M20.0934 16C19.4173 14.5872 18.3711 13.3837 17.0658 12.5172C16.7276 12.2861 16.3712 12.0829 16 11.9097C16.5773 11.4059 17.3313 11.152 18.096 11.2037L28.0156 0.73931C30.2182 -1.45613 33.4101 1.7251 31.3195 3.94603C31.2996 3.97455 28.6644 6.46462 26.0368 8.9475C23.427 11.4136 20.8248 13.8725 20.7999 13.9055C20.8271 14.284 20.7787 14.6642 20.6574 15.0238C20.5361 15.3833 20.3443 15.7152 20.0934 16ZM30.4866 2.34611C30.4882 2.12625 30.4031 1.9146 30.2498 1.75693C30.092 1.60369 29.8802 1.51866 29.6602 1.52022C29.4401 1.52178 29.2296 1.60982 29.074 1.76528C28.9184 1.92075 28.8303 2.13116 28.8287 2.35102C28.8271 2.57088 28.9122 2.78253 29.0656 2.94021C29.2234 3.09344 29.4352 3.17847 29.6552 3.17691C29.8752 3.17535 30.0858 3.08732 30.2414 2.93185C30.397 2.77639 30.4851 2.56598 30.4866 2.34611ZM19.7655 22C20.0979 20.6515 20.0766 19.24 19.7036 17.9022C19.3307 16.5643 18.6187 15.3454 17.6366 14.3633C16.6546 13.3813 15.4356 12.6693 14.0978 12.2964C12.7599 11.9234 11.3485 11.9021 10 12.2345L19.7655 22ZM12.7725 31.6712C13.5817 29.9294 14.6915 28.3438 16.0509 26.9872C16.1402 26.8987 16.2317 26.8087 16.3248 26.7171C17.3359 25.7223 18.5307 24.5468 19 23.2659C17.7376 22.0084 15.5963 19.8648 13.5079 17.7742C11.6606 15.9248 9.85449 14.1168 8.73459 13C7.4364 13.4757 6.23786 14.6996 5.23581 15.7228C5.16061 15.7996 5.08652 15.8753 5.01358 15.9494C3.65478 17.3063 2.06972 18.4157 0.32966 19.2278C0.246371 19.2672 0.173748 19.326 0.117892 19.3993C0.0620348 19.4726 0.0245748 19.5582 0.00865801 19.6489C-0.00725878 19.7397 -0.00116776 19.8329 0.0264195 19.9208C0.0540068 20.0087 0.102285 20.0887 0.167199 20.1541L2.75488 22.7419C3.71304 21.8702 6.77619 18.5386 6.76836 18.46C6.86741 18.3459 7.00727 18.2752 7.15789 18.2631C7.30851 18.251 7.45786 18.2985 7.57385 18.3953C7.68984 18.4922 7.76322 18.6306 7.77821 18.781C7.79319 18.9314 7.7486 19.0816 7.65401 19.1995C7.61925 19.2992 4.58777 22.6338 3.56729 23.5544L5.39132 25.3785L6.20378 24.566L9.5755 21.1941C9.68397 21.09 9.82895 21.0325 9.97931 21.034C10.1297 21.0356 10.2734 21.096 10.3798 21.2023C10.4861 21.3087 10.5465 21.4524 10.548 21.6028C10.5496 21.7532 10.4921 21.8982 10.3879 22.0066C9.83201 22.5618 8.99017 23.404 8.16647 24.2281L8.16601 24.2285C7.42259 24.9723 6.69399 25.7012 6.20379 26.1909L8.44618 28.4334C9.33633 27.4503 12.7431 24.3331 12.801 24.3466C12.9181 24.2504 13.0684 24.2043 13.2193 24.2185C13.3701 24.2327 13.5092 24.306 13.6063 24.4223C13.7033 24.5387 13.7504 24.6887 13.7373 24.8397C13.7242 24.9906 13.6519 25.1303 13.5362 25.2281C13.4436 25.2748 10.1414 28.2502 9.25871 29.246L11.8463 31.8337C11.9118 31.8983 11.9918 31.9464 12.0797 31.9738C12.1675 32.0012 12.2607 32.0072 12.3513 31.9913C12.442 31.9754 12.5275 31.9381 12.6008 31.8824C12.6741 31.8267 12.7329 31.7543 12.7725 31.6712Z" fill="#069956"/>
</svg>
