<svg width="24" height="30" viewBox="0 0 24 30" fill="none" xmlns="http://www.w3.org/2000/svg">
<path fill-rule="evenodd" clip-rule="evenodd" d="M14.6266 14.9553C14.9424 14.9553 15.2192 15.1191 15.3811 15.3659C16.8138 15.243 18.0864 14.7972 18.9607 14.1716C18.8925 13.9985 18.8538 13.8132 18.8538 13.6142V10.6164C18.8538 10.0279 19.1936 9.52074 19.6874 9.27498C19.4743 5.21898 16.1069 1.98602 12 1.98602C7.89155 1.98602 4.52579 5.21898 4.31171 9.27498C4.80611 9.52042 5.14627 10.0279 5.14627 10.6164V13.6142C5.14627 14.4446 4.47459 15.1159 3.64643 15.1159H3.57059C2.74307 15.1159 2.07171 14.4446 2.07171 13.6142V10.6164C2.07171 10.0193 2.42147 9.50442 2.92739 9.26474C3.14659 4.45098 7.13219 0.600098 12 0.600098C16.8679 0.600098 20.8528 4.45098 21.073 9.26474C21.5779 9.5041 21.928 10.0193 21.928 10.6164V13.6142C21.928 14.4446 21.2573 15.1159 20.4279 15.1159H20.353C20.0554 15.1159 19.7795 15.0279 19.5463 14.8775C18.5306 15.6279 17.0835 16.1361 15.4199 16.267C15.2707 16.5543 14.9751 16.7531 14.6266 16.7531H13.4333C12.9354 16.7531 12.5338 16.3502 12.5338 15.8529C12.5338 15.3575 12.9354 14.9553 13.4333 14.9553H14.6266ZM17.9105 20.2225C19.7418 21.0273 22.3105 22.228 22.9549 24.1461C23.1217 24.6405 23.2468 25.8433 22.9549 26.5982C21.9287 29.2584 15.5652 29.4001 12.0263 29.4001C10.0698 29.4001 7.69122 29.3694 5.58178 28.9803C3.12386 28.5253 0.146588 27.5397 1.02819 24.2859C1.42627 22.8177 3.19746 21.7445 4.81122 20.8533C4.84211 20.8361 4.87527 20.8177 4.91053 20.7981C5.41019 20.5205 6.33242 20.0081 7.19266 19.6625C7.28343 19.626 7.37842 19.5899 7.47557 19.553C8.21026 19.274 9.06802 18.9483 9.15394 18.0507C9.22153 17.3577 8.88001 16.9254 8.47296 16.41C8.37511 16.2862 8.27347 16.1575 8.17282 16.0193C6.9869 14.388 5.87042 12.1639 6.07138 9.15273C6.2701 6.19849 8.10851 3.90378 11.186 3.54954C15.4186 3.0625 18.3706 5.87977 17.9812 10.6951C17.9131 11.5349 17.5608 12.1985 17.1695 12.9356C17.0364 13.1863 16.8988 13.4455 16.7664 13.7231C16.3689 13.8469 15.9427 13.9413 15.5008 14.0002C15.1993 13.7621 14.8256 13.6287 14.4313 13.6287H13.238C12.2857 13.6287 11.1226 14.3116 11.1226 15.5998C11.1226 16.941 12.0092 18.0171 13.5579 17.9666L14.694 18.0002C14.8099 18.0002 14.9219 17.9877 15.0323 17.9666C14.9622 18.2607 14.9507 18.5676 15.0361 18.893C15.2053 19.5335 16.219 19.7762 17.0503 19.9751C17.3914 20.0568 17.7017 20.1311 17.9105 20.2225Z" fill="#069956"/>
</svg>
