<svg width="32" height="32" viewBox="0 0 32 32" fill="none" xmlns="http://www.w3.org/2000/svg">
<path fill-rule="evenodd" clip-rule="evenodd" d="M31.3213 2.4346L24.3213 0.0532676C24.1133 -0.0187324 23.8867 -0.0187324 23.6787 0.0532676L16.6787 2.4346C16.272 2.57194 16 2.95327 16 3.38127V8.7386C16 15.2773 23.2987 18.456 23.6093 18.588C23.7347 18.64 23.8667 18.6666 24 18.6666C24.1333 18.6666 24.2653 18.64 24.3907 18.5866C24.7013 18.456 32 15.2773 32 8.7386V3.38127C32 2.95327 31.728 2.57194 31.3213 2.4346ZM28.3813 7.4906L24.7147 12.1573C24.4907 12.4426 24.1587 12.6253 23.7973 12.66C23.7533 12.6653 23.7093 12.6666 23.6667 12.6666C23.3507 12.6666 23.0413 12.5546 22.8 12.3453L20.4667 10.3453C19.9067 9.8666 19.8413 9.02394 20.3227 8.46527C20.8013 7.9066 21.644 7.8426 22.2013 8.32127L23.4787 9.41594L26.2853 5.84394C26.74 5.26527 27.5773 5.1626 28.1573 5.61994C28.736 6.07327 28.8373 6.91194 28.3813 7.4906ZM0.656 16.0026C0.292 16.0093 0 16.3053 0 16.6693V28.9999C0 29.1839 0.149333 29.3333 0.333333 29.3333H3.496C3.79467 29.3333 4.056 29.1359 4.13733 28.8493L7.088 18.4519C7.27867 17.7799 6.91867 17.0733 6.26133 16.8346C5.05333 16.3946 3.2 15.9599 0.656 16.0026ZM24 25.0206C26 24.1769 28 23.3333 29.3334 23.3333C30.6667 23.3333 32 23.9999 32 25.3333C32 26.6666 21.3334 31.9999 17.3334 31.9999C14.592 31.9999 9.368 29.8146 6.33467 28.4346L9.01334 18.9946C9.06667 18.8066 9.096 18.6173 9.11467 18.4266C11.9033 18.6627 13.0548 19.331 14.5614 20.2054C14.816 20.3531 15.0808 20.5068 15.3653 20.6653C15.5273 20.6899 15.7021 20.715 15.8866 20.7414C17.9851 21.0421 21.3334 21.5218 21.3334 23.6666C21.3334 24.6253 20.7414 25.3333 18.6667 25.3333C16.592 25.3333 13 24.6666 13 24.6666C13 24.6666 16 26.7079 18.6667 26.7079C20 26.7079 22 25.8643 24 25.0206Z" fill="#069956"/>
</svg>
