<svg height="64" viewBox="0 0 64 64" width="64" xmlns="http://www.w3.org/2000/svg" xmlns:xlink="http://www.w3.org/1999/xlink"><mask id="a" fill="#fff"><path d="m0 0h52.4328v29.5253h-52.4328z" fill="#fff" fill-rule="evenodd"/></mask><g fill="none" fill-rule="evenodd" transform="translate(6 11)"><path d="m4.7896 17.2397-.164 14.22 24.082 10.775 19.024-8.512.076-14.253" stroke="#df5802"/><g fill="#df5802"><path d="m52.433 18.5773-11.997-8.981c-.32-.24-.674-.43-1.05-.565l-24.764-8.856c-1.267-.453-2.68-.007-3.458 1.09l-11.164 15.749 27.963 12.511 1.98-.886 8.725-14.464 9.125 6.478z" mask="url(#a)"/><path d="m18.6901 28.2244-6.157-2.755v9.529l6.157 2.754z"/><path d="m43.306 29.7893-9.176 4.121v-5.458l9.176-4.122z"/></g></g></svg>