<svg height="64" viewBox="0 0 64 64" width="64" xmlns="http://www.w3.org/2000/svg"><g fill="none" fill-rule="evenodd" stroke="#069956"><path d="m19.3506 37.957-.913.408"/><path d="m16.5416 39.2138-6.637 2.969" stroke-dasharray="2.077 2.077"/><g transform="translate(8 42.5156)"><path d="m.9565.0917-.913.408.913.409"/><path d="m2.6701 1.6752 19.706 8.817" stroke-dasharray="1.877 1.877"/><path d="m23.2332 10.8751.913.408.913-.408"/><path d="m26.7724 10.1084 19.706-8.817" stroke-dasharray="1.877 1.877"/><path d="m47.3355.9085.913-.408-.913-.409"/></g><path d="m53.4392 41.7589-6.637-2.969" stroke-dasharray="2.077 2.077"/><path d="m45.8541 38.3654-.913-.408"/><g transform="translate(8.0433 10)"><path d="m47.1922 22.4452-23.089-10.33-23.09 10.33c-.392.175-.392.731 0 .906l23.09 10.33 23.089-10.33c.392-.175.392-.731 0-.906z"/><path d="m30.3044 19.6016-6.175-2.763-6.175 2.763c-.104.047-.104.196 0 .242l6.175 2.763 6.175-2.763c.105-.046.105-.195 0-.242z"/><path d="m48.205 10.7831-24.102-10.783-24.103 10.783v12.115l24.103 10.784 24.102-10.784z" stroke-width="2"/><path d="m24.1027 12.115v-12.115"/><path d="m17.9548 19.844v3.902"/><path d="m24.1296 22.6166v3.902"/><path d="m30.3829 19.844v3.902"/></g></g></svg>