<svg height="64" viewBox="0 0 64 64" width="64" xmlns="http://www.w3.org/2000/svg"><g fill="none" fill-rule="evenodd" transform="translate(16.0136 8.9664)"><path d="m14.5423 46.8479v-17.549" stroke="#028fdf" stroke-linecap="round" stroke-width="2"/><path d="m14.65 0c8.091 0 14.65 6.559 14.65 14.65 0 2.6306713-.6933722 5.0993901-1.9073331 7.2333731-.2114592-.0176985-.4256887-.0264731-.6419669-.0264731-3.9702757 0-7.249233 2.9557362-7.756801 6.7871375-1.3719461.4266807-2.8311456.6559625-4.343899.6559625-7.23496519 0-13.24495531-5.2445245-14.4356927-12.139296 2.06757951 2.4007851 5.12942188 3.920896 8.5460927 3.920896 6.2261424 0 11.274-5.0478576 11.274-11.274 0-4.20084-2.2979537-7.86528534-5.7053198-9.80479464.1063341-.00164907.2134919-.00280536.3209198-.00280536zm12.1377676 22.8569985c-1.6352603 2.4125957-3.9699059 4.3117009-6.7128626 5.4057704.6518458-3.0888992 3.3928062-5.4058689 6.675795-5.4058689zm-14.435868-22.67809864c3.9028777 1.45653216 6.6825004 5.21822148 6.6825004 9.62870014 0 5.6738576-4.6001424 10.274-10.274 10.274-3.69842203 0-6.94063365-1.9545525-8.74996224-4.8869849-.00710835-.1808093-.01043776-.3623234-.01043776-.5446151 0-7.25037662 5.26689138-13.27055389 12.1833787-14.44323634z" fill="#028fdf"/><path d="m34.0757 29.6819c0-4.046-3.28-7.325-7.325-7.325-4.046 0-7.325 3.279-7.325 7.325s3.279 7.325 7.325 7.325c4.045 0 7.325-3.279 7.325-7.325" fill="#028fdf"/><path d="m14.5423 39.9261h.592c6.416 0 11.616-3.498 11.616-7.812" stroke="#028fdf"/></g></svg>