<svg height="64" viewBox="0 0 64 64" width="64" xmlns="http://www.w3.org/2000/svg"><g fill="none" fill-rule="evenodd" transform="translate(9 12)"><g stroke="#bb43ff"><path d="m44.2096 10.3153759-20.864-9.35199999c-2.864-1.283-6.141-1.285-9.006-.003l-12.59 5.633c-.607.272-.607 1.132-.001 1.404l21.923 9.82599999c2.864 1.284 6.141 1.285 9.006.003l11.531-5.159c1.016-.455 1.017-1.897.001-2.352z"/><path d="m36.9473 35.077976 8.51 3.814"/><path d="m14.157.96077591-10.246 4.584c-2.38 1.065-3.911 3.428-3.911 6.03499999v14.8l3.372 1.57 3.261-1.459c.956-.428 2.048-.427 3.004.001l4.012 1.798c1.354.607 2.226 1.953 2.226 3.437v1.827l12.116 5.372 18.662-8.349v-14.803c0-2.605-1.53-4.967-3.907-6.03299999l-19.583-8.777c-2.864-1.284-6.141-1.285-9.006-.003z" stroke-width="2"/><path d="m10.8495 29.1179759c-.418-1.771-1.776-2.966-3.033-2.669-1.256.296-1.936 1.972-1.518 3.743s1.776 2.966 3.032 2.67c1.257-.297 1.937-1.973 1.519-3.744z" stroke-width="2"/><path d="m15.6327 31.4671759c-.418-1.771-1.776-2.966-3.033-2.669-1.256.296-1.936 1.972-1.518 3.743s1.776 2.966 3.032 2.67c1.257-.297 1.937-1.973 1.519-3.744z" stroke-width="2"/></g><path d="m24.7299 25.1308759-5.66-2.532v11.291l5.66 2.532z" fill="#bb43ff"/><path d="m12.1732 16.6164759-6.784-3.035v4.769l6.784 3.035z" fill="#bb43ff"/><path d="m42.7262 23.6253759-10.111 4.541v-6.015l10.111-4.541z" fill="#bb43ff"/><path d="m42.4559 37.547076v3.193" stroke="#bb43ff"/></g></svg>