<?xml version="1.0" encoding="utf-8"?>
<svg width="223px" height="228.03076px" viewBox="0 0 223 228.03076" version="1.1" xmlns:xlink="http://www.w3.org/1999/xlink" xmlns="http://www.w3.org/2000/svg">
  <g id="Group-49">
    <g id="Group-48" transform="matrix(0.9659258 -0.25881904 0.25881904 0.9659258 0 46.73633)">
      <path d="M178.735 107.674L175.143 99.5923C173.52 95.9392 173.52 91.75 175.143 88.0984L178.735 80.0149C183.15 70.0816 179.383 58.4862 169.972 53.044L162.316 48.6178C158.855 46.617 156.392 43.2278 155.559 39.3194L153.714 30.6687C151.447 20.037 141.573 12.8706 130.772 13.9994L121.976 14.9193C118.005 15.337 114.017 14.0403 111.044 11.3665L104.467 5.45308C96.3835 -1.81769 84.1912 -1.81769 76.1077 5.45308L69.5312 11.3665C66.561 14.0403 62.5764 15.337 58.5989 14.9193L49.8042 13.9994C38.975 12.8706 29.1277 20.037 26.8603 30.6687L25.0162 39.318C24.1823 43.2278 21.7201 46.617 18.259 48.6178L10.603 53.0454C1.19175 58.4876 -2.57556 70.083 1.84081 80.0163L5.43316 88.0984C7.05438 91.75 7.05438 95.9392 5.43316 99.5923L1.84081 107.674C-2.57556 117.608 1.19175 129.203 10.6044 134.645L18.259 139.071C21.7201 141.072 24.1823 144.461 25.0162 148.373L26.8603 157.022C29.1277 167.654 38.9947 174.82 49.8042 173.69L58.5989 172.771C62.5835 172.356 66.561 173.652 69.5312 176.324L76.1077 182.236C80.1502 185.872 85.2184 187.69 90.2867 187.69C95.3549 187.688 100.426 185.871 104.467 182.238L111.044 176.323C114.018 173.65 118.017 172.356 121.976 172.771L130.772 173.69C141.579 174.814 151.448 167.655 153.714 157.022L155.559 148.373C156.392 144.461 158.855 141.072 162.314 139.071L169.973 134.645C179.383 129.204 183.15 117.609 178.735 107.674ZM166.441 128.539L158.784 132.965C153.597 135.962 149.908 141.041 148.657 146.901L146.815 155.55C145.304 162.646 138.728 167.431 131.504 166.673L122.71 165.755C116.74 165.129 110.777 167.074 106.327 171.077L99.7487 176.992C94.3559 181.841 86.2188 181.843 80.8246 176.99L74.2495 171.078C70.3439 167.565 65.27 165.64 60.0592 165.64C59.3312 165.64 58.5975 165.677 57.8666 165.755L49.0705 166.673C41.8477 167.432 35.2726 162.646 33.7614 155.55L31.9158 146.901C30.6657 141.041 26.976 135.962 21.7892 132.965L14.1361 128.539C7.85299 124.907 5.34004 117.169 8.28616 110.54L11.8799 102.458C14.311 96.9848 14.311 90.7059 11.8785 85.2327L8.28616 77.1506C5.34004 70.5218 7.85299 62.784 14.1347 59.1522L21.7907 54.7259C26.976 51.7276 30.6657 46.6466 31.9158 40.7897L33.7614 32.1404C35.274 25.0431 41.8633 20.2656 49.0705 21.0162L57.8666 21.9347C63.8294 22.5598 69.7978 20.6169 74.2495 16.6125L80.8246 10.6991C86.2188 5.84675 94.3559 5.84675 99.7487 10.6991L106.327 16.6125C110.78 20.6169 116.751 22.5584 122.71 21.9347L131.504 21.0162C138.716 20.2641 145.304 25.0445 146.815 32.1404L148.657 40.7897C149.908 46.6466 153.597 51.7276 158.784 54.7259L166.44 59.1522C172.72 62.7826 175.235 70.5218 172.29 77.1506L168.698 85.2327C166.264 90.7059 166.262 96.9848 168.698 102.459L172.29 110.54C175.235 117.169 172.72 124.907 166.441 128.539ZM89.3358 42.8638L93.144 42.9809L93.7296 45.1087L95.6951 45.1693L92.9169 34.9609L90.0653 34.8734L86.6648 44.8914L88.6289 44.9521L89.3358 42.8638ZM79.8226 42.5406L80.3827 45.9241L78.4977 46.2359L76.8426 36.2546L81.0586 35.5562C81.1545 35.5393 81.2872 35.5223 81.4522 35.5026C81.6159 35.4814 81.7655 35.4729 81.8981 35.4744C82.5105 35.4687 83.0311 35.583 83.4629 35.8201C83.8932 36.0585 84.2361 36.3887 84.4929 36.8134C84.7497 37.2395 84.9233 37.7319 85.015 38.2907C85.1547 39.1274 85.0644 39.8766 84.7469 40.5398C84.5508 40.9476 84.2389 41.2749 83.8368 41.5402L86.2609 44.9491L84.1246 45.3047L81.9263 42.1935L79.8226 42.5406ZM102.665 46.7969L99.967 39.2101L98.3881 45.7669L96.503 45.314L98.8721 35.4766L100.756 35.9295L103.454 43.5178L105.032 36.9596L106.917 37.4139L104.55 47.2512L102.665 46.7969ZM91.417 36.7063L92.6488 41.1805L89.9327 41.0973L91.417 36.7063ZM81.5891 37.2917C81.4706 37.3016 81.3634 37.3143 81.266 37.3312L79.0197 37.7023L79.5319 40.7811L81.7768 40.4086C81.8741 40.3916 81.9799 40.3705 82.0928 40.3422C82.2071 40.314 82.3101 40.2773 82.4032 40.2336C82.6459 40.1221 82.8237 39.9726 82.9352 39.7863C83.0452 39.5987 83.1116 39.4011 83.1299 39.1909C83.1497 38.9806 83.1454 38.7859 83.1158 38.6053C83.0862 38.4247 83.0283 38.2399 82.9408 38.0466C82.8548 37.8547 82.7292 37.6868 82.5641 37.5471C82.3976 37.406 82.1803 37.3213 81.9165 37.2945C81.8149 37.2832 81.7048 37.2818 81.5891 37.2917ZM71.0646 48.8836L70.915 46.6853L74.4764 45.3336L75.8323 47.0747L77.6736 46.3763L71.1944 38.012L68.5277 39.0251L69.2247 49.582L71.0646 48.8836ZM109.826 49.6111L113.317 42.0454L116.212 43.3802L116.961 41.7604L109.432 38.2866L108.684 39.9078L111.581 41.2426L108.09 48.8111L109.826 49.6111ZM73.3292 43.8605L70.7895 44.8242L70.4776 40.2004L73.3292 43.8605ZM63.4144 52.8844C62.7132 52.9338 62.0599 52.7956 61.4475 52.4724C60.8351 52.1479 60.3131 51.6428 59.8841 50.9556L56.5345 45.608L58.1712 44.5667L61.5195 49.9143C61.6973 50.1965 61.9047 50.4223 62.1431 50.593C62.383 50.7637 62.6398 50.8794 62.9121 50.9401C63.1844 51.0022 63.4624 51.0064 63.7418 50.9542C64.0226 50.9048 64.2906 50.799 64.5432 50.6396C64.8056 50.4759 65.0201 50.277 65.1866 50.0456C65.3559 49.8142 65.4702 49.563 65.5323 49.2907C65.593 49.0198 65.5986 48.7404 65.5492 48.4511C65.497 48.1633 65.3856 47.8797 65.212 47.6017L61.8623 42.2541L63.5047 41.2255L66.8614 46.5844C67.2918 47.2702 67.5204 47.9601 67.5444 48.6529C67.5683 49.3443 67.4061 49.9948 67.0576 50.6029C66.7091 51.211 66.1884 51.7317 65.4984 52.1634C64.8085 52.5966 64.1129 52.8365 63.4144 52.8844ZM119.779 53.7044L118.759 55.169L113.337 51.3988L119.113 43.091L124.536 46.8625L123.517 48.3271L119.663 45.6477L118.429 47.4241L121.589 49.6238L120.569 51.0884L117.409 48.8901L115.924 51.0235L119.779 53.7044ZM124.447 60.6613L125.7 59.3929L122.36 56.0954L124.186 54.2456L126.926 56.9491L128.18 55.6792L125.439 52.9743L126.958 51.4335L130.298 54.7296L131.553 53.4597L126.851 48.8204L119.746 56.0235L124.447 60.6613ZM50.737 57.7388C51.3353 58.3526 51.9547 58.8055 52.5953 59.0976C53.2359 59.3896 53.8694 59.5406 54.4973 59.5505C55.1252 59.5604 55.7249 59.4461 56.2949 59.2076C56.8678 58.9677 57.3799 58.6263 57.8357 58.1818C58.5355 57.5017 58.9941 56.761 59.2114 55.9567C59.4287 55.1525 59.416 54.3454 59.1761 53.5355C58.9362 52.7227 58.4763 51.9693 57.8018 51.2751C57.7835 51.2581 57.7214 51.1961 57.6085 51.0888C57.4985 50.9802 57.418 50.9096 57.3687 50.8715L54.7626 53.4099L55.7912 54.4681L56.9383 53.3506C57.236 53.805 57.418 54.2396 57.4815 54.6544C57.5464 55.0692 57.5069 55.4572 57.3644 55.8184C57.2233 56.1796 56.9919 56.5084 56.673 56.8047C56.2074 57.2449 55.7206 57.5116 55.2169 57.6047C54.7104 57.6979 54.2038 57.633 53.6916 57.4128C53.178 57.1927 52.6771 56.8301 52.1861 56.3278C51.6979 55.8241 51.3466 55.3091 51.1321 54.7842C50.9191 54.2607 50.8669 53.7471 50.9713 53.2448C51.0771 52.7425 51.3635 52.2712 51.8306 51.831C52.2962 51.3837 52.8027 51.141 53.3459 51.1058C53.8892 51.0705 54.4324 51.1989 54.9756 51.4952L56.1792 49.9304C55.2268 49.3152 54.273 49.05 53.3177 49.1374C52.3611 49.2249 51.4185 49.7216 50.4859 50.6303C49.8538 51.244 49.422 51.9509 49.192 52.751C48.9606 53.5524 48.9649 54.3821 49.2061 55.2428C49.446 56.1049 49.9568 56.9373 50.737 57.7388ZM55.7816 109.748C57.1474 108.808 58.2339 107.616 59.0438 106.177C59.8494 104.735 60.2544 103.047 60.2544 101.116C60.2544 99.2996 59.9172 97.7998 59.2427 96.6188C58.5683 95.435 57.709 94.4825 56.6691 93.7559C55.6278 93.0335 54.5399 92.4677 53.4069 92.0599C52.2753 91.6493 51.2425 91.3205 50.3098 91.0722L44.062 89.3734C43.2958 89.1716 42.5466 88.9233 41.8143 88.6227C41.0806 88.3222 40.4739 87.9285 39.9913 87.4361C39.5073 86.9451 39.2661 86.3087 39.2661 85.5242C39.2661 84.6748 39.5624 83.9425 40.1536 83.3245C40.7448 82.7093 41.5109 82.2395 42.4521 81.9135C43.3932 81.5904 44.3964 81.4423 45.4631 81.4775C46.5453 81.51 47.581 81.7343 48.5743 82.1506C49.5648 82.5682 50.4184 83.1764 51.1352 83.9736C51.8506 84.775 52.3416 85.7584 52.6083 86.9239L59.9553 85.6738C59.3711 83.4261 58.4215 81.5213 57.1051 79.965C55.79 78.4087 54.1575 77.2206 52.209 76.4051C50.259 75.5881 48.0452 75.1634 45.5619 75.1309C43.0983 75.114 40.8492 75.4978 38.8174 76.2781C36.7841 77.0626 35.1601 78.2549 33.9438 79.8535C32.7276 81.4521 32.1194 83.4585 32.1194 85.8741C32.1194 87.5899 32.4073 89.0108 32.983 90.1353C33.5572 91.2584 34.2782 92.1629 35.1432 92.8458C36.0095 93.5287 36.9041 94.0522 37.8297 94.419C38.7539 94.7859 39.5666 95.0695 40.265 95.2684L49.61 98.0184C50.3098 98.2357 50.8883 98.477 51.3469 98.7423C51.8054 99.009 52.1596 99.2926 52.4079 99.5931C52.6577 99.8908 52.8369 100.211 52.9455 100.553C53.0527 100.895 53.1078 101.251 53.1078 101.616C53.1078 102.614 52.7705 103.458 52.0975 104.138C51.4217 104.822 50.5595 105.337 49.5112 105.689C48.4614 106.038 47.3778 106.213 46.2617 106.213C44.2638 106.213 42.4803 105.655 40.9155 104.54C39.3493 103.424 38.3165 101.832 37.817 99.7667L30.7198 100.816C31.0866 103.248 31.9572 105.343 33.3315 107.1C34.7058 108.856 36.4639 110.206 38.6029 111.146C40.7448 112.089 43.1477 112.559 45.813 112.559C47.6445 112.559 49.4223 112.324 51.1465 111.859C52.8707 111.395 54.4158 110.69 55.7816 109.748ZM149.855 111.809L126.368 111.809L126.368 75.8294L149.855 75.8294L149.855 82.1774L133.162 82.1774L133.162 89.8729L146.857 89.8729L146.857 96.218L133.162 96.218L133.162 105.464L149.855 105.464L149.855 111.809ZM63.2531 111.81L74.2461 75.8299L84.3896 75.8299L95.384 111.81L88.3869 111.81L86.0729 104.315L72.5261 104.315L70.2488 111.81L63.2531 111.81ZM121.87 82.6266L121.87 75.8299L99.8829 75.8299L99.8829 111.81L106.677 111.81L106.677 97.2176L118.872 97.2176L118.872 90.4223L106.677 90.4223L106.677 82.6266L121.87 82.6266ZM79.2466 82.1977L74.4549 97.9668L84.1145 97.9668L79.2466 82.1977ZM124.039 134.471L125.852 136.333L129.216 133.058L130.462 134.337L125.728 138.945L118.671 131.695L123.403 127.087L124.647 128.367L121.285 131.64L122.795 133.191L125.553 130.505L126.799 131.784L124.039 134.471ZM55.4904 135.204L56.5063 134.134L59.1476 136.636C59.1123 136.688 59.0432 136.77 58.9416 136.886C58.8372 137 58.7779 137.066 58.7624 137.085C58.095 137.789 57.3613 138.277 56.5599 138.551C55.7598 138.823 54.9514 138.867 54.14 138.682C53.3287 138.497 52.5696 138.068 51.8613 137.398C51.3999 136.96 51.0373 136.461 50.7749 135.899C50.5138 135.339 50.3741 134.745 50.3614 134.116C50.3445 133.489 50.4701 132.849 50.7354 132.197C51.002 131.546 51.4296 130.91 52.0179 130.286C52.7883 129.474 53.5996 128.93 54.4505 128.657C55.3013 128.383 56.1309 128.344 56.9394 128.542C57.7493 128.741 58.4732 129.144 59.1123 129.749C60.0577 130.643 60.5925 131.569 60.7166 132.519C60.8422 133.47 60.6164 134.433 60.0394 135.41L58.428 134.271C58.7017 133.717 58.809 133.168 58.7525 132.627C58.6933 132.084 58.4308 131.589 57.9666 131.141C57.5066 130.694 57.0241 130.426 56.519 130.341C56.011 130.254 55.5016 130.329 54.9866 130.563C54.4716 130.799 53.9707 131.168 53.4882 131.679C53.0056 132.19 52.6613 132.703 52.4638 133.226C52.2634 133.746 52.2197 134.256 52.3326 134.756C52.4455 135.257 52.7319 135.733 53.1905 136.18C53.5009 136.488 53.8381 136.702 54.205 136.831C54.5704 136.959 54.9612 136.983 55.3718 136.903C55.7838 136.821 56.2128 136.623 56.653 136.306L55.4904 135.204ZM118.77 141.875L117.296 139.735L120.467 137.551L119.454 136.082L116.284 138.265L115.056 136.483L118.921 133.82L117.909 132.351L112.47 136.097L118.21 144.431L123.649 140.683L122.636 139.213L118.77 141.875ZM69.9767 137.79L68.3217 136.778L65.0327 142.164C64.8605 142.443 64.6588 142.67 64.4231 142.845C64.1875 143.019 63.9349 143.139 63.6626 143.205C63.3945 143.27 63.118 143.28 62.8344 143.233C62.5536 143.187 62.2799 143.085 62.016 142.924C61.7606 142.766 61.5461 142.575 61.3768 142.346C61.2047 142.119 61.0862 141.869 61.0184 141.598C60.9521 141.326 60.9408 141.045 60.9874 140.754C61.0325 140.465 61.1412 140.176 61.3147 139.892L64.6037 134.509L62.9416 133.509L59.6526 138.895C59.2307 139.586 59.0106 140.279 58.9937 140.97C58.9767 141.663 59.1461 142.311 59.5016 142.916C59.8572 143.52 60.3821 144.033 61.0791 144.458C61.7747 144.883 62.4732 145.116 63.173 145.157C63.8714 145.198 64.5261 145.051 65.1343 144.719C65.7424 144.39 66.2574 143.878 66.6807 143.185L69.9767 137.79ZM112.155 136.375L112.9 137.996L110 139.328L113.481 146.901L111.744 147.698L108.265 140.127L105.365 141.458L104.622 139.838L112.155 136.375ZM68.3451 148.021L66.5023 147.338L72.9054 138.919L75.5806 139.906L74.9767 150.469L73.1325 149.788L73.2511 147.584L69.6771 146.264L68.3451 148.021ZM102.407 140.405L103.989 146.962L98.132 141.437L96.2469 141.892L98.6188 151.725L100.504 151.272L98.9221 144.716L104.782 150.241L106.666 149.785L104.294 139.951L102.407 140.405ZM85.3715 142.705C85.0399 142.344 84.5814 142.07 84.0001 141.881C83.8731 141.838 83.7291 141.799 83.5655 141.766C83.4032 141.734 83.2734 141.709 83.176 141.692L78.9572 141.021L77.3656 151.014L79.2535 151.315L79.7911 147.927L81.8991 148.264L82.9997 151.91L85.1359 152.251L83.9168 148.248C84.3824 148.126 84.7817 147.913 85.0964 147.588C85.6072 147.06 85.9303 146.378 86.0643 145.539C86.1518 144.981 86.1433 144.457 86.0361 143.973C85.9275 143.489 85.7073 143.066 85.3715 142.705ZM70.803 144.779L73.3527 145.72L73.6052 141.086L70.803 144.779ZM87.1217 152.407L89.8675 142.188L92.7177 142.09L96.1534 152.098L94.1865 152.164L93.4641 150.081L89.6558 150.21L89.0886 152.339L87.1217 152.407ZM84.1623 145.237C84.1341 145.418 84.0762 145.604 83.9916 145.796C83.9055 145.99 83.7799 146.157 83.6163 146.3C83.4512 146.441 83.2367 146.527 82.9715 146.557C82.8699 146.568 82.7598 146.568 82.6427 146.56C82.5256 146.551 82.4198 146.54 82.321 146.523L80.0733 146.164L80.5629 143.086L82.812 143.443C82.9094 143.458 83.0152 143.479 83.1295 143.508C83.2438 143.536 83.3468 143.57 83.4385 143.615C83.6826 143.723 83.8604 143.872 83.9732 144.058C84.0861 144.244 84.1524 144.443 84.175 144.652C84.1948 144.861 84.1919 145.055 84.1623 145.237ZM91.3349 143.93L90.1384 148.408L92.8531 148.316L91.3349 143.93Z" id="Combined-Shape" fill="#028FDF" fill-rule="evenodd" stroke="none" />
    </g>
  </g>
</svg>