<?xml version="1.0" encoding="UTF-8"?>
<svg width="113px" height="48px" viewBox="0 0 113 48" version="1.1" xmlns="http://www.w3.org/2000/svg" xmlns:xlink="http://www.w3.org/1999/xlink">
    <title>dmca</title>
    <g id="Symbols" stroke="none" stroke-width="1" fill="none" fill-rule="evenodd">
        <g id="Item/Mobile/Footer" transform="translate(-175.000000, -1420.000000)">
            <g id="bottom" transform="translate(8.000000, 1386.000000)">
                <g id="dmca" transform="translate(167.000000, 34.000000)">
                    <rect id="Rectangle" fill="#FFFFFF" x="0" y="0" width="113" height="48" rx="24"></rect>
                    <g id="Group-3" transform="translate(45.950000, 14.000000)" fill="#474150" fill-rule="nonzero">
                        <g id="Group-2" transform="translate(0.030000, 0.000000)">
                            <g id="DM" transform="translate(0.000000, 1.920000)">
                                <path d="M0,10.08 L0,0 L3.213,0 C3.297,0 3.46383333,0.00233333333 3.7135,0.007 C3.96316667,0.0116666667 4.20466667,0.028 4.438,0.056 C5.236,0.158666667 5.9115,0.442166667 6.4645,0.9065 C7.0175,1.37083333 7.43633333,1.96233333 7.721,2.681 C8.00566667,3.39966667 8.148,4.186 8.148,5.04 C8.148,5.894 8.00566667,6.68033333 7.721,7.399 C7.43633333,8.11766667 7.0175,8.70916667 6.4645,9.1735 C5.9115,9.63783333 5.236,9.92133333 4.438,10.024 C4.20933333,10.052 3.969,10.0683333 3.717,10.073 C3.465,10.0776667 3.297,10.08 3.213,10.08 L0,10.08 Z M1.715,8.491 L3.213,8.491 C3.353,8.491 3.5315,8.48633333 3.7485,8.477 C3.9655,8.46766667 4.158,8.44666667 4.326,8.414 C4.802,8.32533333 5.18933333,8.113 5.488,7.777 C5.78666667,7.441 6.00716667,7.03266667 6.1495,6.552 C6.29183333,6.07133333 6.363,5.56733333 6.363,5.04 C6.363,4.494 6.29066667,3.98066667 6.146,3.5 C6.00133333,3.01933333 5.7785,2.61566667 5.4775,2.289 C5.1765,1.96233333 4.79266667,1.75466667 4.326,1.666 C4.158,1.62866667 3.9655,1.6065 3.7485,1.5995 C3.5315,1.5925 3.353,1.589 3.213,1.589 L1.715,1.589 L1.715,8.491 Z" id="Shape"></path>
                                <polygon id="Path" points="10.607 10.08 10.607 0 12.126 0 15.612 7.14 19.098 0 20.617 0 20.617 10.08 19.042 10.08 19.042 3.619 15.948 10.08 15.276 10.08 12.189 3.619 12.189 10.08"></polygon>
                            </g>
                            <g id="A" transform="translate(38.300000, 1.920000)">
                                <path d="M0,10.08 L3.178,0 L5.649,0 L8.827,10.08 L7.091,10.08 L4.207,1.036 L4.585,1.036 L1.736,10.08 L0,10.08 Z M1.771,7.896 L1.771,6.321 L7.063,6.321 L7.063,7.896 L1.771,7.896 Z" id="Shape"></path>
                            </g>
                            <g id="Group" transform="translate(23.020000, 0.000000)">
                                <path d="M7,0 C10.85,0 14,3.15 14,7 C14,10.85 10.85,14 7,14 C3.15,14 0,10.85 0,7 C0,3.15 3.15,0 7,0 Z M7,1.4 C3.92,1.4 1.4,3.92 1.4,7 C1.4,10.08 3.92,12.6 7,12.6 C10.08,12.6 12.6,10.08 12.6,7 C12.6,3.92 10.08,1.4 7,1.4 Z M7.10294118,3.5 C8.03970588,3.5 8.97647059,3.85 9.625,4.55 L8.61617647,5.53 C8.25588235,5.11 7.67941176,4.9 7.10294118,4.9 C5.87794118,4.9 4.94117647,5.81 4.94117647,7 C4.94117647,8.19 5.87794118,9.1 7.10294118,9.1 C7.67941176,9.1 8.18382353,8.89 8.61617647,8.47 L9.625,9.45 C8.97647059,10.15 8.03970588,10.5 7.10294118,10.5 C5.08529412,10.5 3.5,8.96 3.5,7 C3.5,5.04 5.08529412,3.5 7.10294118,3.5 Z" id="Combined-Shape"></path>
                            </g>
                        </g>
                        <g id="PROTECTED" transform="translate(0.000000, 16.325000)">
                            <path d="M0,3.675 L0,0.075 L1.52,0.075 C1.555,0.075 1.60208333,0.07625 1.66125,0.07875 C1.72041667,0.08125 1.77333333,0.0866666667 1.82,0.095 C2.035,0.128333333 2.21125,0.199166667 2.34875,0.3075 C2.48625,0.415833333 2.5875,0.552083333 2.6525,0.71625 C2.7175,0.880416667 2.75,1.06333333 2.75,1.265 C2.75,1.46666667 2.71708333,1.64958333 2.65125,1.81375 C2.58541667,1.97791667 2.48375,2.11416667 2.34625,2.2225 C2.20875,2.33083333 2.03333333,2.40166667 1.82,2.435 C1.77333333,2.44166667 1.72,2.44666667 1.66,2.45 C1.6,2.45333333 1.55333333,2.455 1.52,2.455 L0.68,2.455 L0.68,3.675 L0,3.675 Z M0.68,1.82 L1.49,1.82 C1.525,1.82 1.56333333,1.81833333 1.605,1.815 C1.64666667,1.81166667 1.685,1.805 1.72,1.795 C1.81166667,1.77 1.8825,1.72791667 1.9325,1.66875 C1.9825,1.60958333 2.01708333,1.54375 2.03625,1.47125 C2.05541667,1.39875 2.065,1.33 2.065,1.265 C2.065,1.2 2.05541667,1.13125 2.03625,1.05875 C2.01708333,0.98625 1.9825,0.920416667 1.9325,0.86125 C1.8825,0.802083333 1.81166667,0.76 1.72,0.735 C1.685,0.725 1.64666667,0.718333333 1.605,0.715 C1.56333333,0.711666667 1.525,0.71 1.49,0.71 L0.68,0.71 L0.68,1.82 Z" id="Shape"></path>
                            <path d="M5.57,3.675 L5.57,0.075 L7.09,0.075 C7.125,0.075 7.17208333,0.07625 7.23125,0.07875 C7.29041667,0.08125 7.34333333,0.0866666667 7.39,0.095 C7.605,0.128333333 7.78125,0.199166667 7.91875,0.3075 C8.05625,0.415833333 8.1575,0.552083333 8.2225,0.71625 C8.2875,0.880416667 8.32,1.06333333 8.32,1.265 C8.32,1.56666667 8.245,1.82458333 8.095,2.03875 C7.945,2.25291667 7.71,2.385 7.39,2.435 L7.09,2.455 L6.25,2.455 L6.25,3.675 L5.57,3.675 Z M7.6,3.675 L6.89,2.21 L7.59,2.075 L8.37,3.675 L7.6,3.675 Z M6.25,1.82 L7.06,1.82 C7.095,1.82 7.13333333,1.81833333 7.175,1.815 C7.21666667,1.81166667 7.255,1.805 7.29,1.795 C7.38166667,1.77 7.4525,1.72791667 7.5025,1.66875 C7.5525,1.60958333 7.58708333,1.54375 7.60625,1.47125 C7.62541667,1.39875 7.635,1.33 7.635,1.265 C7.635,1.2 7.62541667,1.13125 7.60625,1.05875 C7.58708333,0.98625 7.5525,0.920416667 7.5025,0.86125 C7.4525,0.802083333 7.38166667,0.76 7.29,0.735 C7.255,0.725 7.21666667,0.718333333 7.175,0.715 C7.13333333,0.711666667 7.095,0.71 7.06,0.71 L6.25,0.71 L6.25,1.82 Z" id="Shape"></path>
                            <path d="M12.785,3.75 C12.425,3.75 12.1145833,3.67166667 11.85375,3.515 C11.5929167,3.35833333 11.3920833,3.13916667 11.25125,2.8575 C11.1104167,2.57583333 11.04,2.24833333 11.04,1.875 C11.04,1.50166667 11.1104167,1.17416667 11.25125,0.8925 C11.3920833,0.610833333 11.5929167,0.391666667 11.85375,0.235 C12.1145833,0.0783333333 12.425,0 12.785,0 C13.145,0 13.4554167,0.0783333333 13.71625,0.235 C13.9770833,0.391666667 14.1779167,0.610833333 14.31875,0.8925 C14.4595833,1.17416667 14.53,1.50166667 14.53,1.875 C14.53,2.24833333 14.4595833,2.57583333 14.31875,2.8575 C14.1779167,3.13916667 13.9770833,3.35833333 13.71625,3.515 C13.4554167,3.67166667 13.145,3.75 12.785,3.75 Z M12.785,3.11 C13.0133333,3.11333333 13.2033333,3.06416667 13.355,2.9625 C13.5066667,2.86083333 13.6204167,2.71666667 13.69625,2.53 C13.7720833,2.34333333 13.81,2.125 13.81,1.875 C13.81,1.625 13.7720833,1.40833333 13.69625,1.225 C13.6204167,1.04166667 13.5066667,0.899166667 13.355,0.7975 C13.2033333,0.695833333 13.0133333,0.643333333 12.785,0.64 C12.5566667,0.636666667 12.3666667,0.685833333 12.215,0.7875 C12.0633333,0.889166667 11.9495833,1.03333333 11.87375,1.22 C11.7979167,1.40666667 11.76,1.625 11.76,1.875 C11.76,2.125 11.7979167,2.34166667 11.87375,2.525 C11.9495833,2.70833333 12.0633333,2.85083333 12.215,2.9525 C12.3666667,3.05416667 12.5566667,3.10666667 12.785,3.11 Z" id="Shape"></path>
                            <polygon id="Path" points="18.085 3.675 18.085 0.71 16.95 0.71 16.95 0.075 19.9 0.075 19.9 0.71 18.765 0.71 18.765 3.675"></polygon>
                            <polygon id="Path" points="22.62 3.675 22.62 0.075 24.97 0.075 24.97 0.71 23.3 0.71 23.3 1.48 24.67 1.48 24.67 2.115 23.3 2.115 23.3 3.04 24.97 3.04 24.97 3.675"></polygon>
                            <path d="M29.31,3.75 C28.95,3.75 28.6395833,3.67166667 28.37875,3.515 C28.1179167,3.35833333 27.9170833,3.13916667 27.77625,2.8575 C27.6354167,2.57583333 27.565,2.24833333 27.565,1.875 C27.565,1.50166667 27.6354167,1.17416667 27.77625,0.8925 C27.9170833,0.610833333 28.1179167,0.391666667 28.37875,0.235 C28.6395833,0.0783333333 28.95,0 29.31,0 C29.7233333,0 30.0704167,0.1025 30.35125,0.3075 C30.6320833,0.5125 30.83,0.79 30.945,1.14 L30.26,1.33 C30.1933333,1.11166667 30.0808333,0.942083333 29.9225,0.82125 C29.7641667,0.700416667 29.56,0.64 29.31,0.64 C29.0816667,0.64 28.89125,0.690833333 28.73875,0.7925 C28.58625,0.894166667 28.4716667,1.0375 28.395,1.2225 C28.3183333,1.4075 28.28,1.625 28.28,1.875 C28.28,2.125 28.3183333,2.3425 28.395,2.5275 C28.4716667,2.7125 28.58625,2.85583333 28.73875,2.9575 C28.89125,3.05916667 29.0816667,3.11 29.31,3.11 C29.56,3.11 29.7641667,3.04916667 29.9225,2.9275 C30.0808333,2.80583333 30.1933333,2.63666667 30.26,2.42 L30.945,2.61 C30.83,2.96 30.6320833,3.2375 30.35125,3.4425 C30.0704167,3.6475 29.7233333,3.75 29.31,3.75 Z" id="Path"></path>
                            <polygon id="Path" points="34.65 3.675 34.65 0.71 33.515 0.71 33.515 0.075 36.465 0.075 36.465 0.71 35.33 0.71 35.33 3.675"></polygon>
                            <polygon id="Path" points="39.185 3.675 39.185 0.075 41.535 0.075 41.535 0.71 39.865 0.71 39.865 1.48 41.235 1.48 41.235 2.115 39.865 2.115 39.865 3.04 41.535 3.04 41.535 3.675"></polygon>
                            <path d="M44.455,3.675 L44.455,0.075 L45.62,0.075 C45.6483333,0.075 45.7066667,0.0758333333 45.795,0.0775 C45.8833333,0.0791666667 45.9683333,0.085 46.05,0.095 C46.34,0.13 46.5858333,0.230833333 46.7875,0.3975 C46.9891667,0.564166667 47.1425,0.775833333 47.2475,1.0325 C47.3525,1.28916667 47.405,1.57 47.405,1.875 C47.405,2.18 47.3525,2.46083333 47.2475,2.7175 C47.1425,2.97416667 46.9891667,3.18583333 46.7875,3.3525 C46.5858333,3.51916667 46.34,3.62 46.05,3.655 C45.9683333,3.665 45.8833333,3.67083333 45.795,3.6725 C45.7066667,3.67416667 45.6483333,3.675 45.62,3.675 L44.455,3.675 Z M45.145,3.035 L45.62,3.035 C45.665,3.035 45.7258333,3.03375 45.8025,3.03125 C45.8791667,3.02875 45.9483333,3.02166667 46.01,3.01 C46.1666667,2.97833333 46.2945833,2.905 46.39375,2.79 C46.4929167,2.675 46.56625,2.53666667 46.61375,2.375 C46.66125,2.21333333 46.685,2.04666667 46.685,1.875 C46.685,1.695 46.6604167,1.52416667 46.61125,1.3625 C46.5620833,1.20083333 46.4875,1.06416667 46.3875,0.9525 C46.2875,0.840833333 46.1616667,0.77 46.01,0.74 C45.9483333,0.726666667 45.8791667,0.719166667 45.8025,0.7175 C45.7258333,0.715833333 45.665,0.715 45.62,0.715 L45.145,0.715 L45.145,3.035 Z" id="Shape"></path>
                        </g>
                    </g>
                    <g id="Group" transform="translate(19.000000, 14.000000)" fill="#474150" fill-rule="nonzero">
                        <path d="M7.5,0 C10.7165625,0 13.3333203,2.61679687 13.3333203,5.83332031 L13.3333203,7.5 L14.5833203,7.5 C14.8136328,7.5 15,7.68636719 15,7.91667969 L15,18.3333203 C15,19.2525391 14.2525391,20 13.3333594,20 L1.66667969,20 C0.747460938,20 0,19.2525391 0,18.3333594 L0,7.91667969 C0,7.68636719 0.186367188,7.5 0.416679688,7.5 L1.66667969,7.5 L1.66667969,5.83332031 C1.66667969,2.61679687 4.2834375,0 7.5,0 Z M10.763621,10 L6.00815838,14.4246799 L3.9970398,12.2721522 L2.66666667,13.5224608 L5.91573079,17 L12,11.3441514 L10.763621,10 Z M7.5,2.5 C5.66203125,2.5 4.16667969,3.99535156 4.16667969,5.83332031 L4.16667969,7.5 L10.8333203,7.5 L10.8333203,5.83332031 C10.8333203,3.99535156 9.33796875,2.5 7.5,2.5 Z" id="Combined-Shape"></path>
                    </g>
                </g>
            </g>
        </g>
    </g>
</svg>