<svg width="131" height="22" viewBox="0 0 131 22" fill="none" xmlns="http://www.w3.org/2000/svg">
<g clip-path="url(#clip0_153_10974)">
<mask id="path-1-inside-1_153_10974" fill="white">
<path fill-rule="evenodd" clip-rule="evenodd" d="M119.5 19.1992L113.61 21.8933C113.019 22.1639 112.32 21.9035 112.049 21.3116C111.96 21.1163 111.926 20.9002 111.95 20.6868L112.691 14.2502L108.31 9.47872C107.87 8.99945 107.902 8.25402 108.381 7.81375C108.539 7.66843 108.734 7.56912 108.944 7.52655L115.292 6.24266L118.474 0.599585C118.794 0.0327673 119.512 -0.167506 120.079 0.152261C120.266 0.257809 120.42 0.412492 120.526 0.599585L123.708 6.24266L130.055 7.52655C130.693 7.65551 131.105 8.27717 130.976 8.91506C130.934 9.12561 130.835 9.32052 130.689 9.47872L126.308 14.2502L127.049 20.6868C127.124 21.3333 126.66 21.9178 126.014 21.9923C125.801 22.0168 125.585 21.9826 125.389 21.8933L119.5 19.1992Z"/>
</mask>
<path d="M119.5 19.1992L120.332 17.3805L119.5 16.9999L118.668 17.3804L119.5 19.1992ZM113.61 21.8933L114.442 23.7121L114.442 23.7121L113.61 21.8933ZM112.049 21.3116L113.868 20.4803L113.868 20.4801L112.049 21.3116ZM111.95 20.6868L113.937 20.9156L113.937 20.9156L111.95 20.6868ZM112.691 14.2502L114.678 14.479L114.783 13.5709L114.165 12.8975L112.691 14.2502ZM108.31 9.47872L106.837 10.8314L106.837 10.8314L108.31 9.47872ZM108.381 7.81375L107.028 6.34118L107.028 6.34119L108.381 7.81375ZM108.944 7.52655L108.548 5.56625L108.548 5.56625L108.944 7.52655ZM115.292 6.24266L115.689 8.20296L116.585 8.02165L117.034 7.22501L115.292 6.24266ZM118.474 0.599585L120.216 1.58194L120.216 1.58189L118.474 0.599585ZM120.079 0.152261L119.095 1.89395L119.096 1.89398L120.079 0.152261ZM120.526 0.599585L122.268 -0.38276L122.268 -0.382768L120.526 0.599585ZM123.708 6.24266L121.966 7.225L122.415 8.02165L123.311 8.20296L123.708 6.24266ZM130.055 7.52655L130.452 5.56626L130.452 5.56624L130.055 7.52655ZM130.976 8.91506L129.016 8.51892L129.016 8.51934L130.976 8.91506ZM130.689 9.47872L132.163 10.8314L132.163 10.8311L130.689 9.47872ZM126.308 14.2502L124.835 12.8975L124.217 13.5709L124.321 14.479L126.308 14.2502ZM127.049 20.6868L129.036 20.4581L129.036 20.458L127.049 20.6868ZM126.014 21.9923L126.242 23.9792L126.243 23.9791L126.014 21.9923ZM125.389 21.8933L124.558 23.712L124.558 23.7122L125.389 21.8933ZM118.668 17.3804L112.778 20.0745L114.442 23.7121L120.332 21.018L118.668 17.3804ZM112.778 20.0745C113.192 19.8854 113.68 20.0678 113.868 20.4803L110.23 22.1429C110.96 23.7392 112.845 24.4424 114.442 23.7121L112.778 20.0745ZM113.868 20.4801C113.931 20.6164 113.954 20.767 113.937 20.9156L109.964 20.458C109.897 21.0334 109.989 21.6162 110.23 22.1431L113.868 20.4801ZM113.937 20.9156L114.678 14.479L110.705 14.0214L109.964 20.458L113.937 20.9156ZM114.165 12.8975L109.784 8.12606L106.837 10.8314L111.218 15.6029L114.165 12.8975ZM109.784 8.12606C110.09 8.46011 110.068 8.97935 109.734 9.28631L107.028 6.34119C105.736 7.52869 105.65 9.53879 106.837 10.8314L109.784 8.12606ZM109.734 9.28632C109.624 9.38773 109.488 9.4571 109.341 9.48685L108.548 5.56625C107.98 5.68114 107.454 5.94913 107.028 6.34118L109.734 9.28632ZM109.341 9.48685L115.689 8.20296L114.896 4.28236L108.548 5.56625L109.341 9.48685ZM117.034 7.22501L120.216 1.58194L116.732 -0.382769L113.55 5.26031L117.034 7.22501ZM120.216 1.58189C119.993 1.97712 119.492 2.11757 119.095 1.89395L121.062 -1.58943C119.533 -2.45258 117.594 -1.91158 116.732 -0.382725L120.216 1.58189ZM119.096 1.89398C118.965 1.82025 118.857 1.7123 118.784 1.58194L122.268 -0.382768C121.983 -0.887314 121.566 -1.30463 121.062 -1.58945L119.096 1.89398ZM118.784 1.58193L121.966 7.225L125.45 5.26031L122.268 -0.38276L118.784 1.58193ZM123.311 8.20296L129.659 9.48685L130.452 5.56624L124.104 4.28235L123.311 8.20296ZM129.659 9.48684C129.213 9.39666 128.926 8.96275 129.016 8.51892L132.937 9.3112C133.284 7.59159 132.173 5.91436 130.452 5.56626L129.659 9.48684ZM129.016 8.51934C129.046 8.3722 129.115 8.2364 129.216 8.12634L132.163 10.8311C132.554 10.4046 132.822 9.87902 132.937 9.31078L129.016 8.51934ZM129.216 8.12606L124.835 12.8975L127.781 15.6029L132.163 10.8314L129.216 8.12606ZM124.321 14.479L125.063 20.9156L129.036 20.458L128.295 14.0214L124.321 14.479ZM125.063 20.9155C125.011 20.4657 125.333 20.0576 125.785 20.0055L126.243 23.9791C127.987 23.778 129.237 22.2009 129.036 20.4581L125.063 20.9155ZM125.786 20.0054C125.934 19.9883 126.085 20.0121 126.221 20.0744L124.558 23.7122C125.085 23.9531 125.667 24.0453 126.242 23.9792L125.786 20.0054ZM126.221 20.0745L120.332 17.3805L118.668 21.0179L124.558 23.712L126.221 20.0745Z" fill="#F1B509" mask="url(#path-1-inside-1_153_10974)"/>
<mask id="path-3-inside-2_153_10974" fill="white">
<path fill-rule="evenodd" clip-rule="evenodd" d="M119.5 19.1992L113.61 21.8933C113.019 22.1639 112.32 21.9035 112.049 21.3116C111.96 21.1163 111.926 20.9002 111.95 20.6868L112.691 14.2502L108.31 9.47872C107.87 8.99945 107.902 8.25402 108.381 7.81375C108.539 7.66843 108.734 7.56912 108.944 7.52655L115.292 6.24266L118.474 0.599585C118.794 0.0327673 119.512 -0.167506 120.079 0.152261C120.266 0.257809 120.42 0.412492 120.526 0.599585L123.708 6.24266L130.055 7.52655C130.693 7.65551 131.105 8.27717 130.976 8.91506C130.934 9.12561 130.835 9.32052 130.689 9.47872L126.308 14.2502L127.049 20.6868C127.124 21.3333 126.66 21.9178 126.014 21.9923C125.801 22.0168 125.585 21.9826 125.389 21.8933L119.5 19.1992Z"/>
</mask>
<path d="M119.5 19.1992L120.332 17.3805L119.5 16.9999L118.668 17.3804L119.5 19.1992ZM113.61 21.8933L114.442 23.7121L114.442 23.7121L113.61 21.8933ZM112.049 21.3116L113.868 20.4803L113.868 20.4801L112.049 21.3116ZM111.95 20.6868L113.937 20.9156L113.937 20.9156L111.95 20.6868ZM112.691 14.2502L114.678 14.479L114.783 13.5709L114.165 12.8975L112.691 14.2502ZM108.31 9.47872L106.837 10.8314L106.837 10.8314L108.31 9.47872ZM108.381 7.81375L107.028 6.34118L107.028 6.34119L108.381 7.81375ZM108.944 7.52655L108.548 5.56625L108.548 5.56625L108.944 7.52655ZM115.292 6.24266L115.689 8.20296L116.585 8.02165L117.034 7.22501L115.292 6.24266ZM118.474 0.599585L120.216 1.58194L120.216 1.58189L118.474 0.599585ZM120.079 0.152261L119.095 1.89395L119.096 1.89398L120.079 0.152261ZM120.526 0.599585L122.268 -0.38276L122.268 -0.382768L120.526 0.599585ZM123.708 6.24266L121.966 7.225L122.415 8.02165L123.311 8.20296L123.708 6.24266ZM130.055 7.52655L130.452 5.56626L130.452 5.56624L130.055 7.52655ZM130.976 8.91506L129.016 8.51892L129.016 8.51934L130.976 8.91506ZM130.689 9.47872L132.163 10.8314L132.163 10.8311L130.689 9.47872ZM126.308 14.2502L124.835 12.8975L124.217 13.5709L124.321 14.479L126.308 14.2502ZM127.049 20.6868L129.036 20.4581L129.036 20.458L127.049 20.6868ZM126.014 21.9923L126.242 23.9792L126.243 23.9791L126.014 21.9923ZM125.389 21.8933L124.558 23.712L124.558 23.7122L125.389 21.8933ZM118.668 17.3804L112.778 20.0745L114.442 23.7121L120.332 21.018L118.668 17.3804ZM112.778 20.0745C113.192 19.8854 113.68 20.0678 113.868 20.4803L110.23 22.1429C110.96 23.7392 112.845 24.4424 114.442 23.7121L112.778 20.0745ZM113.868 20.4801C113.931 20.6164 113.954 20.767 113.937 20.9156L109.964 20.458C109.897 21.0334 109.989 21.6162 110.23 22.1431L113.868 20.4801ZM113.937 20.9156L114.678 14.479L110.705 14.0214L109.964 20.458L113.937 20.9156ZM114.165 12.8975L109.784 8.12606L106.837 10.8314L111.218 15.6029L114.165 12.8975ZM109.784 8.12606C110.09 8.46011 110.068 8.97935 109.734 9.28631L107.028 6.34119C105.736 7.52869 105.65 9.53879 106.837 10.8314L109.784 8.12606ZM109.734 9.28632C109.624 9.38773 109.488 9.4571 109.341 9.48685L108.548 5.56625C107.98 5.68114 107.454 5.94913 107.028 6.34118L109.734 9.28632ZM109.341 9.48685L115.689 8.20296L114.896 4.28236L108.548 5.56625L109.341 9.48685ZM117.034 7.22501L120.216 1.58194L116.732 -0.382769L113.55 5.26031L117.034 7.22501ZM120.216 1.58189C119.993 1.97712 119.492 2.11757 119.095 1.89395L121.062 -1.58943C119.533 -2.45258 117.594 -1.91158 116.732 -0.382725L120.216 1.58189ZM119.096 1.89398C118.965 1.82025 118.857 1.7123 118.784 1.58194L122.268 -0.382768C121.983 -0.887314 121.566 -1.30463 121.062 -1.58945L119.096 1.89398ZM118.784 1.58193L121.966 7.225L125.45 5.26031L122.268 -0.38276L118.784 1.58193ZM123.311 8.20296L129.659 9.48685L130.452 5.56624L124.104 4.28235L123.311 8.20296ZM129.659 9.48684C129.213 9.39666 128.926 8.96275 129.016 8.51892L132.937 9.3112C133.284 7.59159 132.173 5.91436 130.452 5.56626L129.659 9.48684ZM129.016 8.51934C129.046 8.3722 129.115 8.2364 129.216 8.12634L132.163 10.8311C132.554 10.4046 132.822 9.87902 132.937 9.31078L129.016 8.51934ZM129.216 8.12606L124.835 12.8975L127.781 15.6029L132.163 10.8314L129.216 8.12606ZM124.321 14.479L125.063 20.9156L129.036 20.458L128.295 14.0214L124.321 14.479ZM125.063 20.9155C125.011 20.4657 125.333 20.0576 125.785 20.0055L126.243 23.9791C127.987 23.778 129.237 22.2009 129.036 20.4581L125.063 20.9155ZM125.786 20.0054C125.934 19.9883 126.085 20.0121 126.221 20.0744L124.558 23.7122C125.085 23.9531 125.667 24.0453 126.242 23.9792L125.786 20.0054ZM126.221 20.0745L120.332 17.3805L118.668 21.0179L124.558 23.712L126.221 20.0745Z" fill="#F1B509" mask="url(#path-3-inside-2_153_10974)"/>
<mask id="path-5-inside-3_153_10974" fill="white">
<path fill-rule="evenodd" clip-rule="evenodd" d="M119.5 19.1992L113.61 21.8933C113.019 22.1639 112.32 21.9035 112.049 21.3116C111.96 21.1163 111.926 20.9002 111.95 20.6868L112.691 14.2502L108.31 9.47872C107.87 8.99945 107.902 8.25402 108.381 7.81375C108.539 7.66843 108.734 7.56912 108.944 7.52655L115.292 6.24266L118.474 0.599585C118.794 0.0327673 119.512 -0.167506 120.079 0.152261C120.266 0.257809 120.42 0.412492 120.526 0.599585L123.708 6.24266L130.055 7.52655C130.693 7.65551 131.105 8.27717 130.976 8.91506C130.934 9.12561 130.835 9.32052 130.689 9.47872L126.308 14.2502L127.049 20.6868C127.124 21.3333 126.66 21.9178 126.014 21.9923C125.801 22.0168 125.585 21.9826 125.389 21.8933L119.5 19.1992Z"/>
</mask>
<path d="M119.5 19.1992L120.332 17.3805L119.5 16.9999L118.668 17.3804L119.5 19.1992ZM113.61 21.8933L114.442 23.7121L114.442 23.7121L113.61 21.8933ZM112.049 21.3116L113.868 20.4803L113.868 20.4801L112.049 21.3116ZM111.95 20.6868L113.937 20.9156L113.937 20.9156L111.95 20.6868ZM112.691 14.2502L114.678 14.479L114.783 13.5709L114.165 12.8975L112.691 14.2502ZM108.31 9.47872L106.837 10.8314L106.837 10.8314L108.31 9.47872ZM108.381 7.81375L107.028 6.34118L107.028 6.34119L108.381 7.81375ZM108.944 7.52655L108.548 5.56625L108.548 5.56625L108.944 7.52655ZM115.292 6.24266L115.689 8.20296L116.585 8.02165L117.034 7.22501L115.292 6.24266ZM118.474 0.599585L120.216 1.58194L120.216 1.58189L118.474 0.599585ZM120.079 0.152261L119.095 1.89395L119.096 1.89398L120.079 0.152261ZM120.526 0.599585L122.268 -0.38276L122.268 -0.382768L120.526 0.599585ZM123.708 6.24266L121.966 7.225L122.415 8.02165L123.311 8.20296L123.708 6.24266ZM130.055 7.52655L130.452 5.56626L130.452 5.56624L130.055 7.52655ZM130.976 8.91506L129.016 8.51892L129.016 8.51934L130.976 8.91506ZM130.689 9.47872L132.163 10.8314L132.163 10.8311L130.689 9.47872ZM126.308 14.2502L124.835 12.8975L124.217 13.5709L124.321 14.479L126.308 14.2502ZM127.049 20.6868L129.036 20.4581L129.036 20.458L127.049 20.6868ZM126.014 21.9923L126.242 23.9792L126.243 23.9791L126.014 21.9923ZM125.389 21.8933L124.558 23.712L124.558 23.7122L125.389 21.8933ZM118.668 17.3804L112.778 20.0745L114.442 23.7121L120.332 21.018L118.668 17.3804ZM112.778 20.0745C113.192 19.8854 113.68 20.0678 113.868 20.4803L110.23 22.1429C110.96 23.7392 112.845 24.4424 114.442 23.7121L112.778 20.0745ZM113.868 20.4801C113.931 20.6164 113.954 20.767 113.937 20.9156L109.964 20.458C109.897 21.0334 109.989 21.6162 110.23 22.1431L113.868 20.4801ZM113.937 20.9156L114.678 14.479L110.705 14.0214L109.964 20.458L113.937 20.9156ZM114.165 12.8975L109.784 8.12606L106.837 10.8314L111.218 15.6029L114.165 12.8975ZM109.784 8.12606C110.09 8.46011 110.068 8.97935 109.734 9.28631L107.028 6.34119C105.736 7.52869 105.65 9.53879 106.837 10.8314L109.784 8.12606ZM109.734 9.28632C109.624 9.38773 109.488 9.4571 109.341 9.48685L108.548 5.56625C107.98 5.68114 107.454 5.94913 107.028 6.34118L109.734 9.28632ZM109.341 9.48685L115.689 8.20296L114.896 4.28236L108.548 5.56625L109.341 9.48685ZM117.034 7.22501L120.216 1.58194L116.732 -0.382769L113.55 5.26031L117.034 7.22501ZM120.216 1.58189C119.993 1.97712 119.492 2.11757 119.095 1.89395L121.062 -1.58943C119.533 -2.45258 117.594 -1.91158 116.732 -0.382725L120.216 1.58189ZM119.096 1.89398C118.965 1.82025 118.857 1.7123 118.784 1.58194L122.268 -0.382768C121.983 -0.887314 121.566 -1.30463 121.062 -1.58945L119.096 1.89398ZM118.784 1.58193L121.966 7.225L125.45 5.26031L122.268 -0.38276L118.784 1.58193ZM123.311 8.20296L129.659 9.48685L130.452 5.56624L124.104 4.28235L123.311 8.20296ZM129.659 9.48684C129.213 9.39666 128.926 8.96275 129.016 8.51892L132.937 9.3112C133.284 7.59159 132.173 5.91436 130.452 5.56626L129.659 9.48684ZM129.016 8.51934C129.046 8.3722 129.115 8.2364 129.216 8.12634L132.163 10.8311C132.554 10.4046 132.822 9.87902 132.937 9.31078L129.016 8.51934ZM129.216 8.12606L124.835 12.8975L127.781 15.6029L132.163 10.8314L129.216 8.12606ZM124.321 14.479L125.063 20.9156L129.036 20.458L128.295 14.0214L124.321 14.479ZM125.063 20.9155C125.011 20.4657 125.333 20.0576 125.785 20.0055L126.243 23.9791C127.987 23.778 129.237 22.2009 129.036 20.4581L125.063 20.9155ZM125.786 20.0054C125.934 19.9883 126.085 20.0121 126.221 20.0744L124.558 23.7122C125.085 23.9531 125.667 24.0453 126.242 23.9792L125.786 20.0054ZM126.221 20.0745L120.332 17.3805L118.668 21.0179L124.558 23.712L126.221 20.0745Z" fill="#F1B509" mask="url(#path-5-inside-3_153_10974)"/>
<mask id="path-7-inside-4_153_10974" fill="white">
<path fill-rule="evenodd" clip-rule="evenodd" d="M119.5 19.1992L113.61 21.8933C113.019 22.1639 112.32 21.9035 112.049 21.3116C111.96 21.1163 111.926 20.9002 111.95 20.6868L112.691 14.2502L108.31 9.47872C107.87 8.99945 107.902 8.25402 108.381 7.81375C108.539 7.66843 108.734 7.56912 108.944 7.52655L115.292 6.24266L118.474 0.599585C118.794 0.0327673 119.512 -0.167506 120.079 0.152261C120.266 0.257809 120.42 0.412492 120.526 0.599585L123.708 6.24266L130.055 7.52655C130.693 7.65551 131.105 8.27717 130.976 8.91506C130.934 9.12561 130.835 9.32052 130.689 9.47872L126.308 14.2502L127.049 20.6868C127.124 21.3333 126.66 21.9178 126.014 21.9923C125.801 22.0168 125.585 21.9826 125.389 21.8933L119.5 19.1992Z"/>
</mask>
<path d="M119.5 19.1992L120.332 17.3805L119.5 16.9999L118.668 17.3804L119.5 19.1992ZM113.61 21.8933L114.442 23.7121L114.442 23.7121L113.61 21.8933ZM112.049 21.3116L113.868 20.4803L113.868 20.4801L112.049 21.3116ZM111.95 20.6868L113.937 20.9156L113.937 20.9156L111.95 20.6868ZM112.691 14.2502L114.678 14.479L114.783 13.5709L114.165 12.8975L112.691 14.2502ZM108.31 9.47872L106.837 10.8314L106.837 10.8314L108.31 9.47872ZM108.381 7.81375L107.028 6.34118L107.028 6.34119L108.381 7.81375ZM108.944 7.52655L108.548 5.56625L108.548 5.56625L108.944 7.52655ZM115.292 6.24266L115.689 8.20296L116.585 8.02165L117.034 7.22501L115.292 6.24266ZM118.474 0.599585L120.216 1.58194L120.216 1.58189L118.474 0.599585ZM120.079 0.152261L119.095 1.89395L119.096 1.89398L120.079 0.152261ZM120.526 0.599585L122.268 -0.38276L122.268 -0.382768L120.526 0.599585ZM123.708 6.24266L121.966 7.225L122.415 8.02165L123.311 8.20296L123.708 6.24266ZM130.055 7.52655L130.452 5.56626L130.452 5.56624L130.055 7.52655ZM130.976 8.91506L129.016 8.51892L129.016 8.51934L130.976 8.91506ZM130.689 9.47872L132.163 10.8314L132.163 10.8311L130.689 9.47872ZM126.308 14.2502L124.835 12.8975L124.217 13.5709L124.321 14.479L126.308 14.2502ZM127.049 20.6868L129.036 20.4581L129.036 20.458L127.049 20.6868ZM126.014 21.9923L126.242 23.9792L126.243 23.9791L126.014 21.9923ZM125.389 21.8933L124.558 23.712L124.558 23.7122L125.389 21.8933ZM118.668 17.3804L112.778 20.0745L114.442 23.7121L120.332 21.018L118.668 17.3804ZM112.778 20.0745C113.192 19.8854 113.68 20.0678 113.868 20.4803L110.23 22.1429C110.96 23.7392 112.845 24.4424 114.442 23.7121L112.778 20.0745ZM113.868 20.4801C113.931 20.6164 113.954 20.767 113.937 20.9156L109.964 20.458C109.897 21.0334 109.989 21.6162 110.23 22.1431L113.868 20.4801ZM113.937 20.9156L114.678 14.479L110.705 14.0214L109.964 20.458L113.937 20.9156ZM114.165 12.8975L109.784 8.12606L106.837 10.8314L111.218 15.6029L114.165 12.8975ZM109.784 8.12606C110.09 8.46011 110.068 8.97935 109.734 9.28631L107.028 6.34119C105.736 7.52869 105.65 9.53879 106.837 10.8314L109.784 8.12606ZM109.734 9.28632C109.624 9.38773 109.488 9.4571 109.341 9.48685L108.548 5.56625C107.98 5.68114 107.454 5.94913 107.028 6.34118L109.734 9.28632ZM109.341 9.48685L115.689 8.20296L114.896 4.28236L108.548 5.56625L109.341 9.48685ZM117.034 7.22501L120.216 1.58194L116.732 -0.382769L113.55 5.26031L117.034 7.22501ZM120.216 1.58189C119.993 1.97712 119.492 2.11757 119.095 1.89395L121.062 -1.58943C119.533 -2.45258 117.594 -1.91158 116.732 -0.382725L120.216 1.58189ZM119.096 1.89398C118.965 1.82025 118.857 1.7123 118.784 1.58194L122.268 -0.382768C121.983 -0.887314 121.566 -1.30463 121.062 -1.58945L119.096 1.89398ZM118.784 1.58193L121.966 7.225L125.45 5.26031L122.268 -0.38276L118.784 1.58193ZM123.311 8.20296L129.659 9.48685L130.452 5.56624L124.104 4.28235L123.311 8.20296ZM129.659 9.48684C129.213 9.39666 128.926 8.96275 129.016 8.51892L132.937 9.3112C133.284 7.59159 132.173 5.91436 130.452 5.56626L129.659 9.48684ZM129.016 8.51934C129.046 8.3722 129.115 8.2364 129.216 8.12634L132.163 10.8311C132.554 10.4046 132.822 9.87902 132.937 9.31078L129.016 8.51934ZM129.216 8.12606L124.835 12.8975L127.781 15.6029L132.163 10.8314L129.216 8.12606ZM124.321 14.479L125.063 20.9156L129.036 20.458L128.295 14.0214L124.321 14.479ZM125.063 20.9155C125.011 20.4657 125.333 20.0576 125.785 20.0055L126.243 23.9791C127.987 23.778 129.237 22.2009 129.036 20.4581L125.063 20.9155ZM125.786 20.0054C125.934 19.9883 126.085 20.0121 126.221 20.0744L124.558 23.7122C125.085 23.9531 125.667 24.0453 126.242 23.9792L125.786 20.0054ZM126.221 20.0745L120.332 17.3805L118.668 21.0179L124.558 23.712L126.221 20.0745Z" fill="#F1B509" mask="url(#path-7-inside-4_153_10974)"/>
<mask id="path-9-inside-5_153_10974" fill="white">
<path fill-rule="evenodd" clip-rule="evenodd" d="M92.4999 19.1992L86.6103 21.8933C86.0187 22.1639 85.3198 21.9035 85.0493 21.3116C84.9601 21.1163 84.9258 20.9002 84.9504 20.6868L85.6915 14.2502L81.3104 9.47872C80.8704 8.99945 80.902 8.25402 81.381 7.81375C81.5392 7.66843 81.734 7.56912 81.9444 7.52655L88.2921 6.24266L91.4741 0.599585C91.7937 0.0327673 92.5121 -0.167506 93.0786 0.152261C93.2656 0.257809 93.4202 0.412492 93.5257 0.599585L96.7077 6.24266L103.055 7.52655C103.693 7.65551 104.105 8.27717 103.976 8.91506C103.934 9.12561 103.835 9.32052 103.689 9.47872L99.3083 14.2502L100.049 20.6868C100.124 21.3333 99.6603 21.9178 99.0141 21.9923C98.8008 22.0168 98.5848 21.9826 98.3895 21.8933L92.4999 19.1992Z"/>
</mask>
<path d="M92.4999 19.1992L93.3319 17.3805L92.4999 16.9999L91.668 17.3804L92.4999 19.1992ZM86.6103 21.8933L87.4422 23.7121L87.4422 23.7121L86.6103 21.8933ZM85.0493 21.3116L86.8684 20.4803L86.8683 20.4801L85.0493 21.3116ZM84.9504 20.6868L86.9373 20.9156L86.9373 20.9156L84.9504 20.6868ZM85.6915 14.2502L87.6783 14.479L87.7829 13.5709L87.1647 12.8975L85.6915 14.2502ZM81.3104 9.47872L79.8372 10.8314L79.8372 10.8314L81.3104 9.47872ZM81.381 7.81375L80.0277 6.34118L80.0277 6.34119L81.381 7.81375ZM81.9444 7.52655L81.5479 5.56625L81.5479 5.56625L81.9444 7.52655ZM88.2921 6.24266L88.6886 8.20296L89.585 8.02165L90.0342 7.22501L88.2921 6.24266ZM91.4741 0.599585L93.2162 1.58194L93.2162 1.58189L91.4741 0.599585ZM93.0786 0.152261L92.0955 1.89395L92.0955 1.89398L93.0786 0.152261ZM93.5257 0.599585L95.2678 -0.38276L95.2678 -0.382768L93.5257 0.599585ZM96.7077 6.24266L94.9656 7.225L95.4148 8.02165L96.3112 8.20296L96.7077 6.24266ZM103.055 7.52655L103.452 5.56626L103.452 5.56624L103.055 7.52655ZM103.976 8.91506L102.016 8.51892L102.016 8.51934L103.976 8.91506ZM103.689 9.47872L105.163 10.8314L105.163 10.8311L103.689 9.47872ZM99.3083 14.2502L97.8351 12.8975L97.2169 13.5709L97.3214 14.479L99.3083 14.2502ZM100.049 20.6868L102.036 20.4581L102.036 20.458L100.049 20.6868ZM99.0141 21.9923L99.2423 23.9792L99.2432 23.9791L99.0141 21.9923ZM98.3895 21.8933L97.5575 23.712L97.5578 23.7122L98.3895 21.8933ZM91.668 17.3804L85.7783 20.0745L87.4422 23.7121L93.3319 21.018L91.668 17.3804ZM85.7783 20.0745C86.1919 19.8854 86.6799 20.0678 86.8684 20.4803L83.2303 22.1429C83.9598 23.7392 85.8454 24.4424 87.4422 23.7121L85.7783 20.0745ZM86.8683 20.4801C86.9306 20.6164 86.9544 20.767 86.9373 20.9156L82.9635 20.458C82.8973 21.0334 82.9895 21.6162 83.2304 22.1431L86.8683 20.4801ZM86.9373 20.9156L87.6783 14.479L83.7046 14.0214L82.9635 20.458L86.9373 20.9156ZM87.1647 12.8975L82.7836 8.12606L79.8372 10.8314L84.2183 15.6029L87.1647 12.8975ZM82.7836 8.12606C83.0903 8.46011 83.0684 8.97935 82.7344 9.28631L80.0277 6.34119C78.7356 7.52869 78.6504 9.53879 79.8372 10.8314L82.7836 8.12606ZM82.7344 9.28632C82.624 9.38773 82.488 9.4571 82.341 9.48685L81.5479 5.56625C80.98 5.68114 80.4543 5.94913 80.0277 6.34118L82.7344 9.28632ZM82.3409 9.48685L88.6886 8.20296L87.8956 4.28236L81.5479 5.56625L82.3409 9.48685ZM90.0342 7.22501L93.2162 1.58194L89.732 -0.382769L86.5499 5.26031L90.0342 7.22501ZM93.2162 1.58189C92.9934 1.97712 92.4916 2.11757 92.0955 1.89395L94.0617 -1.58943C92.5326 -2.45258 90.594 -1.91158 89.732 -0.382725L93.2162 1.58189ZM92.0955 1.89398C91.9649 1.82025 91.8571 1.7123 91.7836 1.58194L95.2678 -0.382768C94.9833 -0.887314 94.5663 -1.30463 94.0617 -1.58945L92.0955 1.89398ZM91.7836 1.58193L94.9656 7.225L98.4498 5.26031L95.2678 -0.38276L91.7836 1.58193ZM96.3112 8.20296L102.659 9.48685L103.452 5.56624L97.1042 4.28235L96.3112 8.20296ZM102.659 9.48684C102.213 9.39666 101.926 8.96275 102.016 8.51892L105.937 9.3112C106.284 7.59159 105.173 5.91436 103.452 5.56626L102.659 9.48684ZM102.016 8.51934C102.046 8.3722 102.115 8.2364 102.216 8.12634L105.163 10.8311C105.554 10.4046 105.822 9.87902 105.937 9.31078L102.016 8.51934ZM102.216 8.12606L97.8351 12.8975L100.781 15.6029L105.163 10.8314L102.216 8.12606ZM97.3214 14.479L98.0625 20.9156L102.036 20.458L101.295 14.0214L97.3214 14.479ZM98.0625 20.9155C98.0108 20.4657 98.3332 20.0576 98.785 20.0055L99.2432 23.9791C100.987 23.778 102.237 22.2009 102.036 20.4581L98.0625 20.9155ZM98.7859 20.0054C98.9343 19.9883 99.0848 20.0121 99.2212 20.0744L97.5578 23.7122C98.0848 23.9531 98.6673 24.0453 99.2423 23.9792L98.7859 20.0054ZM99.2215 20.0745L93.3319 17.3805L91.6679 21.0179L97.5575 23.712L99.2215 20.0745Z" fill="#F1B509" mask="url(#path-9-inside-5_153_10974)"/>
<mask id="path-11-inside-6_153_10974" fill="white">
<path fill-rule="evenodd" clip-rule="evenodd" d="M65.4999 19.1992L59.6103 21.8933C59.0187 22.1639 58.3198 21.9035 58.0493 21.3116C57.9601 21.1163 57.9258 20.9002 57.9504 20.6868L58.6915 14.2502L54.3104 9.47872C53.8704 8.99945 53.902 8.25402 54.381 7.81375C54.5392 7.66843 54.734 7.56912 54.9444 7.52655L61.2921 6.24266L64.4741 0.599585C64.7937 0.0327673 65.5121 -0.167506 66.0786 0.152261C66.2656 0.257809 66.4202 0.412492 66.5257 0.599585L69.7077 6.24266L76.0554 7.52655C76.6929 7.65551 77.1053 8.27717 76.9764 8.91506C76.9339 9.12561 76.8346 9.32052 76.6894 9.47872L72.3083 14.2502L73.0494 20.6868C73.1238 21.3333 72.6603 21.9178 72.0141 21.9923C71.8008 22.0168 71.5848 21.9826 71.3895 21.8933L65.4999 19.1992Z"/>
</mask>
<path d="M65.4999 19.1992L66.3319 17.3805L65.4999 16.9999L64.668 17.3804L65.4999 19.1992ZM59.6103 21.8933L60.4422 23.7121L60.4422 23.7121L59.6103 21.8933ZM58.0493 21.3116L59.8684 20.4803L59.8683 20.4801L58.0493 21.3116ZM57.9504 20.6868L59.9373 20.9156L59.9373 20.9156L57.9504 20.6868ZM58.6915 14.2502L60.6783 14.479L60.7829 13.5709L60.1647 12.8975L58.6915 14.2502ZM54.3104 9.47872L52.8372 10.8314L52.8372 10.8314L54.3104 9.47872ZM54.381 7.81375L53.0277 6.34118L53.0277 6.34119L54.381 7.81375ZM54.9444 7.52655L54.5479 5.56625L54.5479 5.56625L54.9444 7.52655ZM61.2921 6.24266L61.6886 8.20296L62.585 8.02165L63.0342 7.22501L61.2921 6.24266ZM64.4741 0.599585L66.2162 1.58194L66.2162 1.58189L64.4741 0.599585ZM66.0786 0.152261L65.0955 1.89395L65.0955 1.89398L66.0786 0.152261ZM66.5257 0.599585L68.2678 -0.38276L68.2678 -0.382768L66.5257 0.599585ZM69.7077 6.24266L67.9656 7.225L68.4148 8.02165L69.3112 8.20296L69.7077 6.24266ZM76.0554 7.52655L76.452 5.56626L76.4519 5.56624L76.0554 7.52655ZM76.9764 8.91506L75.016 8.51892L75.0159 8.51934L76.9764 8.91506ZM76.6894 9.47872L78.1626 10.8314L78.1629 10.8311L76.6894 9.47872ZM72.3083 14.2502L70.8351 12.8975L70.2169 13.5709L70.3214 14.479L72.3083 14.2502ZM73.0494 20.6868L75.0363 20.4581L75.0363 20.458L73.0494 20.6868ZM72.0141 21.9923L72.2423 23.9792L72.2432 23.9791L72.0141 21.9923ZM71.3895 21.8933L70.5575 23.712L70.5578 23.7122L71.3895 21.8933ZM64.668 17.3804L58.7783 20.0745L60.4422 23.7121L66.3319 21.018L64.668 17.3804ZM58.7783 20.0745C59.1919 19.8854 59.6799 20.0678 59.8684 20.4803L56.2303 22.1429C56.9598 23.7392 58.8454 24.4424 60.4422 23.7121L58.7783 20.0745ZM59.8683 20.4801C59.9306 20.6164 59.9544 20.767 59.9373 20.9156L55.9635 20.458C55.8973 21.0334 55.9895 21.6162 56.2304 22.1431L59.8683 20.4801ZM59.9373 20.9156L60.6783 14.479L56.7046 14.0214L55.9635 20.458L59.9373 20.9156ZM60.1647 12.8975L55.7836 8.12606L52.8372 10.8314L57.2183 15.6029L60.1647 12.8975ZM55.7836 8.12606C56.0903 8.46011 56.0684 8.97935 55.7344 9.28631L53.0277 6.34119C51.7356 7.52869 51.6504 9.53879 52.8372 10.8314L55.7836 8.12606ZM55.7344 9.28632C55.624 9.38773 55.488 9.4571 55.341 9.48685L54.5479 5.56625C53.98 5.68114 53.4543 5.94913 53.0277 6.34118L55.7344 9.28632ZM55.3409 9.48685L61.6886 8.20296L60.8956 4.28236L54.5479 5.56625L55.3409 9.48685ZM63.0342 7.22501L66.2162 1.58194L62.732 -0.382769L59.5499 5.26031L63.0342 7.22501ZM66.2162 1.58189C65.9934 1.97712 65.4916 2.11757 65.0955 1.89395L67.0617 -1.58943C65.5326 -2.45258 63.594 -1.91158 62.732 -0.382725L66.2162 1.58189ZM65.0955 1.89398C64.9649 1.82025 64.8571 1.7123 64.7836 1.58194L68.2678 -0.382768C67.9833 -0.887314 67.5663 -1.30463 67.0617 -1.58945L65.0955 1.89398ZM64.7836 1.58193L67.9656 7.225L71.4498 5.26031L68.2678 -0.38276L64.7836 1.58193ZM69.3112 8.20296L75.6589 9.48685L76.4519 5.56624L70.1042 4.28235L69.3112 8.20296ZM75.6589 9.48684C75.2131 9.39666 74.9263 8.96275 75.016 8.51892L78.9368 9.3112C79.2843 7.59159 78.1727 5.91436 76.452 5.56626L75.6589 9.48684ZM75.0159 8.51934C75.0456 8.3722 75.1149 8.2364 75.2159 8.12634L78.1629 10.8311C78.5543 10.4046 78.8222 9.87902 78.9369 9.31078L75.0159 8.51934ZM75.2162 8.12606L70.8351 12.8975L73.7815 15.6029L78.1626 10.8314L75.2162 8.12606ZM70.3214 14.479L71.0625 20.9156L75.0363 20.458L74.2952 14.0214L70.3214 14.479ZM71.0625 20.9155C71.0108 20.4657 71.3332 20.0576 71.785 20.0055L72.2432 23.9791C73.9874 23.778 75.2368 22.2009 75.0363 20.4581L71.0625 20.9155ZM71.7859 20.0054C71.9343 19.9883 72.0848 20.0121 72.2212 20.0744L70.5578 23.7122C71.0848 23.9531 71.6673 24.0453 72.2423 23.9792L71.7859 20.0054ZM72.2215 20.0745L66.3319 17.3805L64.6679 21.0179L70.5575 23.712L72.2215 20.0745Z" fill="#F1B509" mask="url(#path-11-inside-6_153_10974)"/>
<mask id="path-13-inside-7_153_10974" fill="white">
<path fill-rule="evenodd" clip-rule="evenodd" d="M38.4999 19.1992L32.6103 21.8933C32.0187 22.1639 31.3198 21.9035 31.0493 21.3116C30.9601 21.1163 30.9258 20.9002 30.9504 20.6868L31.6915 14.2502L27.3104 9.47872C26.8704 8.99945 26.902 8.25402 27.381 7.81375C27.5392 7.66843 27.734 7.56912 27.9444 7.52655L34.2921 6.24266L37.4741 0.599585C37.7937 0.0327673 38.5121 -0.167506 39.0786 0.152261C39.2656 0.257809 39.4202 0.412492 39.5257 0.599585L42.7077 6.24266L49.0554 7.52655C49.6929 7.65551 50.1053 8.27717 49.9764 8.91506C49.9339 9.12561 49.8346 9.32052 49.6894 9.47872L45.3083 14.2502L46.0494 20.6868C46.1238 21.3333 45.6603 21.9178 45.0141 21.9923C44.8008 22.0168 44.5848 21.9826 44.3895 21.8933L38.4999 19.1992Z"/>
</mask>
<path d="M38.4999 19.1992L39.3319 17.3805L38.4999 16.9999L37.668 17.3804L38.4999 19.1992ZM32.6103 21.8933L33.4422 23.7121L33.4422 23.7121L32.6103 21.8933ZM31.0493 21.3116L32.8684 20.4803L32.8683 20.4801L31.0493 21.3116ZM30.9504 20.6868L32.9373 20.9156L32.9373 20.9156L30.9504 20.6868ZM31.6915 14.2502L33.6783 14.479L33.7829 13.5709L33.1647 12.8975L31.6915 14.2502ZM27.3104 9.47872L25.8372 10.8314L25.8372 10.8314L27.3104 9.47872ZM27.381 7.81375L26.0277 6.34118L26.0277 6.34119L27.381 7.81375ZM27.9444 7.52655L27.5479 5.56625L27.5479 5.56625L27.9444 7.52655ZM34.2921 6.24266L34.6886 8.20296L35.585 8.02165L36.0342 7.22501L34.2921 6.24266ZM37.4741 0.599585L39.2162 1.58194L39.2162 1.58189L37.4741 0.599585ZM39.0786 0.152261L38.0955 1.89395L38.0955 1.89398L39.0786 0.152261ZM39.5257 0.599585L41.2678 -0.38276L41.2678 -0.382768L39.5257 0.599585ZM42.7077 6.24266L40.9656 7.225L41.4148 8.02165L42.3112 8.20296L42.7077 6.24266ZM49.0554 7.52655L49.452 5.56626L49.4519 5.56624L49.0554 7.52655ZM49.9764 8.91506L48.016 8.51892L48.0159 8.51934L49.9764 8.91506ZM49.6894 9.47872L51.1626 10.8314L51.1629 10.8311L49.6894 9.47872ZM45.3083 14.2502L43.8351 12.8975L43.2169 13.5709L43.3214 14.479L45.3083 14.2502ZM46.0494 20.6868L48.0363 20.4581L48.0363 20.458L46.0494 20.6868ZM45.0141 21.9923L45.2423 23.9792L45.2432 23.9791L45.0141 21.9923ZM44.3895 21.8933L43.5575 23.712L43.5578 23.7122L44.3895 21.8933ZM37.668 17.3804L31.7783 20.0745L33.4422 23.7121L39.3319 21.018L37.668 17.3804ZM31.7783 20.0745C32.1919 19.8854 32.6799 20.0678 32.8684 20.4803L29.2303 22.1429C29.9598 23.7392 31.8454 24.4424 33.4422 23.7121L31.7783 20.0745ZM32.8683 20.4801C32.9306 20.6164 32.9544 20.767 32.9373 20.9156L28.9635 20.458C28.8973 21.0334 28.9895 21.6162 29.2304 22.1431L32.8683 20.4801ZM32.9373 20.9156L33.6783 14.479L29.7046 14.0214L28.9635 20.458L32.9373 20.9156ZM33.1647 12.8975L28.7836 8.12606L25.8372 10.8314L30.2183 15.6029L33.1647 12.8975ZM28.7836 8.12606C29.0903 8.46011 29.0684 8.97935 28.7344 9.28631L26.0277 6.34119C24.7356 7.52869 24.6504 9.53879 25.8372 10.8314L28.7836 8.12606ZM28.7344 9.28632C28.624 9.38773 28.488 9.4571 28.341 9.48685L27.5479 5.56625C26.98 5.68114 26.4543 5.94913 26.0277 6.34118L28.7344 9.28632ZM28.3409 9.48685L34.6886 8.20296L33.8956 4.28236L27.5479 5.56625L28.3409 9.48685ZM36.0342 7.22501L39.2162 1.58194L35.732 -0.382769L32.5499 5.26031L36.0342 7.22501ZM39.2162 1.58189C38.9934 1.97712 38.4916 2.11757 38.0955 1.89395L40.0617 -1.58943C38.5326 -2.45258 36.594 -1.91158 35.732 -0.382725L39.2162 1.58189ZM38.0955 1.89398C37.9649 1.82025 37.8571 1.7123 37.7836 1.58194L41.2678 -0.382768C40.9833 -0.887314 40.5663 -1.30463 40.0617 -1.58945L38.0955 1.89398ZM37.7836 1.58193L40.9656 7.225L44.4498 5.26031L41.2678 -0.38276L37.7836 1.58193ZM42.3112 8.20296L48.6589 9.48685L49.4519 5.56624L43.1042 4.28235L42.3112 8.20296ZM48.6589 9.48684C48.2131 9.39666 47.9263 8.96275 48.016 8.51892L51.9368 9.3112C52.2843 7.59159 51.1727 5.91436 49.452 5.56626L48.6589 9.48684ZM48.0159 8.51934C48.0456 8.3722 48.1149 8.2364 48.2159 8.12634L51.1629 10.8311C51.5543 10.4046 51.8222 9.87902 51.9369 9.31078L48.0159 8.51934ZM48.2162 8.12606L43.8351 12.8975L46.7815 15.6029L51.1626 10.8314L48.2162 8.12606ZM43.3214 14.479L44.0625 20.9156L48.0363 20.458L47.2952 14.0214L43.3214 14.479ZM44.0625 20.9155C44.0108 20.4657 44.3332 20.0576 44.785 20.0055L45.2432 23.9791C46.9874 23.778 48.2368 22.2009 48.0363 20.4581L44.0625 20.9155ZM44.7859 20.0054C44.9343 19.9883 45.0848 20.0121 45.2212 20.0744L43.5578 23.7122C44.0848 23.9531 44.6673 24.0453 45.2423 23.9792L44.7859 20.0054ZM45.2215 20.0745L39.3319 17.3805L37.6679 21.0179L43.5575 23.712L45.2215 20.0745Z" fill="#F1B509" mask="url(#path-13-inside-7_153_10974)"/>
<mask id="path-15-inside-8_153_10974" fill="white">
<path fill-rule="evenodd" clip-rule="evenodd" d="M11.4999 19.1992L5.61025 21.8933C5.01866 22.1639 4.31982 21.9035 4.04934 21.3116C3.96006 21.1163 3.92585 20.9002 3.95042 20.6868L4.69147 14.2502L0.310426 9.47872C-0.129627 8.99945 -0.0980175 8.25402 0.381029 7.81375C0.539151 7.66843 0.73397 7.56912 0.944423 7.52655L7.29206 6.24266L10.4741 0.599585C10.7937 0.0327673 11.5121 -0.167506 12.0786 0.152261C12.2656 0.257809 12.4202 0.412492 12.5257 0.599585L15.7077 6.24266L22.0554 7.52655C22.6929 7.65551 23.1053 8.27717 22.9764 8.91506C22.9339 9.12561 22.8346 9.32052 22.6894 9.47872L18.3083 14.2502L19.0494 20.6868C19.1238 21.3333 18.6603 21.9178 18.0141 21.9923C17.8008 22.0168 17.5848 21.9826 17.3895 21.8933L11.4999 19.1992Z"/>
</mask>
<path d="M11.4999 19.1992L12.3319 17.3805L11.4999 16.9999L10.668 17.3804L11.4999 19.1992ZM5.61025 21.8933L6.44217 23.7121L6.4422 23.7121L5.61025 21.8933ZM4.04934 21.3116L5.86841 20.4803L5.86829 20.4801L4.04934 21.3116ZM3.95042 20.6868L5.93729 20.9156L5.9373 20.9156L3.95042 20.6868ZM4.69147 14.2502L6.67835 14.479L6.78289 13.5709L6.16467 12.8975L4.69147 14.2502ZM0.310426 9.47872L-1.16278 10.8314L-1.16278 10.8314L0.310426 9.47872ZM0.381029 7.81375L-0.972318 6.34118L-0.972329 6.34119L0.381029 7.81375ZM0.944423 7.52655L0.547927 5.56625L0.547893 5.56625L0.944423 7.52655ZM7.29206 6.24266L7.68856 8.20296L8.58497 8.02165L9.03418 7.22501L7.29206 6.24266ZM10.4741 0.599585L12.2162 1.58194L12.2162 1.58189L10.4741 0.599585ZM12.0786 0.152261L11.0955 1.89395L11.0955 1.89398L12.0786 0.152261ZM12.5257 0.599585L14.2678 -0.38276L14.2678 -0.382768L12.5257 0.599585ZM15.7077 6.24266L13.9656 7.225L14.4148 8.02165L15.3112 8.20296L15.7077 6.24266ZM22.0554 7.52655L22.452 5.56626L22.4519 5.56624L22.0554 7.52655ZM22.9764 8.91506L21.016 8.51892L21.0159 8.51934L22.9764 8.91506ZM22.6894 9.47872L24.1626 10.8314L24.1629 10.8311L22.6894 9.47872ZM18.3083 14.2502L16.8351 12.8975L16.2169 13.5709L16.3214 14.479L18.3083 14.2502ZM19.0494 20.6868L21.0363 20.4581L21.0363 20.458L19.0494 20.6868ZM18.0141 21.9923L18.2423 23.9792L18.2432 23.9791L18.0141 21.9923ZM17.3895 21.8933L16.5575 23.712L16.5578 23.7122L17.3895 21.8933ZM10.668 17.3804L4.7783 20.0745L6.4422 23.7121L12.3319 21.018L10.668 17.3804ZM4.77833 20.0745C5.19192 19.8854 5.67988 20.0678 5.86841 20.4803L2.23027 22.1429C2.95976 23.7392 4.8454 24.4424 6.44217 23.7121L4.77833 20.0745ZM5.86829 20.4801C5.93063 20.6164 5.9544 20.767 5.93729 20.9156L1.96355 20.458C1.8973 21.0334 1.98949 21.6162 2.23039 22.1431L5.86829 20.4801ZM5.9373 20.9156L6.67835 14.479L2.7046 14.0214L1.96354 20.458L5.9373 20.9156ZM6.16467 12.8975L1.78363 8.12606L-1.16278 10.8314L3.21827 15.6029L6.16467 12.8975ZM1.78363 8.12606C2.09034 8.46011 2.06838 8.97935 1.73439 9.28631L-0.972329 6.34119C-2.26441 7.52869 -2.34959 9.53879 -1.16278 10.8314L1.78363 8.12606ZM1.73438 9.28632C1.62403 9.38773 1.48799 9.4571 1.34095 9.48685L0.547893 5.56625C-0.0200497 5.68114 -0.545725 5.94913 -0.972318 6.34118L1.73438 9.28632ZM1.34092 9.48685L7.68856 8.20296L6.89556 4.28236L0.547927 5.56625L1.34092 9.48685ZM9.03418 7.22501L12.2162 1.58194L8.73198 -0.382769L5.54994 5.26031L9.03418 7.22501ZM12.2162 1.58189C11.9934 1.97712 11.4916 2.11757 11.0955 1.89395L13.0617 -1.58943C11.5326 -2.45258 9.594 -1.91158 8.73196 -0.382725L12.2162 1.58189ZM11.0955 1.89398C10.9649 1.82025 10.8571 1.7123 10.7836 1.58194L14.2678 -0.382768C13.9833 -0.887314 13.5663 -1.30463 13.0617 -1.58945L11.0955 1.89398ZM10.7836 1.58193L13.9656 7.225L17.4498 5.26031L14.2678 -0.38276L10.7836 1.58193ZM15.3112 8.20296L21.6589 9.48685L22.4519 5.56624L16.1042 4.28235L15.3112 8.20296ZM21.6589 9.48684C21.2131 9.39666 20.9263 8.96275 21.016 8.51892L24.9368 9.3112C25.2843 7.59159 24.1727 5.91436 22.452 5.56626L21.6589 9.48684ZM21.0159 8.51934C21.0456 8.3722 21.1149 8.2364 21.2159 8.12634L24.1629 10.8311C24.5543 10.4046 24.8222 9.87902 24.9369 9.31078L21.0159 8.51934ZM21.2162 8.12606L16.8351 12.8975L19.7815 15.6029L24.1626 10.8314L21.2162 8.12606ZM16.3214 14.479L17.0625 20.9156L21.0363 20.458L20.2952 14.0214L16.3214 14.479ZM17.0625 20.9155C17.0108 20.4657 17.3332 20.0576 17.785 20.0055L18.2432 23.9791C19.9874 23.778 21.2368 22.2009 21.0363 20.4581L17.0625 20.9155ZM17.7859 20.0054C17.9343 19.9883 18.0848 20.0121 18.2212 20.0744L16.5578 23.7122C17.0848 23.9531 17.6673 24.0453 18.2423 23.9792L17.7859 20.0054ZM18.2215 20.0745L12.3319 17.3805L10.6679 21.0179L16.5575 23.712L18.2215 20.0745Z" fill="#F1B509" mask="url(#path-15-inside-8_153_10974)"/>
</g>
<defs>
<clipPath id="clip0_153_10974">
<rect width="131" height="22" fill="white"/>
</clipPath>
</defs>
</svg>
