<svg width="78" height="14" viewBox="0 0 78 14" fill="none" xmlns="http://www.w3.org/2000/svg">
<path d="M72.4887 4.77149C72.597 4.99405 72.8082 5.14882 73.053 5.18511L76.4044 5.68181L73.973 8.08309C73.799 8.2549 73.7197 8.50072 73.7605 8.7418L74.3319 12.12L71.3529 10.5314C71.1323 10.4138 70.8677 10.4138 70.6471 10.5314L67.6681 12.12L68.2395 8.7418C68.2803 8.50072 68.201 8.2549 68.027 8.08309L65.5956 5.68181L68.947 5.18511C69.1918 5.14882 69.403 4.99405 69.5113 4.77149L71 1.7135L72.4887 4.77149Z" stroke="#DFB402" stroke-width="1.5" stroke-linecap="round" stroke-linejoin="round"/>
<path d="M56.4887 4.77149C56.597 4.99405 56.8082 5.14882 57.053 5.18511L60.4044 5.68181L57.973 8.08309C57.799 8.2549 57.7197 8.50072 57.7605 8.7418L58.3319 12.12L55.3529 10.5314C55.1323 10.4138 54.8677 10.4138 54.6471 10.5314L51.6681 12.12L52.2395 8.7418C52.2803 8.50072 52.201 8.2549 52.027 8.08309L49.5956 5.68181L52.947 5.18511C53.1918 5.14882 53.403 4.99405 53.5113 4.77149L55 1.7135L56.4887 4.77149Z" stroke="#DFB402" stroke-width="1.5" stroke-linecap="round" stroke-linejoin="round"/>
<path d="M40.4887 4.77149C40.597 4.99405 40.8082 5.14882 41.053 5.18511L44.4044 5.68181L41.973 8.08309C41.799 8.2549 41.7197 8.50072 41.7605 8.7418L42.3319 12.12L39.3529 10.5314C39.1323 10.4138 38.8677 10.4138 38.6471 10.5314L35.6681 12.12L36.2395 8.7418C36.2803 8.50072 36.201 8.2549 36.027 8.08309L33.5956 5.68181L36.947 5.18511C37.1918 5.14882 37.403 4.99405 37.5113 4.77149L39 1.7135L40.4887 4.77149Z" stroke="#DFB402" stroke-width="1.5" stroke-linecap="round" stroke-linejoin="round"/>
<path d="M24.4887 4.77149C24.597 4.99405 24.8082 5.14882 25.053 5.18511L28.4044 5.68181L25.973 8.08309C25.799 8.2549 25.7197 8.50072 25.7605 8.7418L26.3319 12.12L23.3529 10.5314C23.1323 10.4138 22.8677 10.4138 22.6471 10.5314L19.6681 12.12L20.2395 8.7418C20.2803 8.50072 20.201 8.2549 20.027 8.08309L17.5956 5.68181L20.947 5.18511C21.1918 5.14882 21.403 4.99405 21.5113 4.77149L23 1.7135L24.4887 4.77149Z" stroke="#DFB402" stroke-width="1.5" stroke-linecap="round" stroke-linejoin="round"/>
<path d="M8.48866 4.77149C8.597 4.99405 8.80819 5.14882 9.05305 5.18511L12.4044 5.68181L9.97299 8.08309C9.79902 8.2549 9.71973 8.50072 9.7605 8.7418L10.3319 12.12L7.35289 10.5314C7.13233 10.4138 6.86767 10.4138 6.64711 10.5314L3.66809 12.12L4.2395 8.7418C4.28027 8.50072 4.20098 8.2549 4.02701 8.08309L1.5956 5.68181L4.94695 5.18511C5.19181 5.14882 5.403 4.99405 5.51134 4.77149L7 1.7135L8.48866 4.77149Z" stroke="#DFB402" stroke-width="1.5" stroke-linecap="round" stroke-linejoin="round"/>
</svg>
