<svg width="131" height="22" viewBox="0 0 131 22" fill="none" xmlns="http://www.w3.org/2000/svg">
<path fill-rule="evenodd" clip-rule="evenodd" d="M11.4999 19.1989L5.61025 21.893C5.01866 22.1636 4.31982 21.9032 4.04934 21.3113C3.96006 21.116 3.92585 20.8999 3.95042 20.6865L4.69147 14.25L0.310426 9.4786C-0.129627 8.99933 -0.0980175 8.25391 0.381029 7.81365C0.539151 7.66833 0.73397 7.56902 0.944423 7.52646L7.29206 6.24258L10.4741 0.599577C10.7937 0.0327671 11.5121 -0.167504 12.0786 0.152259C12.2656 0.257806 12.4202 0.412486 12.5257 0.599577L15.7077 6.24258L22.0554 7.52646C22.6929 7.65542 23.1053 8.27706 22.9764 8.91494C22.9339 9.12549 22.8346 9.3204 22.6894 9.4786L18.3083 14.25L19.0494 20.6865C19.1238 21.333 18.6603 21.9175 18.0141 21.992C17.8008 22.0166 17.5848 21.9823 17.3895 21.893L11.4999 19.1989V19.1989Z" fill="#F1B509"/>
<path fill-rule="evenodd" clip-rule="evenodd" d="M38.4999 19.1989L32.6102 21.893C32.0187 22.1636 31.3198 21.9032 31.0493 21.3113C30.9601 21.116 30.9258 20.8999 30.9504 20.6865L31.6915 14.25L27.3104 9.4786C26.8704 8.99933 26.902 8.25391 27.381 7.81365C27.5392 7.66833 27.734 7.56902 27.9444 7.52646L34.2921 6.24258L37.4741 0.599577C37.7937 0.0327671 38.5121 -0.167504 39.0786 0.152259C39.2656 0.257806 39.4202 0.412486 39.5257 0.599577L42.7077 6.24258L49.0554 7.52646C49.6929 7.65542 50.1053 8.27706 49.9764 8.91494C49.9339 9.12549 49.8346 9.3204 49.6894 9.4786L45.3083 14.25L46.0494 20.6865C46.1238 21.333 45.6603 21.9175 45.0141 21.992C44.8008 22.0166 44.5848 21.9823 44.3895 21.893L38.4999 19.1989V19.1989Z" fill="#F1B509"/>
<path fill-rule="evenodd" clip-rule="evenodd" d="M65.4999 19.1989L59.6102 21.893C59.0187 22.1636 58.3198 21.9032 58.0493 21.3113C57.9601 21.116 57.9258 20.8999 57.9504 20.6865L58.6915 14.25L54.3104 9.4786C53.8704 8.99933 53.902 8.25391 54.381 7.81365C54.5392 7.66833 54.734 7.56902 54.9444 7.52646L61.2921 6.24258L64.4741 0.599577C64.7937 0.0327671 65.5121 -0.167504 66.0786 0.152259C66.2656 0.257806 66.4202 0.412486 66.5257 0.599577L69.7077 6.24258L76.0554 7.52646C76.6929 7.65542 77.1053 8.27706 76.9764 8.91494C76.9339 9.12549 76.8346 9.3204 76.6894 9.4786L72.3083 14.25L73.0494 20.6865C73.1238 21.333 72.6603 21.9175 72.0141 21.992C71.8008 22.0166 71.5848 21.9823 71.3895 21.893L65.4999 19.1989V19.1989Z" fill="#F1B509"/>
<path fill-rule="evenodd" clip-rule="evenodd" d="M92.4999 19.1989L86.6102 21.893C86.0187 22.1636 85.3198 21.9032 85.0493 21.3113C84.9601 21.116 84.9258 20.8999 84.9504 20.6865L85.6915 14.25L81.3104 9.4786C80.8704 8.99933 80.902 8.25391 81.381 7.81365C81.5392 7.66833 81.734 7.56902 81.9444 7.52646L88.2921 6.24258L91.4741 0.599577C91.7937 0.0327671 92.5121 -0.167504 93.0786 0.152259C93.2656 0.257806 93.4202 0.412486 93.5257 0.599577L96.7077 6.24258L103.055 7.52646C103.693 7.65542 104.105 8.27706 103.976 8.91494C103.934 9.12549 103.835 9.3204 103.689 9.4786L99.3083 14.25L100.049 20.6865C100.124 21.333 99.6603 21.9175 99.0141 21.992C98.8008 22.0166 98.5848 21.9823 98.3895 21.893L92.4999 19.1989V19.1989Z" fill="#F1B509"/>
<path fill-rule="evenodd" clip-rule="evenodd" d="M119.5 19.1989L113.61 21.893C113.019 22.1636 112.32 21.9032 112.049 21.3113C111.96 21.116 111.926 20.8999 111.95 20.6865L112.691 14.25L108.31 9.4786C107.87 8.99933 107.902 8.25391 108.381 7.81365C108.539 7.66833 108.734 7.56902 108.944 7.52646L115.292 6.24258L118.474 0.599577C118.794 0.0327671 119.512 -0.167504 120.079 0.152259C120.266 0.257806 120.42 0.412486 120.526 0.599577L123.708 6.24258L130.055 7.52646C130.693 7.65542 131.105 8.27706 130.976 8.91494C130.934 9.12549 130.835 9.3204 130.689 9.4786L126.308 14.25L127.049 20.6865C127.124 21.333 126.66 21.9175 126.014 21.992C125.801 22.0166 125.585 21.9823 125.389 21.893L119.5 19.1989V19.1989Z" fill="#F1B509"/>
</svg>
