<svg width="78" height="14" viewBox="0 0 78 14" fill="none" xmlns="http://www.w3.org/2000/svg">
<path fill-rule="evenodd" clip-rule="evenodd" d="M7 0L9.163 4.44322L14 5.16009L10.5 8.61672L11.326 13.5L7 11.1932L2.674 13.5L3.5 8.61672L0 5.16009L4.837 4.44322L7 0V0Z" fill="#DFB402"/>
<path fill-rule="evenodd" clip-rule="evenodd" d="M23 0L25.163 4.44322L30 5.16009L26.5 8.61672L27.326 13.5L23 11.1932L18.674 13.5L19.5 8.61672L16 5.16009L20.837 4.44322L23 0V0Z" fill="#DFB402"/>
<path fill-rule="evenodd" clip-rule="evenodd" d="M39 0L41.163 4.44322L46 5.16009L42.5 8.61672L43.326 13.5L39 11.1932L34.674 13.5L35.5 8.61672L32 5.16009L36.837 4.44322L39 0V0Z" fill="#DFB402"/>
<path fill-rule="evenodd" clip-rule="evenodd" d="M55 0L57.163 4.44322L62 5.16009L58.5 8.61672L59.326 13.5L55 11.1932L50.674 13.5L51.5 8.61672L48 5.16009L52.837 4.44322L55 0V0Z" fill="#DFB402"/>
<path fill-rule="evenodd" clip-rule="evenodd" d="M71 0L73.163 4.44322L78 5.16009L74.5 8.61672L75.326 13.5L71 11.1932L66.674 13.5L67.5 8.61672L64 5.16009L68.837 4.44322L71 0V0Z" fill="#DFB402"/>
</svg>
