<svg width="117" height="21" viewBox="0 0 117 21" fill="none" xmlns="http://www.w3.org/2000/svg">
<path fill-rule="evenodd" clip-rule="evenodd" d="M58.5 0L61.7445 6.66483L69 7.74014L63.75 12.9251L64.989 20.25L58.5 16.7898L52.011 20.25L53.25 12.9251L48 7.74014L55.2555 6.66483L58.5 0V0Z" fill="#DFB402"/>
<path fill-rule="evenodd" clip-rule="evenodd" d="M10.5 0L13.7445 6.66483L21 7.74014L15.75 12.9251L16.989 20.25L10.5 16.7898L4.011 20.25L5.25 12.9251L0 7.74014L7.2555 6.66483L10.5 0V0Z" fill="#DFB402"/>
<path fill-rule="evenodd" clip-rule="evenodd" d="M82.5 0L85.7445 6.66483L93 7.74014L87.75 12.9251L88.989 20.25L82.5 16.7898L76.011 20.25L77.25 12.9251L72 7.74014L79.2555 6.66483L82.5 0V0Z" fill="#DFB402"/>
<path fill-rule="evenodd" clip-rule="evenodd" d="M34.5 0L37.7445 6.66483L45 7.74014L39.75 12.9251L40.989 20.25L34.5 16.7898L28.011 20.25L29.25 12.9251L24 7.74014L31.2555 6.66483L34.5 0V0Z" fill="#DFB402"/>
<path fill-rule="evenodd" clip-rule="evenodd" d="M106.5 0L109.745 6.66483L117 7.74014L111.75 12.9251L112.989 20.25L106.5 16.7898L100.011 20.25L101.25 12.9251L96 7.74014L103.255 6.66483L106.5 0V0Z" fill="#DFB402"/>
</svg>
