<svg width="117" height="21" viewBox="0 0 117 21" fill="none" xmlns="http://www.w3.org/2000/svg">
<path d="M85.0702 6.9931C85.1785 7.21566 85.3897 7.37043 85.6345 7.40672L91.4044 8.26186L87.223 12.3915C87.049 12.5633 86.9697 12.8091 87.0105 13.0502L87.9949 18.8699L82.8529 16.128C82.6323 16.0104 82.3677 16.0104 82.1471 16.128L77.0051 18.87L77.9895 13.0502C78.0303 12.8091 77.951 12.5633 77.777 12.3915L73.5956 8.26186L79.3655 7.40672C79.6103 7.37043 79.8215 7.21566 79.9298 6.9931L82.5 1.7135L85.0702 6.9931Z" stroke="#DFB402" stroke-width="1.5" stroke-linecap="round" stroke-linejoin="round"/>
<path d="M13.0702 6.9931C13.1785 7.21566 13.3897 7.37043 13.6345 7.40672L19.4044 8.26186L15.223 12.3915C15.049 12.5633 14.9697 12.8091 15.0105 13.0502L15.9949 18.8699L10.8529 16.128C10.6323 16.0104 10.3677 16.0104 10.1471 16.128L5.00509 18.87L5.9895 13.0502C6.03027 12.8091 5.95098 12.5633 5.77701 12.3915L1.5956 8.26186L7.36545 7.40672C7.61031 7.37043 7.8215 7.21566 7.92984 6.9931L10.5 1.7135L13.0702 6.9931Z" stroke="#DFB402" stroke-width="1.5" stroke-linecap="round" stroke-linejoin="round"/>
<path d="M37.0702 6.9931C37.1785 7.21566 37.3897 7.37043 37.6345 7.40672L43.4044 8.26186L39.223 12.3915C39.049 12.5633 38.9697 12.8091 39.0105 13.0502L39.9949 18.8699L34.8529 16.128C34.6323 16.0104 34.3677 16.0104 34.1471 16.128L29.0051 18.87L29.9895 13.0502C30.0303 12.8091 29.951 12.5633 29.777 12.3915L25.5956 8.26186L31.3655 7.40672C31.6103 7.37043 31.8215 7.21566 31.9298 6.9931L34.5 1.7135L37.0702 6.9931Z" stroke="#DFB402" stroke-width="1.5" stroke-linecap="round" stroke-linejoin="round"/>
<path d="M61.0702 6.9931C61.1785 7.21566 61.3897 7.37043 61.6345 7.40672L67.4044 8.26186L63.223 12.3915C63.049 12.5633 62.9697 12.8091 63.0105 13.0502L63.9949 18.8699L58.8529 16.128C58.6323 16.0104 58.3677 16.0104 58.1471 16.128L53.0051 18.87L53.9895 13.0502C54.0303 12.8091 53.951 12.5633 53.777 12.3915L49.5956 8.26186L55.3655 7.40672C55.6103 7.37043 55.8215 7.21566 55.9298 6.9931L58.5 1.7135L61.0702 6.9931Z" stroke="#DFB402" stroke-width="1.5" stroke-linecap="round" stroke-linejoin="round"/>
<path d="M109.07 6.9931C109.179 7.21566 109.39 7.37043 109.635 7.40672L115.404 8.26186L111.223 12.3915C111.049 12.5633 110.97 12.8091 111.011 13.0502L111.995 18.8699L106.853 16.128C106.632 16.0104 106.368 16.0104 106.147 16.128L101.005 18.87L101.989 13.0502C102.03 12.8091 101.951 12.5633 101.777 12.3915L97.5956 8.26186L103.365 7.40672C103.61 7.37043 103.821 7.21566 103.93 6.9931L106.5 1.7135L109.07 6.9931Z" stroke="#DFB402" stroke-width="1.5" stroke-linecap="round" stroke-linejoin="round"/>
</svg>
