<svg width="32" height="32" viewBox="0 0 32 32" fill="none" xmlns="http://www.w3.org/2000/svg">
<path fill-rule="evenodd" clip-rule="evenodd" d="M17.9368 20.0313C17.948 19.7 17.783 19.3875 17.503 19.2087L16.6293 18.6526C13.8274 16.87 11.7055 14.1526 10.6555 11.0019L9.88929 8.70375C9.76179 8.32063 9.40366 8.0625 8.99991 8.0625C8.59616 8.0625 8.23803 8.32063 8.11053 8.70375L7.35866 10.9601C6.29991 14.1357 4.15616 16.8676 1.32241 18.6501L0.438035 19.2062C0.15616 19.3844 -0.010715 19.6981 0.00053496 20.0313C0.011785 20.3644 0.19866 20.6669 0.49241 20.825L0.503035 20.8312C3.86616 22.6444 6.34116 25.6531 7.47241 29.3025L8.10429 31.3401C8.22616 31.7325 8.58928 32.0001 8.99991 32.0001C9.41053 32.0001 9.77366 31.7326 9.89553 31.3401L10.5399 29.2612C11.6637 25.6369 14.1174 22.6401 17.4487 20.8231C17.7399 20.6644 17.9255 20.3631 17.9368 20.0313V20.0313Z" fill="#028FDF"/>
<path fill-rule="evenodd" clip-rule="evenodd" d="M31.4755 15.1581L31.4605 15.1512C29.1218 13.9994 27.3511 11.9075 26.6018 9.41063L26.398 8.73062C26.3386 8.53244 26.2174 8.36494 26.0593 8.2475C25.9011 8.13006 25.7067 8.0625 25.4999 8.0625C25.0861 8.0625 24.7211 8.33375 24.6018 8.73062L24.3868 9.44687C23.6443 11.9224 21.8924 14.0056 19.5805 15.1613C19.263 15.32 19.0624 15.645 19.0624 16C19.0624 16.355 19.263 16.68 19.5805 16.8387C21.8924 17.9944 23.6443 20.0775 24.3868 22.5531L24.6018 23.2694C24.7211 23.6663 25.0861 23.9375 25.4999 23.9375C25.9136 23.9375 26.2786 23.6663 26.398 23.2694L26.6018 22.5894C27.3511 20.0926 29.1218 18.0006 31.4593 16.8494L31.4755 16.8419C31.7962 16.6844 31.9999 16.3575 31.9999 16C31.9999 15.6425 31.7962 15.3156 31.4755 15.1581V15.1581Z" fill="#028FDF"/>
<path fill-rule="evenodd" clip-rule="evenodd" d="M11.9799 7.78L12.0055 7.7975C13.7868 8.985 15.1255 10.6719 15.8774 12.6763L16.1224 13.3294C16.2593 13.6951 16.6093 13.9375 16.9999 13.9375C17.3905 13.9375 17.7405 13.695 17.8774 13.3294L18.1224 12.6763C18.8743 10.6719 20.213 8.985 21.9943 7.7975L22.0199 7.78C22.2805 7.60625 22.4374 7.31375 22.4374 7C22.4374 6.68625 22.2805 6.39375 22.0199 6.22C20.223 5.0225 18.8786 3.31875 18.1305 1.29313L17.8793 0.6125C17.7436 0.244375 17.3924 5.96047e-08 16.9999 5.96047e-08C16.6074 5.96047e-08 16.2561 0.244375 16.1205 0.6125L15.8693 1.29313C15.1211 3.31875 13.7768 5.0225 11.9799 6.22C11.7193 6.39375 11.5624 6.68625 11.5624 7C11.5624 7.31375 11.7193 7.60625 11.9799 7.78V7.78Z" fill="#028FDF"/>
<path fill-rule="evenodd" clip-rule="evenodd" d="M18.0004 25.5625H17.9998C17.4821 25.5625 17.0626 25.9823 17.0626 26.5C17.0626 27.0178 17.4827 27.4375 18.0004 27.4375C18.5183 27.4375 18.9379 27.0178 18.9379 26.5C18.9379 25.9823 18.5183 25.5625 18.0004 25.5625V25.5625Z" fill="#028FDF"/>
<path fill-rule="evenodd" clip-rule="evenodd" d="M23.0004 3.4375C23.5183 3.4375 23.9379 3.01775 23.9379 2.5C23.9379 1.98225 23.5183 1.5625 23.0004 1.5625H22.9998C22.4821 1.5625 22.0626 1.98225 22.0626 2.5C22.0626 3.01775 22.4827 3.4375 23.0004 3.4375V3.4375Z" fill="#028FDF"/>
<path fill-rule="evenodd" clip-rule="evenodd" d="M3.50044 10.4375C4.01825 10.4375 4.43793 10.0178 4.43793 9.5C4.43793 8.98225 4.01825 8.5625 3.50044 8.5625H3.49981C2.98206 8.5625 2.56262 8.98225 2.56262 9.5C2.56262 10.0178 2.98269 10.4375 3.50044 10.4375V10.4375Z" fill="#028FDF"/>
</svg>
