<svg width="30" height="30" viewBox="0 0 30 30" fill="none" xmlns="http://www.w3.org/2000/svg">
<path fill-rule="evenodd" clip-rule="evenodd" d="M29.9482 0.421363C29.8432 0.166385 29.5936 0 29.3182 0C2.85686 0 1.90735e-06 10.9664 1.90735e-06 15.6818C1.90735e-06 17.3782 0.376366 18.9627 1.11957 20.3904C1.23411 20.6113 1.46046 20.7517 1.70866 20.7572C1.94318 20.7504 2.19004 20.6332 2.31411 20.4164C4.1005 17.3291 9.15955 9.70906 17.5146 5.66047C17.8569 5.49683 18.266 5.63726 18.4282 5.97412C18.5918 6.31367 18.45 6.72276 18.1119 6.8864C17.4819 7.19187 16.8764 7.52458 16.2832 7.86956C16.0569 8.00181 15.8373 8.1423 15.6151 8.27999C15.281 8.48728 14.951 8.6986 14.6292 8.91683C14.3087 9.1323 13.9923 9.35321 13.6814 9.57955C13.5846 9.65044 13.4919 9.72274 13.3964 9.79503C5.08091 15.9913 1.90735e-06 25.8763 1.90735e-06 29.3182C1.90735e-06 29.6945 0.305478 30 0.681842 30C1.0582 30 1.36368 29.6945 1.36368 29.3182C1.36368 28.219 2.11232 25.9909 3.52911 23.3332C5.5855 25.0145 8.3523 25.9091 11.591 25.9091C20.3468 25.9091 22.181 17.5773 23.1655 13.1005C24.4909 7.07592 27.4078 3.5564 29.7996 1.16322C29.996 0.968202 30.0532 0.676341 29.9482 0.421363V0.421363Z" fill="#069956"/>
</svg>
