<svg width="28" height="24" viewBox="0 0 28 24" fill="none" xmlns="http://www.w3.org/2000/svg">
<path fill-rule="evenodd" clip-rule="evenodd" d="M12 13.5C12 13.2239 12.2239 13 12.5 13H15.5C15.7761 13 16 13.2239 16 13.5V13.5C16 13.7761 15.7761 14 15.5 14H12.5C12.2239 14 12 13.7761 12 13.5V13.5V13.5Z" fill="#FA8121"/>
<path fill-rule="evenodd" clip-rule="evenodd" d="M22.716 14.338H18.3516C18.2135 14.338 18.1016 14.4499 18.1016 14.588V15.1432C18.1016 15.5881 17.7346 15.9484 17.2812 15.9484H10.7188C10.2654 15.9484 9.89844 15.5881 9.89844 15.1432V14.588C9.89844 14.4499 9.78651 14.338 9.64844 14.338H5.28397C4.22333 14.338 3.28531 13.6744 2.94949 12.6868L0.973453 6.86707C0.791603 6.3315 0 6.46223 0 7.02783V21.5846C0 22.9165 1.104 24.0001 2.46094 24.0001H25.5391C26.896 24.0001 28 22.9165 28 21.5846V7.02804C28 6.46245 27.2084 6.33171 27.0266 6.86726L25.0503 12.6868C24.7147 13.6744 23.7767 14.338 22.716 14.338V14.338Z" fill="#FA8121"/>
<path fill-rule="evenodd" clip-rule="evenodd" d="M17.3882 0H10.6114C9.21012 0 8.07004 1.09349 8.07004 2.4375V3.25H2.40609C1.71818 3.25 1.2357 3.92844 1.46149 4.57823L4.19494 12.4446C4.31075 12.777 4.63416 13 4.99903 13H9.51427C9.65234 13 9.76427 12.8881 9.76427 12.75V12.1875C9.76427 11.7385 10.1433 11.375 10.6114 11.375H17.3882C17.8564 11.375 18.2355 11.7385 18.2355 12.1875V12.75C18.2355 12.8881 18.3473 13 18.4854 13H23.0006C23.3656 13 23.6889 12.777 23.8048 12.4446L26.5383 4.57825C26.7641 3.92846 26.2816 3.25 25.5937 3.25H19.9296V2.4375C19.9296 1.09349 18.7895 0 17.3882 0V0ZM9.76427 3.25V2.4375C9.76427 1.98914 10.1439 1.625 10.6114 1.625H17.3882C17.8557 1.625 18.2354 1.98914 18.2354 2.4375V3.25H9.76427V3.25Z" fill="#FA8121"/>
</svg>
