<svg width="26" height="30" viewBox="0 0 26 30" fill="none" xmlns="http://www.w3.org/2000/svg">
<path fill-rule="evenodd" clip-rule="evenodd" d="M23.9089 4.57548C22.1213 4.38611 20.3619 3.98846 18.6667 3.39063C17.1114 2.84102 15.6195 2.12667 14.2161 1.25976C13.8501 1.03562 13.4292 0.916992 13 0.916992C12.5708 0.916992 12.1499 1.03562 11.7839 1.25976C10.3806 2.12669 8.88857 2.84104 7.33333 3.39063C5.63807 3.98847 3.87874 4.38613 2.09115 4.57552C1.51739 4.63442 0.985906 4.90412 0.599595 5.3324C0.213281 5.76068 -0.000372838 6.31707 4.76837e-07 6.89384V13.8209C0.000921629 16.3769 0.68486 18.8862 1.98104 21.0892C3.27722 23.2921 5.13855 25.1087 7.3724 26.3509L11.8659 28.847C12.2121 29.0411 12.6023 29.1431 12.9993 29.1432C13.3962 29.1433 13.7865 29.0415 14.1328 28.8476L18.6276 26.3509C20.8615 25.1087 22.7228 23.2921 24.019 21.0892C25.3151 18.8862 25.9991 16.3769 26 13.8209V6.89384C26.0004 6.31706 25.7867 5.76067 25.4004 5.33238C25.0141 4.90409 24.4826 4.63438 23.9089 4.57548V4.57548Z" fill="#069956"/>
<path fill-rule="evenodd" clip-rule="evenodd" d="M12.0664 19.3112C11.6744 19.3117 11.2961 19.1675 11.0039 18.9062L7.20442 15.5293C7.04676 15.3899 6.91814 15.2209 6.82592 15.0317C6.73371 14.8426 6.67973 14.6371 6.66706 14.4271C6.65439 14.217 6.68328 14.0066 6.75209 13.8077C6.8209 13.6089 6.92826 13.4255 7.06804 13.2683C7.20781 13.111 7.37724 12.9828 7.56663 12.8911C7.75601 12.7994 7.96163 12.746 8.1717 12.7339C8.38177 12.7218 8.59216 12.7513 8.79082 12.8206C8.98949 12.89 9.17251 12.9978 9.32942 13.138L11.9648 15.4798L17.2331 9.86064C17.5235 9.55173 17.9245 9.37058 18.3482 9.35691C18.772 9.34324 19.1839 9.49817 19.4935 9.78772C19.8031 10.078 19.9848 10.4794 19.9987 10.9035C20.0126 11.3277 19.8576 11.7401 19.5677 12.0501L13.2344 18.8059C13.085 18.966 12.9041 19.0935 12.7031 19.1804C12.5021 19.2674 12.2854 19.3119 12.0664 19.3112V19.3112Z" fill="white"/>
</svg>
