<svg width="32" height="28" viewBox="0 0 32 28" fill="none" xmlns="http://www.w3.org/2000/svg">
<path fill-rule="evenodd" clip-rule="evenodd" d="M15.0634 0.255981C11.4495 0.463419 8.06053 1.86773 5.35547 4.27854L9.53897 8.46204C11.1133 7.15135 13.025 6.35929 15.0634 6.17304V0.255981V0.255981Z" fill="#FA8121"/>
<path fill-rule="evenodd" clip-rule="evenodd" d="M8.21113 9.78732L4.02769 5.60388C1.61481 8.30819 0.20875 11.6974 0 15.3122H5.91731C6.10481 13.2734 6.89856 11.3616 8.21113 9.78732V9.78732Z" fill="#FA8121"/>
<path fill-rule="evenodd" clip-rule="evenodd" d="M26.0829 15.3122H32.0002C31.7914 11.6974 30.3854 8.30819 27.9725 5.60388L23.7891 9.78732C25.1016 11.3615 25.8954 13.2734 26.0829 15.3122V15.3122Z" fill="#FA8121"/>
<path fill-rule="evenodd" clip-rule="evenodd" d="M26.0814 17.1874C25.9499 18.6313 25.5379 19.8357 25.0505 20.8018C25.5259 21.5349 25.9223 22.1546 26.1842 22.5661C26.8973 23.6868 26.7394 25.1254 25.8002 26.0647C25.5721 26.2928 25.3116 26.4766 25.0293 26.6124L26.0036 27.5868C26.187 27.7702 26.4274 27.8618 26.6677 27.8618C26.908 27.8618 27.1484 27.7702 27.3317 27.5868C30.1394 24.7793 31.7766 21.1159 32.0007 17.1874H26.0814V17.1874Z" fill="#FA8121"/>
<path fill-rule="evenodd" clip-rule="evenodd" d="M5.91937 17.1873H0C0.224063 21.1158 1.86125 24.7792 4.66894 27.5867C4.85231 27.7701 5.09263 27.8618 5.33294 27.8618C5.57325 27.8618 5.81363 27.7701 5.997 27.5867L8.8415 24.742C9.20819 24.3753 9.20819 23.7806 8.8415 23.4139C8.09919 22.6716 6.22937 20.5933 5.91937 17.1873V17.1873Z" fill="#FA8121"/>
<path fill-rule="evenodd" clip-rule="evenodd" d="M26.6454 4.27854C23.9404 1.86767 20.5514 0.463419 16.9375 0.255981V6.17304C18.9759 6.35929 20.8876 7.15135 22.4619 8.46204L26.6454 4.27854V4.27854Z" fill="#FA8121"/>
<path fill-rule="evenodd" clip-rule="evenodd" d="M18.0841 14.1823C16.9355 13.0338 15.0666 13.0338 13.9181 14.1823C12.7695 15.3309 12.7695 17.1998 13.9181 18.3483C15.3691 19.7993 22.5 24.3524 23.3083 24.8668C23.679 25.1028 24.1638 25.0495 24.4746 24.7388C24.7853 24.4281 24.8385 23.9433 24.6026 23.5726C24.0881 22.7643 19.5351 15.6333 18.0841 14.1823V14.1823Z" fill="#FA8121"/>
</svg>
