<svg width="30" height="26" viewBox="0 0 30 26" fill="none" xmlns="http://www.w3.org/2000/svg">
<path fill-rule="evenodd" clip-rule="evenodd" d="M19.2804 7.46261C19.2833 7.46419 19.2863 7.46576 19.2888 7.46813L25.4651 13.6441C25.748 13.9276 25.904 14.304 25.904 14.7041C25.904 15.1043 25.7483 15.4807 25.4651 15.7636C24.8988 16.331 23.9117 16.3304 23.3454 15.7636L17.1559 9.5743C16.9236 9.34197 16.5472 9.34197 16.3149 9.5743C16.0825 9.80663 16.0825 10.183 16.3149 10.4153L22.5073 16.6075C22.7896 16.8898 22.9452 17.2656 22.9452 17.6646C22.9452 18.0636 22.7896 18.4394 22.5073 18.7217C21.9261 19.3026 20.9801 19.3033 20.3969 18.7246C20.396 18.7237 20.3953 18.7227 20.3945 18.7217C20.3938 18.7207 20.3931 18.7197 20.3922 18.7188L14.2007 12.5272C13.9683 12.2949 13.5919 12.2949 13.3596 12.5272C13.243 12.6438 13.1853 12.7966 13.1857 12.9494C13.1857 13.1016 13.2437 13.2538 13.3599 13.37L19.5524 19.5627L19.5544 19.5644C20.1311 20.1509 20.1305 21.0956 19.548 21.6775C19.3954 21.8327 19.2108 21.9448 19.0037 22.0181C18.8829 21.4763 18.5815 20.9176 18.0948 20.4386C17.5112 19.8646 16.7928 19.5339 16.1112 19.5111C16.0784 18.8553 15.7568 18.1382 15.1544 17.5449C14.5709 16.9708 13.8523 16.6406 13.1706 16.6179C13.1378 15.962 12.8162 15.2446 12.2134 14.6513C11.6295 14.0769 10.9107 13.7466 10.2289 13.7241L10.2283 13.7118C10.2229 13.6004 10.2176 13.4889 10.1938 13.3735C10.0756 12.8002 9.74863 12.2263 9.26712 11.7524C8.66249 11.1576 7.91264 10.8167 7.20956 10.8167C6.71905 10.8167 6.29621 10.9834 5.98634 11.2982L3.58358 13.7401L3.23904 13.3955C0.110728 10.2672 0.0285402 5.25471 3.05492 2.22281C4.4881 0.78934 6.41092 0 8.46878 0C10.6303 0 12.6754 0.854973 14.2256 2.40461L14.3692 2.54978L11.0221 5.90175C10.684 6.23979 10.5089 6.70619 10.5417 7.18131C10.5746 7.65526 10.811 8.09146 11.1905 8.37839C12.3382 9.24788 13.9564 9.35882 15.2415 8.61362L18.5073 6.69236L19.2715 7.45662C19.2742 7.45925 19.2773 7.46093 19.2804 7.46261ZM26.8897 2.69861C25.4269 1.23029 23.4771 0.422363 21.3983 0.422363C19.321 0.422363 17.3688 1.23087 15.9008 2.69861L11.8626 6.74289C11.7328 6.87241 11.7224 7.02168 11.7276 7.09951C11.7331 7.17618 11.7633 7.3208 11.9076 7.43C12.6804 8.01547 13.7695 8.09098 14.641 7.58624L19.3889 4.79306C19.6718 4.62636 20.0366 4.71988 20.2036 5.00332C20.3705 5.28618 20.2764 5.65036 19.9936 5.81763L19.5656 6.06946L20.0986 6.60247C20.1011 6.60482 20.104 6.60638 20.1069 6.60795C20.1101 6.60962 20.1132 6.61129 20.1159 6.61394L26.3054 12.8032C26.5618 13.0595 26.759 13.3587 26.8924 13.6843C28.3574 12.2174 29.1645 10.2677 29.1645 8.19262C29.1645 6.11676 28.3566 4.16519 26.8897 2.69861ZM8.43896 12.6061C8.74389 12.9064 8.95909 13.2734 9.02907 13.6132C9.05405 13.734 9.09442 14.0326 8.93266 14.197L5.98962 17.1882C5.88711 17.2922 5.72912 17.3142 5.61441 17.3142C5.23252 17.3142 4.76379 17.0866 4.38539 16.7143C4.08016 16.414 3.86497 16.0469 3.79498 15.7065C3.77 15.5863 3.72964 15.2877 3.8914 15.1234L6.83472 12.1321C6.93724 12.0282 7.09522 12.0061 7.20994 12.0061C7.59183 12.0061 8.06084 12.2338 8.43896 12.6061ZM10.1572 14.9053C10.5391 14.9053 11.0081 15.133 11.3804 15.4995C11.9795 16.089 12.1352 16.8255 11.8744 17.0909L8.93138 20.0816C8.82857 20.1861 8.6703 20.2076 8.55587 20.2076C8.17398 20.2076 7.70526 19.9799 7.33266 19.6134C7.02744 19.3131 6.81224 18.9461 6.74225 18.6057C6.71728 18.4855 6.67691 18.1869 6.83867 18.0226L9.7817 15.0313C9.88422 14.9273 10.0425 14.9053 10.1572 14.9053ZM14.3197 18.3928C13.9474 18.0263 13.4786 17.7986 13.0967 17.7986C12.982 17.7986 12.8238 17.8201 12.721 17.9246L9.77792 20.9153C9.51713 21.1807 9.67279 21.9172 10.2719 22.5067C10.6445 22.8732 11.1135 23.1009 11.4954 23.1009C11.6098 23.1009 11.7681 23.0789 11.8706 22.9749L14.8137 19.9836C15.0745 19.7188 14.9185 18.9817 14.3197 18.3928ZM15.6606 20.8179C15.7631 20.714 15.9211 20.6919 16.0358 20.6919C16.4177 20.6919 16.8867 20.9196 17.2648 21.2919C17.8637 21.8808 18.0196 22.6179 17.7588 22.8828L14.8158 25.874C14.7133 25.978 14.555 26 14.4406 26C14.0584 26 13.5897 25.7724 13.2113 25.4001C12.9063 25.0998 12.6911 24.7327 12.6212 24.3929C12.5962 24.2721 12.5558 23.9736 12.7176 23.8092L15.6606 20.8179Z" fill="#BB43FF"/>
</svg>
